<svg width="99" height="111" viewBox="0 0 99 111" fill="none" xmlns="http://www.w3.org/2000/svg">
<g clip-path="url(#clip0)">
<path d="M93.5 46.5C93.5 70.7751 72.7073 90.5 47 90.5C21.2927 90.5 0.5 70.7751 0.5 46.5C0.5 22.2249 21.2927 2.5 47 2.5C72.7073 2.5 93.5 22.2249 93.5 46.5Z" fill="#FFF6A2" stroke="black"/>
<ellipse cx="34.5" cy="32" rx="5.5" ry="8" fill="black"/>
<ellipse cx="54.5" cy="32" rx="5.5" ry="8" fill="black"/>
<path d="M21.7152 49.9942C20.4061 50.5221 19.686 51.9477 20.1334 53.2865C22.1965 59.4614 25.6611 64.8009 30.1339 68.6539C35.1692 72.9913 41.2119 75.2119 47.3596 74.9841C53.5073 74.7563 59.43 72.0922 64.2431 67.3899C68.5139 63.2174 71.7077 57.6389 73.4651 51.3312C73.8477 49.958 73.0324 48.5609 71.6758 48.1232V48.1232C70.1098 47.6179 68.4601 48.582 67.9678 50.1521C66.5009 54.8304 64.0402 58.964 60.8218 62.1084C56.9367 65.904 52.1561 68.0543 47.1938 68.2382C42.2316 68.4221 37.3541 66.6297 33.2898 63.1286C29.9466 60.2488 27.3012 56.34 25.6057 51.8197C25.0164 50.2487 23.2714 49.3667 21.7152 49.9942V49.9942Z" fill="black"/>
<path d="M30.1553 106V96.0469H33.4092C34.4893 96.0469 35.3005 96.2702 35.8428 96.7168C36.3896 97.1634 36.6631 97.8242 36.6631 98.6992C36.6631 99.1641 36.5309 99.5765 36.2666 99.9365C36.0023 100.292 35.6423 100.568 35.1865 100.764C35.7243 100.914 36.1481 101.201 36.458 101.625C36.7725 102.044 36.9297 102.546 36.9297 103.129C36.9297 104.022 36.6403 104.724 36.0615 105.234C35.4827 105.745 34.6647 106 33.6074 106H30.1553ZM31.4678 101.345V104.927H33.6348C34.2454 104.927 34.7262 104.77 35.0771 104.455C35.4326 104.136 35.6104 103.699 35.6104 103.143C35.6104 101.944 34.9587 101.345 33.6553 101.345H31.4678ZM31.4678 100.292H33.4502C34.0244 100.292 34.4824 100.148 34.8242 99.8613C35.1706 99.5742 35.3438 99.1846 35.3438 98.6924C35.3438 98.1455 35.1842 97.749 34.8652 97.5029C34.5462 97.2523 34.0609 97.127 33.4092 97.127H31.4678V100.292ZM44.374 103.402H40.2041L39.2676 106H37.9141L41.7148 96.0469H42.8633L46.6709 106H45.3242L44.374 103.402ZM40.6006 102.322H43.9844L42.2891 97.667L40.6006 102.322ZM55.25 102.842C55.127 103.895 54.7373 104.708 54.0811 105.282C53.4294 105.852 52.5612 106.137 51.4766 106.137C50.3008 106.137 49.3574 105.715 48.6465 104.872C47.9401 104.029 47.5869 102.901 47.5869 101.488V100.531C47.5869 99.6061 47.751 98.7926 48.0791 98.0908C48.4118 97.389 48.8812 96.8512 49.4873 96.4775C50.0934 96.0993 50.7952 95.9102 51.5928 95.9102C52.6501 95.9102 53.4977 96.2064 54.1357 96.7988C54.7738 97.3867 55.1452 98.2025 55.25 99.2461H53.9307C53.8167 98.4531 53.5684 97.8789 53.1855 97.5234C52.8073 97.168 52.2764 96.9902 51.5928 96.9902C50.7542 96.9902 50.0957 97.3001 49.6172 97.9199C49.1432 98.5397 48.9062 99.4215 48.9062 100.565V101.529C48.9062 102.609 49.1318 103.468 49.583 104.106C50.0342 104.744 50.6654 105.063 51.4766 105.063C52.2057 105.063 52.764 104.899 53.1514 104.571C53.5433 104.239 53.8031 103.662 53.9307 102.842H55.25ZM59.5771 101.372L58.3604 102.637V106H57.0479V96.0469H58.3604V100.969L62.7832 96.0469H64.3691L60.4521 100.442L64.6768 106H63.1045L59.5771 101.372Z" fill="black"/>
</g>
<defs>
<clipPath id="clip0">
<rect width="99" height="111" fill="white"/>
</clipPath>
</defs>
</svg>
