<svg width="535" height="367" viewBox="0 0 535 367" fill="none" xmlns="http://www.w3.org/2000/svg">
<rect width="535" height="367" fill="#7FBDF7"/>
<circle cx="82.5" cy="261.5" r="9.5" fill="black" fill-opacity="0.74"/>
<path d="M217.732 98H60.4828C51.29 98 44.2599 106.194 45.657 115.28L71.7973 285.28C72.9226 292.598 79.2191 298 86.6231 298H193.711C201.184 298 207.518 292.499 208.563 285.099L232.584 115.099C233.86 106.069 226.851 98 217.732 98Z" fill="#E6CEA0" stroke="black"/>
<path d="M145.36 36L95 275.403L113.163 287L166 40.9703L145.36 36Z" fill="#E3C6F4" stroke="black"/>
<path d="M41.8996 103.757L47.5262 98.7575C48.0753 98.2695 48.7844 98 49.519 98H227.399C228.177 98 228.924 98.302 229.484 98.8422L234.66 103.842C236.601 105.717 235.274 109 232.576 109H43.8923C41.1336 109 39.8374 105.59 41.8996 103.757Z" fill="#FFDBDB" stroke="black"/>
<ellipse cx="124" cy="239.5" rx="9" ry="9.5" fill="black" fill-opacity="0.74"/>
<circle cx="82.5" cy="233.5" r="9.5" fill="black" fill-opacity="0.74"/>
<ellipse cx="115" cy="266.5" rx="9" ry="9.5" fill="black" fill-opacity="0.74"/>
<ellipse cx="88" cy="255.5" rx="9" ry="9.5" fill="black" fill-opacity="0.74"/>
<circle cx="174.5" cy="266.5" r="9.5" fill="black" fill-opacity="0.74"/>
<ellipse cx="156" cy="266.5" rx="9" ry="9.5" fill="black" fill-opacity="0.74"/>
<ellipse cx="166" cy="248.5" rx="9" ry="9.5" fill="black" fill-opacity="0.74"/>
<ellipse cx="130" cy="279.5" rx="9" ry="9.5" fill="black" fill-opacity="0.74"/>
<ellipse cx="138" cy="257.5" rx="9" ry="9.5" fill="black" fill-opacity="0.74"/>
<ellipse cx="165" cy="286.5" rx="9" ry="9.5" fill="black" fill-opacity="0.74"/>
<ellipse cx="193" cy="275.5" rx="9" ry="9.5" fill="black" fill-opacity="0.74"/>
<ellipse cx="95" cy="279.5" rx="9" ry="9.5" fill="black" fill-opacity="0.74"/>
<ellipse cx="194" cy="245.5" rx="9" ry="9.5" fill="black" fill-opacity="0.74"/>
<ellipse cx="147" cy="242.5" rx="9" ry="9.5" fill="black" fill-opacity="0.74"/>
<rect x="302.5" y="124.5" width="196" height="127" fill="white" stroke="black"/>
<path d="M334.375 155.801C334.375 157.738 333.93 159.297 333.039 160.477C332.148 161.648 330.953 162.234 329.453 162.234C327.852 162.234 326.613 161.668 325.738 160.535L325.633 162H323.641V144H325.809V150.715C326.684 149.629 327.891 149.086 329.43 149.086C330.969 149.086 332.176 149.668 333.051 150.832C333.934 151.996 334.375 153.59 334.375 155.613V155.801ZM332.207 155.555C332.207 154.078 331.922 152.938 331.352 152.133C330.781 151.328 329.961 150.926 328.891 150.926C327.461 150.926 326.434 151.59 325.809 152.918V158.402C326.473 159.73 327.508 160.395 328.914 160.395C329.953 160.395 330.762 159.992 331.34 159.188C331.918 158.383 332.207 157.172 332.207 155.555ZM339.473 162H337.305V144H339.473V162ZM350.781 162C350.656 161.75 350.555 161.305 350.477 160.664C349.469 161.711 348.266 162.234 346.867 162.234C345.617 162.234 344.59 161.883 343.785 161.18C342.988 160.469 342.59 159.57 342.59 158.484C342.59 157.164 343.09 156.141 344.09 155.414C345.098 154.68 346.512 154.312 348.332 154.312H350.441V153.316C350.441 152.559 350.215 151.957 349.762 151.512C349.309 151.059 348.641 150.832 347.758 150.832C346.984 150.832 346.336 151.027 345.812 151.418C345.289 151.809 345.027 152.281 345.027 152.836H342.848C342.848 152.203 343.07 151.594 343.516 151.008C343.969 150.414 344.578 149.945 345.344 149.602C346.117 149.258 346.965 149.086 347.887 149.086C349.348 149.086 350.492 149.453 351.32 150.188C352.148 150.914 352.578 151.918 352.609 153.199V159.035C352.609 160.199 352.758 161.125 353.055 161.812V162H350.781ZM347.184 160.348C347.863 160.348 348.508 160.172 349.117 159.82C349.727 159.469 350.168 159.012 350.441 158.449V155.848H348.742C346.086 155.848 344.758 156.625 344.758 158.18C344.758 158.859 344.984 159.391 345.438 159.773C345.891 160.156 346.473 160.348 347.184 160.348ZM361.094 160.465C361.867 160.465 362.543 160.23 363.121 159.762C363.699 159.293 364.02 158.707 364.082 158.004H366.133C366.094 158.73 365.844 159.422 365.383 160.078C364.922 160.734 364.305 161.258 363.531 161.648C362.766 162.039 361.953 162.234 361.094 162.234C359.367 162.234 357.992 161.66 356.969 160.512C355.953 159.355 355.445 157.777 355.445 155.777V155.414C355.445 154.18 355.672 153.082 356.125 152.121C356.578 151.16 357.227 150.414 358.07 149.883C358.922 149.352 359.926 149.086 361.082 149.086C362.504 149.086 363.684 149.512 364.621 150.363C365.566 151.215 366.07 152.32 366.133 153.68H364.082C364.02 152.859 363.707 152.188 363.145 151.664C362.59 151.133 361.902 150.867 361.082 150.867C359.98 150.867 359.125 151.266 358.516 152.062C357.914 152.852 357.613 153.996 357.613 155.496V155.906C357.613 157.367 357.914 158.492 358.516 159.281C359.117 160.07 359.977 160.465 361.094 160.465ZM372.109 156.129L370.75 157.547V162H368.582V144H370.75V154.887L371.91 153.492L375.859 149.32H378.496L373.562 154.617L379.07 162H376.527L372.109 156.129ZM388.727 149.32L388.785 150.727C389.715 149.633 390.969 149.086 392.547 149.086C394.32 149.086 395.527 149.766 396.168 151.125C396.59 150.516 397.137 150.023 397.809 149.648C398.488 149.273 399.289 149.086 400.211 149.086C402.992 149.086 404.406 150.559 404.453 153.504V162H402.285V153.633C402.285 152.727 402.078 152.051 401.664 151.605C401.25 151.152 400.555 150.926 399.578 150.926C398.773 150.926 398.105 151.168 397.574 151.652C397.043 152.129 396.734 152.773 396.648 153.586V162H394.469V153.691C394.469 151.848 393.566 150.926 391.762 150.926C390.34 150.926 389.367 151.531 388.844 152.742V162H386.676V149.32H388.727ZM410.09 162H407.922V149.32H410.09V162ZM407.746 145.957C407.746 145.605 407.852 145.309 408.062 145.066C408.281 144.824 408.602 144.703 409.023 144.703C409.445 144.703 409.766 144.824 409.984 145.066C410.203 145.309 410.312 145.605 410.312 145.957C410.312 146.309 410.203 146.602 409.984 146.836C409.766 147.07 409.445 147.188 409.023 147.188C408.602 147.188 408.281 147.07 408.062 146.836C407.852 146.602 407.746 146.309 407.746 145.957ZM415.926 162H413.758V144H415.926V162ZM422.945 156.129L421.586 157.547V162H419.418V144H421.586V154.887L422.746 153.492L426.695 149.32H429.332L424.398 154.617L429.906 162H427.363L422.945 156.129ZM440.465 146.25V149.32H442.832V150.996H440.465V158.859C440.465 159.367 440.57 159.75 440.781 160.008C440.992 160.258 441.352 160.383 441.859 160.383C442.109 160.383 442.453 160.336 442.891 160.242V162C442.32 162.156 441.766 162.234 441.227 162.234C440.258 162.234 439.527 161.941 439.035 161.355C438.543 160.77 438.297 159.938 438.297 158.859V150.996H435.988V149.32H438.297V146.25H440.465ZM450.637 162.234C448.918 162.234 447.52 161.672 446.441 160.547C445.363 159.414 444.824 157.902 444.824 156.012V155.613C444.824 154.355 445.062 153.234 445.539 152.25C446.023 151.258 446.695 150.484 447.555 149.93C448.422 149.367 449.359 149.086 450.367 149.086C452.016 149.086 453.297 149.629 454.211 150.715C455.125 151.801 455.582 153.355 455.582 155.379V156.281H446.992C447.023 157.531 447.387 158.543 448.082 159.316C448.785 160.082 449.676 160.465 450.754 160.465C451.52 160.465 452.168 160.309 452.699 159.996C453.23 159.684 453.695 159.27 454.094 158.754L455.418 159.785C454.355 161.418 452.762 162.234 450.637 162.234ZM450.367 150.867C449.492 150.867 448.758 151.188 448.164 151.828C447.57 152.461 447.203 153.352 447.062 154.5H453.414V154.336C453.352 153.234 453.055 152.383 452.523 151.781C451.992 151.172 451.273 150.867 450.367 150.867ZM465.93 162C465.805 161.75 465.703 161.305 465.625 160.664C464.617 161.711 463.414 162.234 462.016 162.234C460.766 162.234 459.738 161.883 458.934 161.18C458.137 160.469 457.738 159.57 457.738 158.484C457.738 157.164 458.238 156.141 459.238 155.414C460.246 154.68 461.66 154.312 463.48 154.312H465.59V153.316C465.59 152.559 465.363 151.957 464.91 151.512C464.457 151.059 463.789 150.832 462.906 150.832C462.133 150.832 461.484 151.027 460.961 151.418C460.438 151.809 460.176 152.281 460.176 152.836H457.996C457.996 152.203 458.219 151.594 458.664 151.008C459.117 150.414 459.727 149.945 460.492 149.602C461.266 149.258 462.113 149.086 463.035 149.086C464.496 149.086 465.641 149.453 466.469 150.188C467.297 150.914 467.727 151.918 467.758 153.199V159.035C467.758 160.199 467.906 161.125 468.203 161.812V162H465.93ZM462.332 160.348C463.012 160.348 463.656 160.172 464.266 159.82C464.875 159.469 465.316 159.012 465.59 158.449V155.848H463.891C461.234 155.848 459.906 156.625 459.906 158.18C459.906 158.859 460.133 159.391 460.586 159.773C461.039 160.156 461.621 160.348 462.332 160.348ZM325.575 167.664H324.27V179.094H325.575V180.133H322.998V166.625H325.575V167.664ZM332.938 174.384C332.938 175.514 332.678 176.423 332.158 177.111C331.639 177.795 330.941 178.137 330.066 178.137C329.132 178.137 328.41 177.806 327.899 177.146L327.838 178H326.676V167.5H327.94V171.417C328.451 170.784 329.155 170.467 330.053 170.467C330.951 170.467 331.655 170.806 332.165 171.485C332.68 172.164 332.938 173.094 332.938 174.274V174.384ZM331.673 174.24C331.673 173.379 331.507 172.714 331.174 172.244C330.841 171.775 330.363 171.54 329.738 171.54C328.904 171.54 328.305 171.927 327.94 172.702V175.901C328.328 176.676 328.932 177.063 329.752 177.063C330.358 177.063 330.83 176.829 331.167 176.359C331.504 175.89 331.673 175.184 331.673 174.24ZM335.911 178H334.646V167.5H335.911V178ZM342.508 178C342.435 177.854 342.376 177.594 342.33 177.221C341.742 177.831 341.04 178.137 340.225 178.137C339.495 178.137 338.896 177.932 338.427 177.521C337.962 177.107 337.729 176.583 337.729 175.949C337.729 175.179 338.021 174.582 338.604 174.158C339.192 173.73 340.017 173.516 341.079 173.516H342.31V172.935C342.31 172.493 342.177 172.142 341.913 171.882C341.649 171.618 341.259 171.485 340.744 171.485C340.293 171.485 339.915 171.599 339.609 171.827C339.304 172.055 339.151 172.331 339.151 172.654H337.88C337.88 172.285 338.01 171.93 338.27 171.588C338.534 171.242 338.889 170.968 339.336 170.768C339.787 170.567 340.282 170.467 340.819 170.467C341.672 170.467 342.339 170.681 342.822 171.109C343.305 171.533 343.556 172.119 343.574 172.866V176.271C343.574 176.95 343.661 177.49 343.834 177.891V178H342.508ZM340.409 177.036C340.806 177.036 341.182 176.934 341.537 176.729C341.893 176.523 342.15 176.257 342.31 175.929V174.411H341.318C339.769 174.411 338.994 174.865 338.994 175.771C338.994 176.168 339.126 176.478 339.391 176.701C339.655 176.924 339.994 177.036 340.409 177.036ZM347.621 174.575L346.828 175.402V178H345.563V167.5H346.828V173.851L347.505 173.037L349.809 170.604H351.347L348.469 173.693L351.682 178H350.198L347.621 174.575ZM355.284 174.288H351.948V173.256H355.284V174.288ZM357.711 170.604L357.745 171.424C358.287 170.786 359.019 170.467 359.939 170.467C360.974 170.467 361.678 170.863 362.052 171.656C362.298 171.301 362.617 171.014 363.009 170.795C363.405 170.576 363.872 170.467 364.41 170.467C366.033 170.467 366.857 171.326 366.885 173.044V178H365.62V173.119C365.62 172.59 365.499 172.196 365.258 171.937C365.016 171.672 364.611 171.54 364.041 171.54C363.572 171.54 363.182 171.681 362.872 171.964C362.562 172.242 362.382 172.618 362.332 173.092V178H361.061V173.153C361.061 172.078 360.534 171.54 359.481 171.54C358.652 171.54 358.085 171.893 357.779 172.6V178H356.515V170.604H357.711ZM370.173 178H368.908V170.604H370.173V178ZM368.806 168.642C368.806 168.437 368.867 168.263 368.99 168.122C369.118 167.981 369.305 167.91 369.551 167.91C369.797 167.91 369.984 167.981 370.111 168.122C370.239 168.263 370.303 168.437 370.303 168.642C370.303 168.847 370.239 169.018 370.111 169.154C369.984 169.291 369.797 169.359 369.551 169.359C369.305 169.359 369.118 169.291 368.99 169.154C368.867 169.018 368.806 168.847 368.806 168.642ZM373.577 178H372.312V167.5H373.577V178ZM377.672 174.575L376.879 175.402V178H375.614V167.5H376.879V173.851L377.556 173.037L379.859 170.604H381.397L378.52 173.693L381.732 178H380.249L377.672 174.575ZM385.335 174.288H381.999V173.256H385.335V174.288ZM388.288 168.812V170.604H389.669V171.581H388.288V176.168C388.288 176.464 388.35 176.688 388.473 176.838C388.596 176.984 388.805 177.057 389.102 177.057C389.247 177.057 389.448 177.029 389.703 176.975V178C389.37 178.091 389.047 178.137 388.732 178.137C388.167 178.137 387.741 177.966 387.454 177.624C387.167 177.282 387.023 176.797 387.023 176.168V171.581H385.677V170.604H387.023V168.812H388.288ZM394.222 178.137C393.219 178.137 392.403 177.809 391.774 177.152C391.146 176.492 390.831 175.61 390.831 174.507V174.274C390.831 173.541 390.97 172.887 391.248 172.312C391.531 171.734 391.923 171.283 392.424 170.959C392.93 170.631 393.477 170.467 394.064 170.467C395.026 170.467 395.773 170.784 396.307 171.417C396.84 172.05 397.106 172.957 397.106 174.138V174.664H392.096C392.114 175.393 392.326 175.983 392.731 176.435C393.142 176.881 393.661 177.104 394.29 177.104C394.737 177.104 395.115 177.013 395.425 176.831C395.735 176.649 396.006 176.407 396.238 176.106L397.011 176.708C396.391 177.66 395.461 178.137 394.222 178.137ZM394.064 171.506C393.554 171.506 393.126 171.693 392.779 172.066C392.433 172.436 392.219 172.955 392.137 173.625H395.842V173.529C395.805 172.887 395.632 172.39 395.322 172.039C395.012 171.684 394.593 171.506 394.064 171.506ZM401.646 178.137C400.643 178.137 399.827 177.809 399.198 177.152C398.569 176.492 398.255 175.61 398.255 174.507V174.274C398.255 173.541 398.394 172.887 398.672 172.312C398.954 171.734 399.346 171.283 399.848 170.959C400.354 170.631 400.9 170.467 401.488 170.467C402.45 170.467 403.197 170.784 403.73 171.417C404.264 172.05 404.53 172.957 404.53 174.138V174.664H399.52C399.538 175.393 399.75 175.983 400.155 176.435C400.565 176.881 401.085 177.104 401.714 177.104C402.16 177.104 402.539 177.013 402.849 176.831C403.159 176.649 403.43 176.407 403.662 176.106L404.435 176.708C403.815 177.66 402.885 178.137 401.646 178.137ZM401.488 171.506C400.978 171.506 400.549 171.693 400.203 172.066C399.857 172.436 399.643 172.955 399.561 173.625H403.266V173.529C403.229 172.887 403.056 172.39 402.746 172.039C402.436 171.684 402.017 171.506 401.488 171.506ZM405.104 166.625H407.688V180.133H405.104V179.094H406.424V167.664H405.104V166.625ZM421.757 170.604L421.818 171.458C422.347 170.797 423.056 170.467 423.944 170.467C424.728 170.467 425.312 170.697 425.694 171.157C426.077 171.618 426.273 172.306 426.282 173.222V178H424.307V173.27C424.307 172.85 424.215 172.547 424.033 172.36C423.851 172.169 423.548 172.073 423.124 172.073C422.568 172.073 422.151 172.31 421.873 172.784V178H419.897V170.604H421.757ZM427.479 174.233C427.479 173.5 427.62 172.846 427.902 172.271C428.185 171.697 428.59 171.253 429.119 170.938C429.652 170.624 430.27 170.467 430.972 170.467C431.97 170.467 432.783 170.772 433.412 171.383C434.046 171.993 434.399 172.823 434.472 173.871L434.485 174.377C434.485 175.512 434.169 176.423 433.535 177.111C432.902 177.795 432.052 178.137 430.985 178.137C429.919 178.137 429.067 177.795 428.429 177.111C427.795 176.428 427.479 175.498 427.479 174.322V174.233ZM429.454 174.377C429.454 175.079 429.586 175.617 429.851 175.99C430.115 176.359 430.493 176.544 430.985 176.544C431.464 176.544 431.838 176.362 432.106 175.997C432.375 175.628 432.51 175.04 432.51 174.233C432.51 173.545 432.375 173.012 432.106 172.634C431.838 172.256 431.459 172.066 430.972 172.066C430.489 172.066 430.115 172.256 429.851 172.634C429.586 173.007 429.454 173.589 429.454 174.377ZM440.132 177.248C439.644 177.84 438.97 178.137 438.108 178.137C437.315 178.137 436.709 177.909 436.29 177.453C435.875 176.997 435.663 176.33 435.654 175.45V170.604H437.63V175.382C437.63 176.152 437.981 176.537 438.683 176.537C439.353 176.537 439.813 176.305 440.063 175.84V170.604H442.046V178H440.187L440.132 177.248ZM445.354 170.604L445.416 171.458C445.945 170.797 446.653 170.467 447.542 170.467C448.326 170.467 448.909 170.697 449.292 171.157C449.675 171.618 449.871 172.306 449.88 173.222V178H447.904V173.27C447.904 172.85 447.813 172.547 447.631 172.36C447.449 172.169 447.146 172.073 446.722 172.073C446.166 172.073 445.749 172.31 445.471 172.784V178H443.495V170.604H445.354ZM327.015 201.412C327.015 202.236 326.832 202.89 326.468 203.375C326.103 203.857 325.613 204.098 324.998 204.098C324.262 204.098 323.706 203.824 323.328 203.277L323.304 204H322.757V196.5H323.338V199.483C323.709 198.907 324.259 198.619 324.988 198.619C325.613 198.619 326.106 198.858 326.468 199.337C326.832 199.812 327.015 200.475 327.015 201.324V201.412ZM326.429 201.31C326.429 200.613 326.294 200.076 326.023 199.698C325.753 199.317 325.372 199.127 324.881 199.127C324.507 199.127 324.189 199.22 323.929 199.405C323.668 199.588 323.471 199.856 323.338 200.211V202.594C323.631 203.258 324.148 203.59 324.891 203.59C325.372 203.59 325.748 203.399 326.019 203.019C326.292 202.638 326.429 202.068 326.429 201.31ZM328.963 204H328.377V196.5H328.963V204ZM333.89 204C333.831 203.834 333.794 203.588 333.777 203.263C333.572 203.53 333.31 203.736 332.991 203.883C332.675 204.026 332.34 204.098 331.985 204.098C331.478 204.098 331.066 203.956 330.75 203.673C330.438 203.39 330.281 203.032 330.281 202.599C330.281 202.084 330.494 201.677 330.921 201.378C331.351 201.078 331.948 200.929 332.713 200.929H333.772V200.328C333.772 199.951 333.655 199.654 333.421 199.439C333.19 199.221 332.851 199.112 332.405 199.112C331.998 199.112 331.661 199.216 331.395 199.425C331.128 199.633 330.994 199.884 330.994 200.177L330.408 200.172C330.408 199.752 330.604 199.389 330.994 199.083C331.385 198.774 331.865 198.619 332.435 198.619C333.024 198.619 333.488 198.767 333.826 199.063C334.168 199.356 334.344 199.767 334.354 200.294V202.794C334.354 203.305 334.407 203.688 334.515 203.941V204H333.89ZM332.054 203.58C332.444 203.58 332.793 203.486 333.099 203.297C333.408 203.108 333.632 202.856 333.772 202.54V201.378H332.728C332.145 201.384 331.689 201.492 331.36 201.7C331.032 201.905 330.867 202.188 330.867 202.55C330.867 202.846 330.976 203.092 331.194 203.287C331.416 203.482 331.702 203.58 332.054 203.58ZM337.869 203.604C338.276 203.604 338.616 203.491 338.89 203.263C339.166 203.032 339.316 202.734 339.339 202.369H339.9C339.884 202.691 339.783 202.986 339.598 203.253C339.412 203.517 339.165 203.723 338.855 203.873C338.549 204.023 338.221 204.098 337.869 204.098C337.176 204.098 336.626 203.857 336.219 203.375C335.815 202.893 335.613 202.245 335.613 201.432V201.256C335.613 200.735 335.704 200.274 335.887 199.874C336.069 199.474 336.329 199.164 336.668 198.946C337.01 198.728 337.409 198.619 337.864 198.619C338.444 198.619 338.921 198.792 339.295 199.137C339.673 199.482 339.874 199.936 339.9 200.499H339.339C339.313 200.086 339.163 199.752 338.89 199.498C338.619 199.244 338.278 199.117 337.864 199.117C337.337 199.117 336.927 199.308 336.634 199.688C336.344 200.069 336.199 200.603 336.199 201.29V201.461C336.199 202.135 336.344 202.66 336.634 203.038C336.927 203.416 337.339 203.604 337.869 203.604ZM342.327 201.339L341.658 201.983V204H341.072V196.5H341.658V201.3L342.21 200.704L344.231 198.717H344.969L342.728 200.943L345.164 204H344.466L342.327 201.339ZM349.314 197.364V198.717H350.408V199.195H349.314V202.716C349.314 203.009 349.367 203.227 349.471 203.37C349.578 203.513 349.756 203.585 350.003 203.585C350.101 203.585 350.258 203.569 350.477 203.536L350.501 204.015C350.348 204.07 350.14 204.098 349.876 204.098C349.476 204.098 349.184 203.982 349.002 203.751C348.82 203.517 348.729 203.173 348.729 202.721V199.195H347.757V198.717H348.729V197.364H349.314ZM353.665 204.098C353.216 204.098 352.809 203.987 352.444 203.766C352.083 203.544 351.801 203.237 351.6 202.843C351.398 202.446 351.297 202.001 351.297 201.51V201.3C351.297 200.792 351.395 200.335 351.59 199.928C351.788 199.521 352.063 199.202 352.415 198.971C352.767 198.736 353.147 198.619 353.558 198.619C354.199 198.619 354.707 198.839 355.081 199.278C355.459 199.715 355.647 200.312 355.647 201.07V201.397H351.878V201.51C351.878 202.109 352.049 202.608 352.391 203.009C352.736 203.406 353.169 203.604 353.689 203.604C354.002 203.604 354.277 203.548 354.515 203.434C354.756 203.32 354.974 203.137 355.169 202.887L355.535 203.165C355.105 203.787 354.482 204.098 353.665 204.098ZM353.558 199.117C353.118 199.117 352.747 199.278 352.444 199.601C352.145 199.923 351.963 200.356 351.897 200.899H355.066V200.836C355.05 200.328 354.905 199.915 354.632 199.596C354.358 199.277 354 199.117 353.558 199.117ZM360.12 204C360.062 203.834 360.024 203.588 360.008 203.263C359.803 203.53 359.541 203.736 359.222 203.883C358.906 204.026 358.571 204.098 358.216 204.098C357.708 204.098 357.296 203.956 356.98 203.673C356.668 203.39 356.512 203.032 356.512 202.599C356.512 202.084 356.725 201.677 357.151 201.378C357.581 201.078 358.178 200.929 358.943 200.929H360.003V200.328C360.003 199.951 359.886 199.654 359.651 199.439C359.42 199.221 359.082 199.112 358.636 199.112C358.229 199.112 357.892 199.216 357.625 199.425C357.358 199.633 357.225 199.884 357.225 200.177L356.639 200.172C356.639 199.752 356.834 199.389 357.225 199.083C357.615 198.774 358.095 198.619 358.665 198.619C359.254 198.619 359.718 198.767 360.057 199.063C360.398 199.356 360.574 199.767 360.584 200.294V202.794C360.584 203.305 360.638 203.688 360.745 203.941V204H360.12ZM358.284 203.58C358.675 203.58 359.023 203.486 359.329 203.297C359.638 203.108 359.863 202.856 360.003 202.54V201.378H358.958C358.375 201.384 357.92 201.492 357.591 201.7C357.262 201.905 357.098 202.188 357.098 202.55C357.098 202.846 357.207 203.092 357.425 203.287C357.646 203.482 357.933 203.58 358.284 203.58ZM367.742 202.657C367.742 202.368 367.625 202.135 367.391 201.959C367.16 201.783 366.81 201.646 366.341 201.549C365.872 201.448 365.507 201.334 365.247 201.207C364.99 201.077 364.798 200.919 364.671 200.733C364.547 200.548 364.485 200.323 364.485 200.06C364.485 199.643 364.66 199.299 365.008 199.029C365.356 198.756 365.802 198.619 366.346 198.619C366.935 198.619 367.407 198.766 367.762 199.059C368.12 199.348 368.299 199.728 368.299 200.196H367.713C367.713 199.887 367.583 199.63 367.322 199.425C367.065 199.22 366.74 199.117 366.346 199.117C365.962 199.117 365.652 199.203 365.418 199.376C365.187 199.545 365.071 199.767 365.071 200.04C365.071 200.304 365.167 200.509 365.359 200.655C365.555 200.799 365.908 200.93 366.419 201.051C366.933 201.171 367.317 201.3 367.571 201.437C367.828 201.573 368.019 201.738 368.143 201.93C368.266 202.122 368.328 202.354 368.328 202.628C368.328 203.074 368.147 203.43 367.786 203.697C367.428 203.964 366.959 204.098 366.38 204.098C365.765 204.098 365.265 203.95 364.881 203.653C364.5 203.354 364.31 202.976 364.31 202.521H364.896C364.918 202.862 365.062 203.129 365.325 203.321C365.592 203.51 365.944 203.604 366.38 203.604C366.787 203.604 367.116 203.515 367.366 203.336C367.617 203.157 367.742 202.931 367.742 202.657ZM370.228 199.61C370.42 199.295 370.665 199.05 370.965 198.878C371.264 198.705 371.591 198.619 371.946 198.619C372.513 198.619 372.934 198.779 373.211 199.098C373.488 199.417 373.628 199.895 373.631 200.533V204H373.05V200.528C373.047 200.056 372.946 199.705 372.747 199.474C372.552 199.243 372.238 199.127 371.805 199.127C371.443 199.127 371.123 199.241 370.843 199.469C370.566 199.693 370.361 199.998 370.228 200.382V204H369.646V196.5H370.228V199.61ZM378.47 204C378.411 203.834 378.374 203.588 378.357 203.263C378.152 203.53 377.89 203.736 377.571 203.883C377.256 204.026 376.92 204.098 376.565 204.098C376.058 204.098 375.646 203.956 375.33 203.673C375.018 203.39 374.861 203.032 374.861 202.599C374.861 202.084 375.075 201.677 375.501 201.378C375.931 201.078 376.528 200.929 377.293 200.929H378.353V200.328C378.353 199.951 378.235 199.654 378.001 199.439C377.77 199.221 377.431 199.112 376.985 199.112C376.578 199.112 376.242 199.216 375.975 199.425C375.708 199.633 375.574 199.884 375.574 200.177L374.988 200.172C374.988 199.752 375.184 199.389 375.574 199.083C375.965 198.774 376.445 198.619 377.015 198.619C377.604 198.619 378.068 198.767 378.406 199.063C378.748 199.356 378.924 199.767 378.934 200.294V202.794C378.934 203.305 378.987 203.688 379.095 203.941V204H378.47ZM376.634 203.58C377.024 203.58 377.373 203.486 377.679 203.297C377.988 203.108 378.213 202.856 378.353 202.54V201.378H377.308C376.725 201.384 376.269 201.492 375.94 201.7C375.612 201.905 375.447 202.188 375.447 202.55C375.447 202.846 375.556 203.092 375.774 203.287C375.996 203.482 376.282 203.58 376.634 203.58ZM381.751 201.339L381.082 201.983V204H380.496V196.5H381.082V201.3L381.634 200.704L383.655 198.717H384.393L382.151 200.943L384.588 204H383.89L381.751 201.339ZM387.347 204.098C386.897 204.098 386.491 203.987 386.126 203.766C385.765 203.544 385.483 203.237 385.281 202.843C385.079 202.446 384.979 202.001 384.979 201.51V201.3C384.979 200.792 385.076 200.335 385.271 199.928C385.47 199.521 385.745 199.202 386.097 198.971C386.448 198.736 386.829 198.619 387.239 198.619C387.881 198.619 388.388 198.839 388.763 199.278C389.14 199.715 389.329 200.312 389.329 201.07V201.397H385.56V201.51C385.56 202.109 385.73 202.608 386.072 203.009C386.417 203.406 386.85 203.604 387.371 203.604C387.684 203.604 387.959 203.548 388.196 203.434C388.437 203.32 388.655 203.137 388.851 202.887L389.217 203.165C388.787 203.787 388.164 204.098 387.347 204.098ZM387.239 199.117C386.8 199.117 386.429 199.278 386.126 199.601C385.826 199.923 385.644 200.356 385.579 200.899H388.748V200.836C388.732 200.328 388.587 199.915 388.313 199.596C388.04 199.277 387.682 199.117 387.239 199.117ZM391.023 198.717L391.043 199.62C391.242 199.295 391.489 199.047 391.785 198.878C392.081 198.705 392.409 198.619 392.767 198.619C393.333 198.619 393.755 198.779 394.031 199.098C394.308 199.417 394.448 199.895 394.451 200.533V204H393.87V200.528C393.867 200.056 393.766 199.705 393.567 199.474C393.372 199.243 393.058 199.127 392.625 199.127C392.264 199.127 391.943 199.241 391.663 199.469C391.386 199.693 391.181 199.998 391.048 200.382V204H390.467V198.717H391.023ZM399.661 202.784L399.749 203.238L399.866 202.76L401.136 198.717H401.634L402.889 202.726L403.025 203.282L403.138 202.77L404.222 198.717H404.827L403.289 204H402.791L401.434 199.811L401.37 199.522L401.307 199.815L399.974 204H399.476L397.942 198.717H398.543L399.661 202.784ZM406.59 204H406.004V198.717H406.59V204ZM405.901 197.188C405.901 197.078 405.937 196.985 406.009 196.91C406.08 196.832 406.178 196.793 406.302 196.793C406.425 196.793 406.523 196.832 406.595 196.91C406.67 196.985 406.707 197.078 406.707 197.188C406.707 197.299 406.67 197.392 406.595 197.467C406.523 197.542 406.425 197.579 406.302 197.579C406.178 197.579 406.08 197.542 406.009 197.467C405.937 197.392 405.901 197.299 405.901 197.188ZM409.09 197.364V198.717H410.184V199.195H409.09V202.716C409.09 203.009 409.142 203.227 409.246 203.37C409.354 203.513 409.531 203.585 409.778 203.585C409.876 203.585 410.034 203.569 410.252 203.536L410.276 204.015C410.123 204.07 409.915 204.098 409.651 204.098C409.251 204.098 408.96 203.982 408.777 203.751C408.595 203.517 408.504 203.173 408.504 202.721V199.195H407.532V198.717H408.504V197.364H409.09ZM411.976 199.61C412.168 199.295 412.413 199.05 412.713 198.878C413.012 198.705 413.34 198.619 413.694 198.619C414.261 198.619 414.682 198.779 414.959 199.098C415.236 199.417 415.376 199.895 415.379 200.533V204H414.798V200.528C414.795 200.056 414.694 199.705 414.495 199.474C414.3 199.243 413.986 199.127 413.553 199.127C413.191 199.127 412.871 199.241 412.591 199.469C412.314 199.693 412.109 199.998 411.976 200.382V204H411.395V196.5H411.976V199.61ZM419.847 198.717L419.866 199.576C420.062 199.257 420.306 199.018 420.599 198.858C420.892 198.699 421.217 198.619 421.575 198.619C422.409 198.619 422.938 198.961 423.162 199.645C423.351 199.316 423.603 199.063 423.919 198.888C424.235 198.709 424.583 198.619 424.964 198.619C426.097 198.619 426.674 199.238 426.697 200.475V204H426.111V200.519C426.108 200.047 426.006 199.697 425.804 199.469C425.605 199.241 425.28 199.127 424.827 199.127C424.407 199.133 424.052 199.27 423.763 199.537C423.473 199.801 423.312 200.123 423.279 200.504V204H422.693V200.475C422.69 200.022 422.583 199.685 422.371 199.464C422.163 199.239 421.84 199.127 421.404 199.127C421.036 199.127 420.721 199.233 420.457 199.444C420.193 199.653 419.998 199.964 419.871 200.377V204H419.285V198.717H419.847ZM428.836 204H428.25V198.717H428.836V204ZM428.147 197.188C428.147 197.078 428.183 196.985 428.255 196.91C428.326 196.832 428.424 196.793 428.548 196.793C428.672 196.793 428.769 196.832 428.841 196.91C428.916 196.985 428.953 197.078 428.953 197.188C428.953 197.299 428.916 197.392 428.841 197.467C428.769 197.542 428.672 197.579 428.548 197.579C428.424 197.579 428.326 197.542 428.255 197.467C428.183 197.392 428.147 197.299 428.147 197.188ZM431.082 204H430.496V196.5H431.082V204ZM433.929 201.339L433.26 201.983V204H432.674V196.5H433.26V201.3L433.812 200.704L435.833 198.717H436.57L434.329 200.943L436.766 204H436.067L433.929 201.339ZM437.522 203.648C437.522 203.535 437.558 203.438 437.63 203.36C437.705 203.279 437.807 203.238 437.938 203.238C438.068 203.238 438.17 203.279 438.245 203.36C438.32 203.438 438.357 203.535 438.357 203.648C438.357 203.762 438.32 203.857 438.245 203.932C438.17 204.003 438.068 204.039 437.938 204.039C437.807 204.039 437.705 204.003 437.63 203.932C437.558 203.857 437.522 203.762 437.522 203.648ZM447.791 200.831C447.791 201.485 447.677 202.06 447.449 202.555C447.225 203.049 446.902 203.43 446.482 203.697C446.062 203.964 445.577 204.098 445.027 204.098C444.197 204.098 443.527 203.801 443.016 203.209C442.505 202.613 442.249 201.811 442.249 200.802V200.069C442.249 199.422 442.363 198.849 442.591 198.351C442.822 197.849 443.147 197.465 443.567 197.198C443.987 196.928 444.471 196.793 445.018 196.793C445.564 196.793 446.046 196.925 446.463 197.188C446.883 197.452 447.207 197.825 447.435 198.307C447.662 198.788 447.781 199.347 447.791 199.981V200.831ZM447.19 200.06C447.19 199.203 446.997 198.533 446.609 198.048C446.222 197.563 445.691 197.32 445.018 197.32C444.357 197.32 443.829 197.564 443.436 198.053C443.045 198.538 442.85 199.216 442.85 200.089V200.831C442.85 201.674 443.045 202.343 443.436 202.838C443.826 203.329 444.357 203.575 445.027 203.575C445.708 203.575 446.238 203.333 446.619 202.848C447 202.359 447.19 201.681 447.19 200.812V200.06ZM453.416 201.412C453.416 202.236 453.234 202.89 452.869 203.375C452.505 203.857 452.016 204.098 451.404 204.098C450.682 204.098 450.128 203.844 449.744 203.336V206.031H449.163V198.717H449.705L449.734 199.464C450.115 198.901 450.667 198.619 451.39 198.619C452.021 198.619 452.516 198.858 452.874 199.337C453.235 199.815 453.416 200.479 453.416 201.329V201.412ZM452.83 201.31C452.83 200.636 452.692 200.104 452.415 199.713C452.138 199.322 451.753 199.127 451.258 199.127C450.9 199.127 450.592 199.213 450.335 199.386C450.078 199.558 449.881 199.809 449.744 200.138V202.672C449.884 202.975 450.084 203.206 450.345 203.365C450.605 203.525 450.913 203.604 451.268 203.604C451.759 203.604 452.142 203.409 452.415 203.019C452.692 202.625 452.83 202.055 452.83 201.31ZM455.623 197.364V198.717H456.717V199.195H455.623V202.716C455.623 203.009 455.675 203.227 455.779 203.37C455.887 203.513 456.064 203.585 456.312 203.585C456.409 203.585 456.567 203.569 456.785 203.536L456.81 204.015C456.657 204.07 456.448 204.098 456.185 204.098C455.784 204.098 455.493 203.982 455.311 203.751C455.128 203.517 455.037 203.173 455.037 202.721V199.195H454.065V198.717H455.037V197.364H455.623ZM458.582 204H457.996V198.717H458.582V204ZM457.894 197.188C457.894 197.078 457.929 196.985 458.001 196.91C458.073 196.832 458.17 196.793 458.294 196.793C458.418 196.793 458.515 196.832 458.587 196.91C458.662 196.985 458.699 197.078 458.699 197.188C458.699 197.299 458.662 197.392 458.587 197.467C458.515 197.542 458.418 197.579 458.294 197.579C458.17 197.579 458.073 197.542 458.001 197.467C457.929 197.392 457.894 197.299 457.894 197.188ZM459.852 201.28C459.852 200.772 459.949 200.315 460.145 199.908C460.343 199.501 460.621 199.186 460.979 198.961C461.341 198.733 461.749 198.619 462.205 198.619C462.908 198.619 463.478 198.867 463.914 199.361C464.35 199.853 464.568 200.506 464.568 201.319V201.441C464.568 201.952 464.469 202.413 464.271 202.823C464.075 203.23 463.799 203.544 463.44 203.766C463.082 203.987 462.674 204.098 462.215 204.098C461.515 204.098 460.945 203.852 460.506 203.36C460.07 202.866 459.852 202.211 459.852 201.397V201.28ZM460.438 201.441C460.438 202.073 460.6 202.592 460.926 202.999C461.255 203.403 461.684 203.604 462.215 203.604C462.742 203.604 463.169 203.403 463.494 202.999C463.823 202.592 463.987 202.057 463.987 201.393V201.28C463.987 200.877 463.912 200.507 463.763 200.172C463.613 199.837 463.403 199.578 463.133 199.396C462.863 199.21 462.553 199.117 462.205 199.117C461.684 199.117 461.259 199.322 460.931 199.732C460.602 200.139 460.438 200.673 460.438 201.334V201.441ZM466.336 198.717L466.355 199.62C466.554 199.295 466.801 199.047 467.098 198.878C467.394 198.705 467.721 198.619 468.079 198.619C468.646 198.619 469.067 198.779 469.344 199.098C469.62 199.417 469.76 199.895 469.764 200.533V204H469.183V200.528C469.179 200.056 469.078 199.705 468.88 199.474C468.685 199.243 468.37 199.127 467.938 199.127C467.576 199.127 467.256 199.241 466.976 199.469C466.699 199.693 466.494 199.998 466.36 200.382V204H465.779V198.717H466.336ZM474.617 197.364V198.717H475.711V199.195H474.617V202.716C474.617 203.009 474.669 203.227 474.773 203.37C474.881 203.513 475.058 203.585 475.306 203.585C475.403 203.585 475.561 203.569 475.779 203.536L475.804 204.015C475.651 204.07 475.442 204.098 475.179 204.098C474.778 204.098 474.487 203.982 474.305 203.751C474.122 203.517 474.031 203.173 474.031 202.721V199.195H473.06V198.717H474.031V197.364H474.617ZM476.502 201.28C476.502 200.772 476.6 200.315 476.795 199.908C476.993 199.501 477.272 199.186 477.63 198.961C477.991 198.733 478.4 198.619 478.855 198.619C479.559 198.619 480.128 198.867 480.564 199.361C481.001 199.853 481.219 200.506 481.219 201.319V201.441C481.219 201.952 481.119 202.413 480.921 202.823C480.726 203.23 480.449 203.544 480.091 203.766C479.733 203.987 479.324 204.098 478.865 204.098C478.165 204.098 477.596 203.852 477.156 203.36C476.72 202.866 476.502 202.211 476.502 201.397V201.28ZM477.088 201.441C477.088 202.073 477.251 202.592 477.576 202.999C477.905 203.403 478.335 203.604 478.865 203.604C479.393 203.604 479.819 203.403 480.145 202.999C480.473 202.592 480.638 202.057 480.638 201.393V201.28C480.638 200.877 480.563 200.507 480.413 200.172C480.263 199.837 480.053 199.578 479.783 199.396C479.513 199.21 479.204 199.117 478.855 199.117C478.335 199.117 477.91 199.322 477.581 199.732C477.252 200.139 477.088 200.673 477.088 201.334V201.441ZM326.097 216C326.038 215.834 326.001 215.588 325.984 215.263C325.779 215.53 325.517 215.736 325.198 215.883C324.882 216.026 324.547 216.098 324.192 216.098C323.685 216.098 323.273 215.956 322.957 215.673C322.645 215.39 322.488 215.032 322.488 214.599C322.488 214.084 322.701 213.677 323.128 213.378C323.558 213.078 324.155 212.929 324.92 212.929H325.979V212.328C325.979 211.951 325.862 211.654 325.628 211.439C325.397 211.221 325.058 211.112 324.612 211.112C324.205 211.112 323.868 211.216 323.602 211.425C323.335 211.633 323.201 211.884 323.201 212.177L322.615 212.172C322.615 211.752 322.811 211.389 323.201 211.083C323.592 210.774 324.072 210.619 324.642 210.619C325.231 210.619 325.695 210.767 326.033 211.063C326.375 211.356 326.551 211.767 326.561 212.294V214.794C326.561 215.305 326.614 215.688 326.722 215.941V216H326.097ZM324.261 215.58C324.651 215.58 325 215.486 325.306 215.297C325.615 215.108 325.84 214.856 325.979 214.54V213.378H324.935C324.352 213.384 323.896 213.492 323.567 213.7C323.239 213.905 323.074 214.188 323.074 214.55C323.074 214.846 323.183 215.092 323.401 215.287C323.623 215.482 323.909 215.58 324.261 215.58ZM327.889 213.31C327.889 212.489 328.071 211.837 328.436 211.352C328.803 210.863 329.301 210.619 329.93 210.619C330.643 210.619 331.186 210.901 331.561 211.464V208.5H332.142V216H331.595L331.57 215.297C331.196 215.831 330.646 216.098 329.92 216.098C329.311 216.098 328.82 215.854 328.445 215.365C328.074 214.874 327.889 214.211 327.889 213.378V213.31ZM328.479 213.412C328.479 214.086 328.615 214.618 328.885 215.009C329.155 215.396 329.536 215.59 330.027 215.59C330.747 215.59 331.258 215.272 331.561 214.638V212.157C331.258 211.47 330.75 211.127 330.037 211.127C329.546 211.127 329.163 211.321 328.89 211.708C328.616 212.092 328.479 212.66 328.479 213.412ZM333.445 213.31C333.445 212.489 333.628 211.837 333.992 211.352C334.36 210.863 334.858 210.619 335.486 210.619C336.199 210.619 336.743 210.901 337.117 211.464V208.5H337.698V216H337.151L337.127 215.297C336.753 215.831 336.202 216.098 335.477 216.098C334.868 216.098 334.376 215.854 334.002 215.365C333.631 214.874 333.445 214.211 333.445 213.378V213.31ZM334.036 213.412C334.036 214.086 334.171 214.618 334.441 215.009C334.712 215.396 335.092 215.59 335.584 215.59C336.303 215.59 336.814 215.272 337.117 214.638V212.157C336.814 211.47 336.307 211.127 335.594 211.127C335.102 211.127 334.72 211.321 334.446 211.708C334.173 212.092 334.036 212.66 334.036 213.412ZM342.576 209.364V210.717H343.67V211.195H342.576V214.716C342.576 215.009 342.628 215.227 342.732 215.37C342.84 215.513 343.017 215.585 343.265 215.585C343.362 215.585 343.52 215.569 343.738 215.536L343.763 216.015C343.61 216.07 343.401 216.098 343.138 216.098C342.737 216.098 342.446 215.982 342.264 215.751C342.081 215.517 341.99 215.173 341.99 214.721V211.195H341.019V210.717H341.99V209.364H342.576ZM348.216 216C348.157 215.834 348.12 215.588 348.104 215.263C347.898 215.53 347.636 215.736 347.317 215.883C347.002 216.026 346.666 216.098 346.312 216.098C345.804 216.098 345.392 215.956 345.076 215.673C344.764 215.39 344.607 215.032 344.607 214.599C344.607 214.084 344.821 213.677 345.247 213.378C345.677 213.078 346.274 212.929 347.039 212.929H348.099V212.328C348.099 211.951 347.981 211.654 347.747 211.439C347.516 211.221 347.177 211.112 346.731 211.112C346.325 211.112 345.988 211.216 345.721 211.425C345.454 211.633 345.32 211.884 345.32 212.177L344.734 212.172C344.734 211.752 344.93 211.389 345.32 211.083C345.711 210.774 346.191 210.619 346.761 210.619C347.35 210.619 347.814 210.767 348.152 211.063C348.494 211.356 348.67 211.767 348.68 212.294V214.794C348.68 215.305 348.733 215.688 348.841 215.941V216H348.216ZM346.38 215.58C346.771 215.58 347.119 215.486 347.425 215.297C347.734 215.108 347.959 214.856 348.099 214.54V213.378H347.054C346.471 213.384 346.015 213.492 345.687 213.7C345.358 213.905 345.193 214.188 345.193 214.55C345.193 214.846 345.302 215.092 345.521 215.287C345.742 215.482 346.028 215.58 346.38 215.58ZM354.49 213.412C354.49 214.236 354.308 214.89 353.943 215.375C353.579 215.857 353.09 216.098 352.479 216.098C351.756 216.098 351.202 215.844 350.818 215.336V218.031H350.237V210.717H350.779L350.809 211.464C351.189 210.901 351.741 210.619 352.464 210.619C353.095 210.619 353.59 210.858 353.948 211.337C354.31 211.815 354.49 212.479 354.49 213.329V213.412ZM353.904 213.31C353.904 212.636 353.766 212.104 353.489 211.713C353.213 211.322 352.827 211.127 352.332 211.127C351.974 211.127 351.666 211.213 351.409 211.386C351.152 211.558 350.955 211.809 350.818 212.138V214.672C350.958 214.975 351.159 215.206 351.419 215.365C351.679 215.525 351.987 215.604 352.342 215.604C352.833 215.604 353.216 215.409 353.489 215.019C353.766 214.625 353.904 214.055 353.904 213.31ZM356.443 216H355.857V210.717H356.443V216ZM355.755 209.188C355.755 209.078 355.791 208.985 355.862 208.91C355.934 208.832 356.032 208.793 356.155 208.793C356.279 208.793 356.377 208.832 356.448 208.91C356.523 208.985 356.561 209.078 356.561 209.188C356.561 209.299 356.523 209.392 356.448 209.467C356.377 209.542 356.279 209.579 356.155 209.579C356.032 209.579 355.934 209.542 355.862 209.467C355.791 209.392 355.755 209.299 355.755 209.188ZM357.713 213.28C357.713 212.772 357.811 212.315 358.006 211.908C358.204 211.501 358.483 211.186 358.841 210.961C359.202 210.733 359.611 210.619 360.066 210.619C360.77 210.619 361.339 210.867 361.775 211.361C362.212 211.853 362.43 212.506 362.43 213.319V213.441C362.43 213.952 362.33 214.413 362.132 214.823C361.937 215.23 361.66 215.544 361.302 215.766C360.944 215.987 360.535 216.098 360.076 216.098C359.376 216.098 358.807 215.852 358.367 215.36C357.931 214.866 357.713 214.211 357.713 213.397V213.28ZM358.299 213.441C358.299 214.073 358.462 214.592 358.787 214.999C359.116 215.403 359.546 215.604 360.076 215.604C360.604 215.604 361.03 215.403 361.355 214.999C361.684 214.592 361.849 214.057 361.849 213.393V213.28C361.849 212.877 361.774 212.507 361.624 212.172C361.474 211.837 361.264 211.578 360.994 211.396C360.724 211.21 360.415 211.117 360.066 211.117C359.546 211.117 359.121 211.322 358.792 211.732C358.463 212.139 358.299 212.673 358.299 213.334V213.441ZM365.594 215.604C366.001 215.604 366.341 215.491 366.614 215.263C366.891 215.032 367.041 214.734 367.063 214.369H367.625C367.609 214.691 367.508 214.986 367.322 215.253C367.137 215.517 366.889 215.723 366.58 215.873C366.274 216.023 365.945 216.098 365.594 216.098C364.9 216.098 364.35 215.857 363.943 215.375C363.54 214.893 363.338 214.245 363.338 213.432V213.256C363.338 212.735 363.429 212.274 363.611 211.874C363.794 211.474 364.054 211.164 364.393 210.946C364.734 210.728 365.133 210.619 365.589 210.619C366.168 210.619 366.645 210.792 367.02 211.137C367.397 211.482 367.599 211.936 367.625 212.499H367.063C367.037 212.086 366.888 211.752 366.614 211.498C366.344 211.244 366.002 211.117 365.589 211.117C365.062 211.117 364.651 211.308 364.358 211.688C364.069 212.069 363.924 212.603 363.924 213.29V213.461C363.924 214.135 364.069 214.66 364.358 215.038C364.651 215.416 365.063 215.604 365.594 215.604ZM372.132 216C372.073 215.834 372.036 215.588 372.02 215.263C371.814 215.53 371.552 215.736 371.233 215.883C370.918 216.026 370.582 216.098 370.228 216.098C369.72 216.098 369.308 215.956 368.992 215.673C368.68 215.39 368.523 215.032 368.523 214.599C368.523 214.084 368.737 213.677 369.163 213.378C369.593 213.078 370.19 212.929 370.955 212.929H372.015V212.328C372.015 211.951 371.897 211.654 371.663 211.439C371.432 211.221 371.093 211.112 370.647 211.112C370.241 211.112 369.904 211.216 369.637 211.425C369.37 211.633 369.236 211.884 369.236 212.177L368.65 212.172C368.65 211.752 368.846 211.389 369.236 211.083C369.627 210.774 370.107 210.619 370.677 210.619C371.266 210.619 371.73 210.767 372.068 211.063C372.41 211.356 372.586 211.767 372.596 212.294V214.794C372.596 215.305 372.649 215.688 372.757 215.941V216H372.132ZM370.296 215.58C370.687 215.58 371.035 215.486 371.341 215.297C371.65 215.108 371.875 214.856 372.015 214.54V213.378H370.97C370.387 213.384 369.931 213.492 369.603 213.7C369.274 213.905 369.109 214.188 369.109 214.55C369.109 214.846 369.218 215.092 369.437 215.287C369.658 215.482 369.944 215.58 370.296 215.58ZM380.838 213.412C380.838 214.236 380.656 214.89 380.291 215.375C379.926 215.857 379.438 216.098 378.826 216.098C378.104 216.098 377.55 215.844 377.166 215.336V218.031H376.585V210.717H377.127L377.156 211.464C377.537 210.901 378.089 210.619 378.812 210.619C379.443 210.619 379.938 210.858 380.296 211.337C380.657 211.815 380.838 212.479 380.838 213.329V213.412ZM380.252 213.31C380.252 212.636 380.114 212.104 379.837 211.713C379.56 211.322 379.174 211.127 378.68 211.127C378.322 211.127 378.014 211.213 377.757 211.386C377.5 211.558 377.303 211.809 377.166 212.138V214.672C377.306 214.975 377.506 215.206 377.767 215.365C378.027 215.525 378.335 215.604 378.689 215.604C379.181 215.604 379.563 215.409 379.837 215.019C380.114 214.625 380.252 214.055 380.252 213.31ZM384.183 216.098C383.733 216.098 383.326 215.987 382.962 215.766C382.601 215.544 382.319 215.237 382.117 214.843C381.915 214.446 381.814 214.001 381.814 213.51V213.3C381.814 212.792 381.912 212.335 382.107 211.928C382.306 211.521 382.581 211.202 382.933 210.971C383.284 210.736 383.665 210.619 384.075 210.619C384.716 210.619 385.224 210.839 385.599 211.278C385.976 211.715 386.165 212.312 386.165 213.07V213.397H382.396V213.51C382.396 214.109 382.566 214.608 382.908 215.009C383.253 215.406 383.686 215.604 384.207 215.604C384.52 215.604 384.795 215.548 385.032 215.434C385.273 215.32 385.491 215.137 385.687 214.887L386.053 215.165C385.623 215.787 385 216.098 384.183 216.098ZM384.075 211.117C383.636 211.117 383.265 211.278 382.962 211.601C382.662 211.923 382.48 212.356 382.415 212.899H385.584V212.836C385.568 212.328 385.423 211.915 385.149 211.596C384.876 211.277 384.518 211.117 384.075 211.117ZM390.638 216C390.579 215.834 390.542 215.588 390.525 215.263C390.32 215.53 390.058 215.736 389.739 215.883C389.424 216.026 389.088 216.098 388.733 216.098C388.226 216.098 387.814 215.956 387.498 215.673C387.186 215.39 387.029 215.032 387.029 214.599C387.029 214.084 387.243 213.677 387.669 213.378C388.099 213.078 388.696 212.929 389.461 212.929H390.521V212.328C390.521 211.951 390.403 211.654 390.169 211.439C389.938 211.221 389.599 211.112 389.153 211.112C388.746 211.112 388.41 211.216 388.143 211.425C387.876 211.633 387.742 211.884 387.742 212.177L387.156 212.172C387.156 211.752 387.352 211.389 387.742 211.083C388.133 210.774 388.613 210.619 389.183 210.619C389.772 210.619 390.236 210.767 390.574 211.063C390.916 211.356 391.092 211.767 391.102 212.294V214.794C391.102 215.305 391.155 215.688 391.263 215.941V216H390.638ZM388.802 215.58C389.192 215.58 389.541 215.486 389.847 215.297C390.156 215.108 390.381 214.856 390.521 214.54V213.378H389.476C388.893 213.384 388.437 213.492 388.108 213.7C387.78 213.905 387.615 214.188 387.615 214.55C387.615 214.846 387.724 215.092 387.942 215.287C388.164 215.482 388.45 215.58 388.802 215.58ZM395.105 211.215C394.982 211.192 394.85 211.181 394.71 211.181C394.345 211.181 394.036 211.283 393.782 211.488C393.532 211.69 393.353 211.985 393.245 212.372V216H392.664V210.717H393.235L393.245 211.557C393.554 210.932 394.051 210.619 394.734 210.619C394.897 210.619 395.026 210.64 395.12 210.683L395.105 211.215ZM396.688 216H396.102V208.5H396.688V216ZM401.443 214.657C401.443 214.368 401.326 214.135 401.092 213.959C400.861 213.783 400.511 213.646 400.042 213.549C399.573 213.448 399.209 213.334 398.948 213.207C398.691 213.077 398.499 212.919 398.372 212.733C398.248 212.548 398.187 212.323 398.187 212.06C398.187 211.643 398.361 211.299 398.709 211.029C399.057 210.756 399.503 210.619 400.047 210.619C400.636 210.619 401.108 210.766 401.463 211.059C401.821 211.348 402 211.728 402 212.196H401.414C401.414 211.887 401.284 211.63 401.023 211.425C400.766 211.22 400.441 211.117 400.047 211.117C399.663 211.117 399.354 211.203 399.119 211.376C398.888 211.545 398.772 211.767 398.772 212.04C398.772 212.304 398.868 212.509 399.061 212.655C399.256 212.799 399.609 212.93 400.12 213.051C400.634 213.171 401.019 213.3 401.272 213.437C401.53 213.573 401.72 213.738 401.844 213.93C401.967 214.122 402.029 214.354 402.029 214.628C402.029 215.074 401.849 215.43 401.487 215.697C401.129 215.964 400.66 216.098 400.081 216.098C399.466 216.098 398.966 215.95 398.582 215.653C398.201 215.354 398.011 214.976 398.011 214.521H398.597C398.619 214.862 398.763 215.129 399.026 215.321C399.293 215.51 399.645 215.604 400.081 215.604C400.488 215.604 400.817 215.515 401.067 215.336C401.318 215.157 401.443 214.931 401.443 214.657ZM403.226 217.328L402.879 217.074C403.175 216.677 403.328 216.265 403.338 215.839V215.082H403.909V215.692C403.909 216.369 403.681 216.915 403.226 217.328ZM413.46 216C413.401 215.834 413.364 215.588 413.348 215.263C413.143 215.53 412.881 215.736 412.562 215.883C412.246 216.026 411.91 216.098 411.556 216.098C411.048 216.098 410.636 215.956 410.32 215.673C410.008 215.39 409.852 215.032 409.852 214.599C409.852 214.084 410.065 213.677 410.491 213.378C410.921 213.078 411.518 212.929 412.283 212.929H413.343V212.328C413.343 211.951 413.226 211.654 412.991 211.439C412.76 211.221 412.422 211.112 411.976 211.112C411.569 211.112 411.232 211.216 410.965 211.425C410.698 211.633 410.564 211.884 410.564 212.177L409.979 212.172C409.979 211.752 410.174 211.389 410.564 211.083C410.955 210.774 411.435 210.619 412.005 210.619C412.594 210.619 413.058 210.767 413.396 211.063C413.738 211.356 413.914 211.767 413.924 212.294V214.794C413.924 215.305 413.978 215.688 414.085 215.941V216H413.46ZM411.624 215.58C412.015 215.58 412.363 215.486 412.669 215.297C412.978 215.108 413.203 214.856 413.343 214.54V213.378H412.298C411.715 213.384 411.259 213.492 410.931 213.7C410.602 213.905 410.438 214.188 410.438 214.55C410.438 214.846 410.547 215.092 410.765 215.287C410.986 215.482 411.272 215.58 411.624 215.58ZM421.082 214.657C421.082 214.368 420.965 214.135 420.73 213.959C420.499 213.783 420.149 213.646 419.681 213.549C419.212 213.448 418.847 213.334 418.587 213.207C418.33 213.077 418.138 212.919 418.011 212.733C417.887 212.548 417.825 212.323 417.825 212.06C417.825 211.643 417.999 211.299 418.348 211.029C418.696 210.756 419.142 210.619 419.686 210.619C420.275 210.619 420.747 210.766 421.102 211.059C421.46 211.348 421.639 211.728 421.639 212.196H421.053C421.053 211.887 420.923 211.63 420.662 211.425C420.405 211.22 420.079 211.117 419.686 211.117C419.301 211.117 418.992 211.203 418.758 211.376C418.527 211.545 418.411 211.767 418.411 212.04C418.411 212.304 418.507 212.509 418.699 212.655C418.895 212.799 419.248 212.93 419.759 213.051C420.273 213.171 420.657 213.3 420.911 213.437C421.168 213.573 421.359 213.738 421.482 213.93C421.606 214.122 421.668 214.354 421.668 214.628C421.668 215.074 421.487 215.43 421.126 215.697C420.768 215.964 420.299 216.098 419.72 216.098C419.104 216.098 418.605 215.95 418.221 215.653C417.84 215.354 417.649 214.976 417.649 214.521H418.235C418.258 214.862 418.401 215.129 418.665 215.321C418.932 215.51 419.284 215.604 419.72 215.604C420.127 215.604 420.455 215.515 420.706 215.336C420.957 215.157 421.082 214.931 421.082 214.657ZM423.895 209.364V210.717H424.988V211.195H423.895V214.716C423.895 215.009 423.947 215.227 424.051 215.37C424.158 215.513 424.336 215.585 424.583 215.585C424.681 215.585 424.839 215.569 425.057 215.536L425.081 216.015C424.928 216.07 424.72 216.098 424.456 216.098C424.056 216.098 423.764 215.982 423.582 215.751C423.4 215.517 423.309 215.173 423.309 214.721V211.195H422.337V210.717H423.309V209.364H423.895ZM429.534 216C429.476 215.834 429.438 215.588 429.422 215.263C429.217 215.53 428.955 215.736 428.636 215.883C428.32 216.026 427.985 216.098 427.63 216.098C427.122 216.098 426.71 215.956 426.395 215.673C426.082 215.39 425.926 215.032 425.926 214.599C425.926 214.084 426.139 213.677 426.565 213.378C426.995 213.078 427.592 212.929 428.357 212.929H429.417V212.328C429.417 211.951 429.3 211.654 429.065 211.439C428.834 211.221 428.496 211.112 428.05 211.112C427.643 211.112 427.306 211.216 427.039 211.425C426.772 211.633 426.639 211.884 426.639 212.177L426.053 212.172C426.053 211.752 426.248 211.389 426.639 211.083C427.029 210.774 427.509 210.619 428.079 210.619C428.668 210.619 429.132 210.767 429.471 211.063C429.812 211.356 429.988 211.767 429.998 212.294V214.794C429.998 215.305 430.052 215.688 430.159 215.941V216H429.534ZM427.698 215.58C428.089 215.58 428.437 215.486 428.743 215.297C429.052 215.108 429.277 214.856 429.417 214.54V213.378H428.372C427.789 213.384 427.334 213.492 427.005 213.7C426.676 213.905 426.512 214.188 426.512 214.55C426.512 214.846 426.621 215.092 426.839 215.287C427.06 215.482 427.347 215.58 427.698 215.58ZM434.002 211.215C433.878 211.192 433.746 211.181 433.606 211.181C433.242 211.181 432.933 211.283 432.679 211.488C432.428 211.69 432.249 211.985 432.142 212.372V216H431.561V210.717H432.132L432.142 211.557C432.451 210.932 432.947 210.619 433.631 210.619C433.794 210.619 433.922 210.64 434.017 210.683L434.002 211.215ZM436.785 215.604C437.192 215.604 437.532 215.491 437.806 215.263C438.082 215.032 438.232 214.734 438.255 214.369H438.816C438.8 214.691 438.699 214.986 438.514 215.253C438.328 215.517 438.081 215.723 437.771 215.873C437.465 216.023 437.137 216.098 436.785 216.098C436.092 216.098 435.542 215.857 435.135 215.375C434.731 214.893 434.529 214.245 434.529 213.432V213.256C434.529 212.735 434.62 212.274 434.803 211.874C434.985 211.474 435.245 211.164 435.584 210.946C435.926 210.728 436.325 210.619 436.78 210.619C437.36 210.619 437.837 210.792 438.211 211.137C438.589 211.482 438.79 211.936 438.816 212.499H438.255C438.229 212.086 438.079 211.752 437.806 211.498C437.535 211.244 437.194 211.117 436.78 211.117C436.253 211.117 435.843 211.308 435.55 211.688C435.26 212.069 435.115 212.603 435.115 213.29V213.461C435.115 214.135 435.26 214.66 435.55 215.038C435.843 215.416 436.255 215.604 436.785 215.604ZM440.569 211.61C440.761 211.295 441.007 211.05 441.307 210.878C441.606 210.705 441.933 210.619 442.288 210.619C442.854 210.619 443.276 210.779 443.553 211.098C443.829 211.417 443.969 211.895 443.973 212.533V216H443.392V212.528C443.388 212.056 443.287 211.705 443.089 211.474C442.894 211.243 442.579 211.127 442.146 211.127C441.785 211.127 441.465 211.241 441.185 211.469C440.908 211.693 440.703 211.998 440.569 212.382V216H439.988V208.5H440.569V211.61ZM449.954 216.098C449.505 216.098 449.098 215.987 448.733 215.766C448.372 215.544 448.09 215.237 447.889 214.843C447.687 214.446 447.586 214.001 447.586 213.51V213.3C447.586 212.792 447.684 212.335 447.879 211.928C448.077 211.521 448.353 211.202 448.704 210.971C449.056 210.736 449.437 210.619 449.847 210.619C450.488 210.619 450.996 210.839 451.37 211.278C451.748 211.715 451.937 212.312 451.937 213.07V213.397H448.167V213.51C448.167 214.109 448.338 214.608 448.68 215.009C449.025 215.406 449.458 215.604 449.979 215.604C450.291 215.604 450.566 215.548 450.804 215.434C451.045 215.32 451.263 215.137 451.458 214.887L451.824 215.165C451.395 215.787 450.771 216.098 449.954 216.098ZM449.847 211.117C449.407 211.117 449.036 211.278 448.733 211.601C448.434 211.923 448.252 212.356 448.187 212.899H451.355V212.836C451.339 212.328 451.194 211.915 450.921 211.596C450.647 211.277 450.289 211.117 449.847 211.117ZM454.734 212.86L456.16 210.717H456.854L455.062 213.31L456.932 216H456.243L454.739 213.764L453.235 216H452.547L454.412 213.31L452.62 210.717H453.309L454.734 212.86ZM458.846 209.364V210.717H459.939V211.195H458.846V214.716C458.846 215.009 458.898 215.227 459.002 215.37C459.109 215.513 459.287 215.585 459.534 215.585C459.632 215.585 459.79 215.569 460.008 215.536L460.032 216.015C459.879 216.07 459.671 216.098 459.407 216.098C459.007 216.098 458.715 215.982 458.533 215.751C458.351 215.517 458.26 215.173 458.26 214.721V211.195H457.288V210.717H458.26V209.364H458.846ZM463.592 211.215C463.468 211.192 463.336 211.181 463.196 211.181C462.832 211.181 462.522 211.283 462.269 211.488C462.018 211.69 461.839 211.985 461.731 212.372V216H461.15V210.717H461.722L461.731 211.557C462.041 210.932 462.537 210.619 463.221 210.619C463.383 210.619 463.512 210.64 463.606 210.683L463.592 211.215ZM467.659 216C467.601 215.834 467.563 215.588 467.547 215.263C467.342 215.53 467.08 215.736 466.761 215.883C466.445 216.026 466.11 216.098 465.755 216.098C465.247 216.098 464.835 215.956 464.52 215.673C464.207 215.39 464.051 215.032 464.051 214.599C464.051 214.084 464.264 213.677 464.69 213.378C465.12 213.078 465.717 212.929 466.482 212.929H467.542V212.328C467.542 211.951 467.425 211.654 467.19 211.439C466.959 211.221 466.621 211.112 466.175 211.112C465.768 211.112 465.431 211.216 465.164 211.425C464.897 211.633 464.764 211.884 464.764 212.177L464.178 212.172C464.178 211.752 464.373 211.389 464.764 211.083C465.154 210.774 465.634 210.619 466.204 210.619C466.793 210.619 467.257 210.767 467.596 211.063C467.938 211.356 468.113 211.767 468.123 212.294V214.794C468.123 215.305 468.177 215.688 468.284 215.941V216H467.659ZM465.823 215.58C466.214 215.58 466.562 215.486 466.868 215.297C467.177 215.108 467.402 214.856 467.542 214.54V213.378H466.497C465.914 213.384 465.459 213.492 465.13 213.7C464.801 213.905 464.637 214.188 464.637 214.55C464.637 214.846 464.746 215.092 464.964 215.287C465.185 215.482 465.472 215.58 465.823 215.58ZM471.639 215.604C472.046 215.604 472.386 215.491 472.659 215.263C472.936 215.032 473.086 214.734 473.108 214.369H473.67C473.654 214.691 473.553 214.986 473.367 215.253C473.182 215.517 472.934 215.723 472.625 215.873C472.319 216.023 471.99 216.098 471.639 216.098C470.945 216.098 470.395 215.857 469.988 215.375C469.585 214.893 469.383 214.245 469.383 213.432V213.256C469.383 212.735 469.474 212.274 469.656 211.874C469.839 211.474 470.099 211.164 470.438 210.946C470.779 210.728 471.178 210.619 471.634 210.619C472.213 210.619 472.69 210.792 473.064 211.137C473.442 211.482 473.644 211.936 473.67 212.499H473.108C473.082 212.086 472.933 211.752 472.659 211.498C472.389 211.244 472.047 211.117 471.634 211.117C471.106 211.117 470.696 211.308 470.403 211.688C470.114 212.069 469.969 212.603 469.969 213.29V213.461C469.969 214.135 470.114 214.66 470.403 215.038C470.696 215.416 471.108 215.604 471.639 215.604ZM475.75 209.364V210.717H476.844V211.195H475.75V214.716C475.75 215.009 475.802 215.227 475.906 215.37C476.014 215.513 476.191 215.585 476.438 215.585C476.536 215.585 476.694 215.569 476.912 215.536L476.937 216.015C476.784 216.07 476.575 216.098 476.312 216.098C475.911 216.098 475.62 215.982 475.438 215.751C475.255 215.517 475.164 215.173 475.164 214.721V211.195H474.192V210.717H475.164V209.364H475.75ZM480.101 216.098C479.651 216.098 479.244 215.987 478.88 215.766C478.519 215.544 478.237 215.237 478.035 214.843C477.833 214.446 477.732 214.001 477.732 213.51V213.3C477.732 212.792 477.83 212.335 478.025 211.928C478.224 211.521 478.499 211.202 478.851 210.971C479.202 210.736 479.583 210.619 479.993 210.619C480.634 210.619 481.142 210.839 481.517 211.278C481.894 211.715 482.083 212.312 482.083 213.07V213.397H478.313V213.51C478.313 214.109 478.484 214.608 478.826 215.009C479.171 215.406 479.604 215.604 480.125 215.604C480.438 215.604 480.713 215.548 480.95 215.434C481.191 215.32 481.409 215.137 481.604 214.887L481.971 215.165C481.541 215.787 480.918 216.098 480.101 216.098ZM479.993 211.117C479.554 211.117 479.183 211.278 478.88 211.601C478.58 211.923 478.398 212.356 478.333 212.899H481.502V212.836C481.486 212.328 481.341 211.915 481.067 211.596C480.794 211.277 480.436 211.117 479.993 211.117ZM482.986 213.31C482.986 212.489 483.169 211.837 483.533 211.352C483.901 210.863 484.399 210.619 485.027 210.619C485.74 210.619 486.284 210.901 486.658 211.464V208.5H487.239V216H486.692L486.668 215.297C486.294 215.831 485.743 216.098 485.018 216.098C484.409 216.098 483.917 215.854 483.543 215.365C483.172 214.874 482.986 214.211 482.986 213.378V213.31ZM483.577 213.412C483.577 214.086 483.712 214.618 483.982 215.009C484.253 215.396 484.633 215.59 485.125 215.59C485.844 215.59 486.355 215.272 486.658 214.638V212.157C486.355 211.47 485.848 211.127 485.135 211.127C484.643 211.127 484.261 211.321 483.987 211.708C483.714 212.092 483.577 212.66 483.577 213.412ZM323.182 228V223.195H322.308V222.717H323.182V222.077C323.182 221.537 323.318 221.122 323.592 220.832C323.868 220.542 324.253 220.397 324.744 220.397C324.965 220.397 325.172 220.425 325.364 220.48L325.32 220.969C325.158 220.93 324.98 220.91 324.788 220.91C324.466 220.91 324.215 221.011 324.036 221.213C323.857 221.411 323.768 221.695 323.768 222.062V222.717H325.027V223.195H323.768V228H323.182ZM328.514 223.215C328.39 223.192 328.258 223.181 328.118 223.181C327.754 223.181 327.444 223.283 327.19 223.488C326.94 223.69 326.761 223.985 326.653 224.372V228H326.072V222.717H326.644L326.653 223.557C326.963 222.932 327.459 222.619 328.143 222.619C328.305 222.619 328.434 222.64 328.528 222.683L328.514 223.215ZM329.021 225.28C329.021 224.772 329.119 224.315 329.314 223.908C329.513 223.501 329.791 223.186 330.149 222.961C330.511 222.733 330.919 222.619 331.375 222.619C332.078 222.619 332.648 222.867 333.084 223.361C333.52 223.853 333.738 224.506 333.738 225.319V225.441C333.738 225.952 333.639 226.413 333.44 226.823C333.245 227.23 332.968 227.544 332.61 227.766C332.252 227.987 331.844 228.098 331.385 228.098C330.685 228.098 330.115 227.852 329.676 227.36C329.24 226.866 329.021 226.211 329.021 225.397V225.28ZM329.607 225.441C329.607 226.073 329.77 226.592 330.096 226.999C330.424 227.403 330.854 227.604 331.385 227.604C331.912 227.604 332.339 227.403 332.664 226.999C332.993 226.592 333.157 226.057 333.157 225.393V225.28C333.157 224.877 333.082 224.507 332.933 224.172C332.783 223.837 332.573 223.578 332.303 223.396C332.033 223.21 331.723 223.117 331.375 223.117C330.854 223.117 330.429 223.322 330.101 223.732C329.772 224.139 329.607 224.673 329.607 225.334V225.441ZM335.481 222.717L335.501 223.576C335.696 223.257 335.94 223.018 336.233 222.858C336.526 222.699 336.852 222.619 337.21 222.619C338.043 222.619 338.572 222.961 338.797 223.645C338.986 223.316 339.238 223.063 339.554 222.888C339.869 222.709 340.218 222.619 340.599 222.619C341.731 222.619 342.309 223.238 342.332 224.475V228H341.746V224.519C341.743 224.047 341.64 223.697 341.438 223.469C341.24 223.241 340.914 223.127 340.462 223.127C340.042 223.133 339.687 223.27 339.397 223.537C339.108 223.801 338.947 224.123 338.914 224.504V228H338.328V224.475C338.325 224.022 338.217 223.685 338.006 223.464C337.798 223.239 337.475 223.127 337.039 223.127C336.671 223.127 336.355 223.233 336.092 223.444C335.828 223.653 335.633 223.964 335.506 224.377V228H334.92V222.717H335.481ZM347.156 221.364V222.717H348.25V223.195H347.156V226.716C347.156 227.009 347.208 227.227 347.312 227.37C347.42 227.513 347.597 227.585 347.845 227.585C347.942 227.585 348.1 227.569 348.318 227.536L348.343 228.015C348.19 228.07 347.981 228.098 347.718 228.098C347.317 228.098 347.026 227.982 346.844 227.751C346.661 227.517 346.57 227.173 346.57 226.721V223.195H345.599V222.717H346.57V221.364H347.156ZM350.042 223.61C350.234 223.295 350.48 223.05 350.779 222.878C351.079 222.705 351.406 222.619 351.761 222.619C352.327 222.619 352.749 222.779 353.025 223.098C353.302 223.417 353.442 223.895 353.445 224.533V228H352.864V224.528C352.861 224.056 352.76 223.705 352.562 223.474C352.366 223.243 352.052 223.127 351.619 223.127C351.258 223.127 350.937 223.241 350.657 223.469C350.381 223.693 350.175 223.998 350.042 224.382V228H349.461V220.5H350.042V223.61ZM356.995 228.098C356.546 228.098 356.139 227.987 355.774 227.766C355.413 227.544 355.132 227.237 354.93 226.843C354.728 226.446 354.627 226.001 354.627 225.51V225.3C354.627 224.792 354.725 224.335 354.92 223.928C355.118 223.521 355.394 223.202 355.745 222.971C356.097 222.736 356.478 222.619 356.888 222.619C357.529 222.619 358.037 222.839 358.411 223.278C358.789 223.715 358.978 224.312 358.978 225.07V225.397H355.208V225.51C355.208 226.109 355.379 226.608 355.721 227.009C356.066 227.406 356.499 227.604 357.02 227.604C357.332 227.604 357.607 227.548 357.845 227.434C358.086 227.32 358.304 227.137 358.499 226.887L358.865 227.165C358.436 227.787 357.812 228.098 356.995 228.098ZM356.888 223.117C356.448 223.117 356.077 223.278 355.774 223.601C355.475 223.923 355.293 224.356 355.228 224.899H358.396V224.836C358.38 224.328 358.235 223.915 357.962 223.596C357.688 223.277 357.33 223.117 356.888 223.117ZM364.5 227.604C364.907 227.604 365.247 227.491 365.521 227.263C365.797 227.032 365.947 226.734 365.97 226.369H366.531C366.515 226.691 366.414 226.986 366.229 227.253C366.043 227.517 365.796 227.723 365.486 227.873C365.18 228.023 364.852 228.098 364.5 228.098C363.807 228.098 363.257 227.857 362.85 227.375C362.446 226.893 362.244 226.245 362.244 225.432V225.256C362.244 224.735 362.335 224.274 362.518 223.874C362.7 223.474 362.96 223.164 363.299 222.946C363.641 222.728 364.039 222.619 364.495 222.619C365.075 222.619 365.551 222.792 365.926 223.137C366.303 223.482 366.505 223.936 366.531 224.499H365.97C365.944 224.086 365.794 223.752 365.521 223.498C365.25 223.244 364.909 223.117 364.495 223.117C363.968 223.117 363.558 223.308 363.265 223.688C362.975 224.069 362.83 224.603 362.83 225.29V225.461C362.83 226.135 362.975 226.66 363.265 227.038C363.558 227.416 363.969 227.604 364.5 227.604ZM371.038 228C370.979 227.834 370.942 227.588 370.926 227.263C370.721 227.53 370.459 227.736 370.14 227.883C369.824 228.026 369.489 228.098 369.134 228.098C368.626 228.098 368.214 227.956 367.898 227.673C367.586 227.39 367.43 227.032 367.43 226.599C367.43 226.084 367.643 225.677 368.069 225.378C368.499 225.078 369.096 224.929 369.861 224.929H370.921V224.328C370.921 223.951 370.804 223.654 370.569 223.439C370.338 223.221 370 223.112 369.554 223.112C369.147 223.112 368.81 223.216 368.543 223.425C368.276 223.633 368.143 223.884 368.143 224.177L367.557 224.172C367.557 223.752 367.752 223.389 368.143 223.083C368.533 222.774 369.013 222.619 369.583 222.619C370.172 222.619 370.636 222.767 370.975 223.063C371.316 223.356 371.492 223.767 371.502 224.294V226.794C371.502 227.305 371.556 227.688 371.663 227.941V228H371.038ZM369.202 227.58C369.593 227.58 369.941 227.486 370.247 227.297C370.556 227.108 370.781 226.856 370.921 226.54V225.378H369.876C369.293 225.384 368.838 225.492 368.509 225.7C368.18 225.905 368.016 226.188 368.016 226.55C368.016 226.846 368.125 227.092 368.343 227.287C368.564 227.482 368.851 227.58 369.202 227.58ZM376.229 226.657C376.229 226.368 376.111 226.135 375.877 225.959C375.646 225.783 375.296 225.646 374.827 225.549C374.358 225.448 373.994 225.334 373.733 225.207C373.476 225.077 373.284 224.919 373.157 224.733C373.034 224.548 372.972 224.323 372.972 224.06C372.972 223.643 373.146 223.299 373.494 223.029C373.842 222.756 374.288 222.619 374.832 222.619C375.421 222.619 375.893 222.766 376.248 223.059C376.606 223.348 376.785 223.728 376.785 224.196H376.199C376.199 223.887 376.069 223.63 375.809 223.425C375.551 223.22 375.226 223.117 374.832 223.117C374.448 223.117 374.139 223.203 373.904 223.376C373.673 223.545 373.558 223.767 373.558 224.04C373.558 224.304 373.654 224.509 373.846 224.655C374.041 224.799 374.394 224.93 374.905 225.051C375.42 225.171 375.804 225.3 376.058 225.437C376.315 225.573 376.505 225.738 376.629 225.93C376.753 226.122 376.814 226.354 376.814 226.628C376.814 227.074 376.634 227.43 376.272 227.697C375.914 227.964 375.446 228.098 374.866 228.098C374.251 228.098 373.751 227.95 373.367 227.653C372.986 227.354 372.796 226.976 372.796 226.521H373.382C373.405 226.862 373.548 227.129 373.812 227.321C374.078 227.51 374.43 227.604 374.866 227.604C375.273 227.604 375.602 227.515 375.853 227.336C376.103 227.157 376.229 226.931 376.229 226.657ZM381.297 226.657C381.297 226.368 381.18 226.135 380.945 225.959C380.714 225.783 380.364 225.646 379.896 225.549C379.427 225.448 379.062 225.334 378.802 225.207C378.545 225.077 378.353 224.919 378.226 224.733C378.102 224.548 378.04 224.323 378.04 224.06C378.04 223.643 378.214 223.299 378.562 223.029C378.911 222.756 379.357 222.619 379.9 222.619C380.49 222.619 380.962 222.766 381.316 223.059C381.674 223.348 381.854 223.728 381.854 224.196H381.268C381.268 223.887 381.137 223.63 380.877 223.425C380.62 223.22 380.294 223.117 379.9 223.117C379.516 223.117 379.207 223.203 378.973 223.376C378.742 223.545 378.626 223.767 378.626 224.04C378.626 224.304 378.722 224.509 378.914 224.655C379.109 224.799 379.463 224.93 379.974 225.051C380.488 225.171 380.872 225.3 381.126 225.437C381.383 225.573 381.574 225.738 381.697 225.93C381.821 226.122 381.883 226.354 381.883 226.628C381.883 227.074 381.702 227.43 381.341 227.697C380.983 227.964 380.514 228.098 379.935 228.098C379.319 228.098 378.82 227.95 378.436 227.653C378.055 227.354 377.864 226.976 377.864 226.521H378.45C378.473 226.862 378.616 227.129 378.88 227.321C379.147 227.51 379.498 227.604 379.935 227.604C380.341 227.604 380.67 227.515 380.921 227.336C381.172 227.157 381.297 226.931 381.297 226.657ZM386.536 228C386.478 227.834 386.44 227.588 386.424 227.263C386.219 227.53 385.957 227.736 385.638 227.883C385.322 228.026 384.987 228.098 384.632 228.098C384.124 228.098 383.712 227.956 383.396 227.673C383.084 227.39 382.928 227.032 382.928 226.599C382.928 226.084 383.141 225.677 383.567 225.378C383.997 225.078 384.594 224.929 385.359 224.929H386.419V224.328C386.419 223.951 386.302 223.654 386.067 223.439C385.836 223.221 385.498 223.112 385.052 223.112C384.645 223.112 384.308 223.216 384.041 223.425C383.774 223.633 383.641 223.884 383.641 224.177L383.055 224.172C383.055 223.752 383.25 223.389 383.641 223.083C384.031 222.774 384.511 222.619 385.081 222.619C385.67 222.619 386.134 222.767 386.473 223.063C386.814 223.356 386.99 223.767 387 224.294V226.794C387 227.305 387.054 227.688 387.161 227.941V228H386.536ZM384.7 227.58C385.091 227.58 385.439 227.486 385.745 227.297C386.054 227.108 386.279 226.856 386.419 226.54V225.378H385.374C384.791 225.384 384.336 225.492 384.007 225.7C383.678 225.905 383.514 226.188 383.514 226.55C383.514 226.846 383.623 227.092 383.841 227.287C384.062 227.482 384.349 227.58 384.7 227.58ZM390.13 227.194L391.736 222.717H392.337L390.364 228H389.891L387.908 222.717H388.509L390.13 227.194ZM396.556 228C396.497 227.834 396.46 227.588 396.443 227.263C396.238 227.53 395.976 227.736 395.657 227.883C395.341 228.026 395.006 228.098 394.651 228.098C394.144 228.098 393.732 227.956 393.416 227.673C393.104 227.39 392.947 227.032 392.947 226.599C392.947 226.084 393.16 225.677 393.587 225.378C394.017 225.078 394.614 224.929 395.379 224.929H396.438V224.328C396.438 223.951 396.321 223.654 396.087 223.439C395.856 223.221 395.517 223.112 395.071 223.112C394.664 223.112 394.327 223.216 394.061 223.425C393.794 223.633 393.66 223.884 393.66 224.177L393.074 224.172C393.074 223.752 393.27 223.389 393.66 223.083C394.051 222.774 394.531 222.619 395.101 222.619C395.69 222.619 396.154 222.767 396.492 223.063C396.834 223.356 397.01 223.767 397.02 224.294V226.794C397.02 227.305 397.073 227.688 397.181 227.941V228H396.556ZM394.72 227.58C395.11 227.58 395.459 227.486 395.765 227.297C396.074 227.108 396.299 226.856 396.438 226.54V225.378H395.394C394.811 225.384 394.355 225.492 394.026 225.7C393.698 225.905 393.533 226.188 393.533 226.55C393.533 226.846 393.642 227.092 393.86 227.287C394.082 227.482 394.368 227.58 394.72 227.58ZM403.455 223.215C403.331 223.192 403.2 223.181 403.06 223.181C402.695 223.181 402.386 223.283 402.132 223.488C401.881 223.69 401.702 223.985 401.595 224.372V228H401.014V222.717H401.585L401.595 223.557C401.904 222.932 402.4 222.619 403.084 222.619C403.247 222.619 403.375 222.64 403.47 222.683L403.455 223.215ZM403.963 225.28C403.963 224.772 404.061 224.315 404.256 223.908C404.454 223.501 404.733 223.186 405.091 222.961C405.452 222.733 405.861 222.619 406.316 222.619C407.02 222.619 407.589 222.867 408.025 223.361C408.462 223.853 408.68 224.506 408.68 225.319V225.441C408.68 225.952 408.58 226.413 408.382 226.823C408.187 227.23 407.91 227.544 407.552 227.766C407.194 227.987 406.785 228.098 406.326 228.098C405.626 228.098 405.057 227.852 404.617 227.36C404.181 226.866 403.963 226.211 403.963 225.397V225.28ZM404.549 225.441C404.549 226.073 404.712 226.592 405.037 226.999C405.366 227.403 405.796 227.604 406.326 227.604C406.854 227.604 407.28 227.403 407.605 226.999C407.934 226.592 408.099 226.057 408.099 225.393V225.28C408.099 224.877 408.024 224.507 407.874 224.172C407.724 223.837 407.514 223.578 407.244 223.396C406.974 223.21 406.665 223.117 406.316 223.117C405.796 223.117 405.371 223.322 405.042 223.732C404.713 224.139 404.549 224.673 404.549 225.334V225.441ZM409.568 225.28C409.568 224.772 409.666 224.315 409.861 223.908C410.06 223.501 410.338 223.186 410.696 222.961C411.058 222.733 411.466 222.619 411.922 222.619C412.625 222.619 413.195 222.867 413.631 223.361C414.067 223.853 414.285 224.506 414.285 225.319V225.441C414.285 225.952 414.186 226.413 413.987 226.823C413.792 227.23 413.515 227.544 413.157 227.766C412.799 227.987 412.391 228.098 411.932 228.098C411.232 228.098 410.662 227.852 410.223 227.36C409.786 226.866 409.568 226.211 409.568 225.397V225.28ZM410.154 225.441C410.154 226.073 410.317 226.592 410.643 226.999C410.971 227.403 411.401 227.604 411.932 227.604C412.459 227.604 412.885 227.403 413.211 226.999C413.54 226.592 413.704 226.057 413.704 225.393V225.28C413.704 224.877 413.629 224.507 413.479 224.172C413.33 223.837 413.12 223.578 412.85 223.396C412.579 223.21 412.27 223.117 411.922 223.117C411.401 223.117 410.976 223.322 410.647 223.732C410.319 224.139 410.154 224.673 410.154 225.334V225.441ZM416.404 221.364V222.717H417.498V223.195H416.404V226.716C416.404 227.009 416.456 227.227 416.561 227.37C416.668 227.513 416.845 227.585 417.093 227.585C417.19 227.585 417.348 227.569 417.566 227.536L417.591 228.015C417.438 228.07 417.229 228.098 416.966 228.098C416.565 228.098 416.274 227.982 416.092 227.751C415.91 227.517 415.818 227.173 415.818 226.721V223.195H414.847V222.717H415.818V221.364H416.404ZM418.655 227.648C418.655 227.535 418.691 227.438 418.763 227.36C418.838 227.279 418.94 227.238 419.07 227.238C419.201 227.238 419.303 227.279 419.378 227.36C419.453 227.438 419.49 227.535 419.49 227.648C419.49 227.762 419.453 227.857 419.378 227.932C419.303 228.003 419.201 228.039 419.07 228.039C418.94 228.039 418.838 228.003 418.763 227.932C418.691 227.857 418.655 227.762 418.655 227.648Z" fill="black"/>
</svg>
