<svg width="248" height="261" viewBox="0 0 248 261" fill="none" xmlns="http://www.w3.org/2000/svg">
<rect width="248" height="261" fill="#E5E5E5"/>
<path d="M214.199 152.141C241.117 159.405 257.443 188.289 240.143 210.154C234.636 217.114 228.394 223.549 221.493 229.343C201.419 246.195 176.665 256.872 150.361 260.024C124.056 263.175 97.3832 258.659 73.7142 247.047C50.0451 235.435 30.4432 217.249 17.3874 194.787C4.3316 172.326 -1.59183 146.599 0.366209 120.859C2.32424 95.1187 12.0758 70.5222 28.3877 50.1797C44.6996 29.8371 66.8393 14.6621 92.007 6.57361C100.994 3.68534 110.223 1.74699 119.538 0.762219C147.264 -2.16893 163.54 26.6729 155.91 53.4893L147.87 81.749C140.241 108.565 156.018 136.441 182.935 143.705L214.199 152.141Z" fill="#C0A7C6"/>
</svg>
