<svg width="102" height="88" viewBox="0 0 102 88" fill="none" xmlns="http://www.w3.org/2000/svg">
<ellipse cx="51" cy="44" rx="45" ry="42" fill="#FFDFDF"/>
<path d="M26.5967 34.7109H24.918V49.4062H26.5967V50.7422H23.2832V33.375H26.5967V34.7109ZM29.6377 39.6416C30.3584 38.7568 31.2959 38.3145 32.4502 38.3145C34.46 38.3145 35.4736 39.4482 35.4912 41.7158V48H33.8652V41.707C33.8594 41.0215 33.7012 40.5146 33.3906 40.1865C33.0859 39.8584 32.6084 39.6943 31.958 39.6943C31.4307 39.6943 30.9678 39.835 30.5693 40.1162C30.1709 40.3975 29.8604 40.7666 29.6377 41.2236V48H28.0117V34.5H29.6377V39.6416ZM37.4951 43.1572C37.4951 42.2256 37.6768 41.3877 38.04 40.6436C38.4092 39.8994 38.9189 39.3252 39.5693 38.9209C40.2256 38.5166 40.9727 38.3145 41.8105 38.3145C43.1055 38.3145 44.1514 38.7627 44.9482 39.6592C45.751 40.5557 46.1523 41.748 46.1523 43.2363V43.3506C46.1523 44.2764 45.9736 45.1084 45.6162 45.8467C45.2646 46.5791 44.7578 47.1504 44.0957 47.5605C43.4395 47.9707 42.6836 48.1758 41.8281 48.1758C40.5391 48.1758 39.4932 47.7275 38.6904 46.8311C37.8936 45.9346 37.4951 44.748 37.4951 43.2715V43.1572ZM39.1299 43.3506C39.1299 44.4053 39.373 45.252 39.8594 45.8906C40.3516 46.5293 41.0078 46.8486 41.8281 46.8486C42.6543 46.8486 43.3105 46.5264 43.7969 45.8818C44.2832 45.2314 44.5264 44.3232 44.5264 43.1572C44.5264 42.1143 44.2773 41.2705 43.7793 40.626C43.2871 39.9756 42.6309 39.6504 41.8105 39.6504C41.0078 39.6504 40.3604 39.9697 39.8682 40.6084C39.376 41.2471 39.1299 42.1611 39.1299 43.3506ZM49.7207 38.4902L49.7646 39.5449C50.4619 38.7246 51.4023 38.3145 52.5859 38.3145C53.916 38.3145 54.8213 38.8242 55.3018 39.8438C55.6182 39.3867 56.0283 39.0176 56.5322 38.7363C57.042 38.4551 57.6426 38.3145 58.334 38.3145C60.4199 38.3145 61.4805 39.4189 61.5156 41.6279V48H59.8896V41.7246C59.8896 41.0449 59.7344 40.5381 59.4238 40.2041C59.1133 39.8643 58.5918 39.6943 57.8594 39.6943C57.2559 39.6943 56.7549 39.876 56.3564 40.2393C55.958 40.5967 55.7266 41.0801 55.6621 41.6895V48H54.0273V41.7686C54.0273 40.3857 53.3506 39.6943 51.9971 39.6943C50.9307 39.6943 50.2012 40.1484 49.8086 41.0566V48H48.1826V38.4902H49.7207ZM67.9229 48.1758C66.6338 48.1758 65.585 47.7539 64.7764 46.9102C63.9678 46.0605 63.5635 44.9268 63.5635 43.5088V43.21C63.5635 42.2666 63.7422 41.4258 64.0996 40.6875C64.4629 39.9434 64.9668 39.3633 65.6113 38.9473C66.2617 38.5254 66.9648 38.3145 67.7207 38.3145C68.957 38.3145 69.918 38.7217 70.6035 39.5361C71.2891 40.3506 71.6318 41.5166 71.6318 43.0342V43.7109H65.1895C65.2129 44.6484 65.4854 45.4072 66.0068 45.9873C66.5342 46.5615 67.2021 46.8486 68.0107 46.8486C68.585 46.8486 69.0713 46.7314 69.4697 46.4971C69.8682 46.2627 70.2168 45.9521 70.5156 45.5654L71.5088 46.3389C70.7119 47.5635 69.5166 48.1758 67.9229 48.1758ZM67.7207 39.6504C67.0645 39.6504 66.5137 39.8906 66.0684 40.3711C65.623 40.8457 65.3477 41.5137 65.2422 42.375H70.0059V42.252C69.959 41.4258 69.7363 40.7871 69.3379 40.3359C68.9395 39.8789 68.4004 39.6504 67.7207 39.6504ZM72.3701 33.375H75.6924V50.7422H72.3701V49.4062H74.0664V34.7109H72.3701V33.375Z" fill="black"/>
</svg>
