<svg width="535" height="367" viewBox="0 0 535 367" fill="none" xmlns="http://www.w3.org/2000/svg">
<rect width="535" height="367" fill="#FFEFD1"/>
<circle cx="82.5" cy="261.5" r="9.5" fill="black" fill-opacity="0.74"/>
<path d="M217.732 98H60.4828C51.29 98 44.2599 106.194 45.657 115.28L71.7973 285.28C72.9226 292.598 79.2191 298 86.6231 298H193.711C201.184 298 207.518 292.499 208.563 285.099L232.584 115.099C233.86 106.069 226.851 98 217.732 98Z" fill="#B4CEA8" stroke="black"/>
<path d="M145.36 36L95 275.403L113.163 287L166 40.9703L145.36 36Z" fill="#FEF9D0" stroke="black"/>
<path d="M41.8996 103.757L47.5262 98.7575C48.0753 98.2695 48.7844 98 49.519 98H227.399C228.177 98 228.924 98.302 229.484 98.8422L234.66 103.842C236.601 105.717 235.274 109 232.576 109H43.8923C41.1336 109 39.8374 105.59 41.8996 103.757Z" fill="#FFDBDB" stroke="black"/>
<ellipse cx="124" cy="239.5" rx="9" ry="9.5" fill="black" fill-opacity="0.74"/>
<circle cx="82.5" cy="233.5" r="9.5" fill="black" fill-opacity="0.74"/>
<ellipse cx="115" cy="266.5" rx="9" ry="9.5" fill="black" fill-opacity="0.74"/>
<ellipse cx="88" cy="255.5" rx="9" ry="9.5" fill="black" fill-opacity="0.74"/>
<circle cx="174.5" cy="266.5" r="9.5" fill="black" fill-opacity="0.74"/>
<ellipse cx="156" cy="266.5" rx="9" ry="9.5" fill="black" fill-opacity="0.74"/>
<ellipse cx="166" cy="248.5" rx="9" ry="9.5" fill="black" fill-opacity="0.74"/>
<ellipse cx="130" cy="279.5" rx="9" ry="9.5" fill="black" fill-opacity="0.74"/>
<ellipse cx="138" cy="257.5" rx="9" ry="9.5" fill="black" fill-opacity="0.74"/>
<ellipse cx="165" cy="286.5" rx="9" ry="9.5" fill="black" fill-opacity="0.74"/>
<ellipse cx="193" cy="275.5" rx="9" ry="9.5" fill="black" fill-opacity="0.74"/>
<ellipse cx="95" cy="279.5" rx="9" ry="9.5" fill="black" fill-opacity="0.74"/>
<ellipse cx="194" cy="245.5" rx="9" ry="9.5" fill="black" fill-opacity="0.74"/>
<ellipse cx="147" cy="242.5" rx="9" ry="9.5" fill="black" fill-opacity="0.74"/>
<path d="M502.305 193C519.81 193 534.463 207.749 527.406 223.768C522.607 234.66 515.265 244.882 505.626 253.902C487.28 271.07 461.75 282.822 433.386 287.155C405.023 291.488 375.58 288.134 350.075 277.664C324.571 267.195 304.582 250.257 293.515 229.738C282.448 209.218 280.988 186.386 289.382 165.133C297.777 143.879 315.508 125.518 339.554 113.179C363.599 100.84 392.472 95.2853 421.252 97.4623C437.648 98.7025 453.436 102.408 467.768 108.271C483.733 114.803 483.963 135.428 470.283 145.935V145.935C450.397 161.207 461.197 193 486.27 193H502.305Z" fill="#E9CCB1"/>
<path d="M325.68 149.32L325.738 150.727C326.668 149.633 327.922 149.086 329.5 149.086C331.273 149.086 332.48 149.766 333.121 151.125C333.543 150.516 334.09 150.023 334.762 149.648C335.441 149.273 336.242 149.086 337.164 149.086C339.945 149.086 341.359 150.559 341.406 153.504V162H339.238V153.633C339.238 152.727 339.031 152.051 338.617 151.605C338.203 151.152 337.508 150.926 336.531 150.926C335.727 150.926 335.059 151.168 334.527 151.652C333.996 152.129 333.688 152.773 333.602 153.586V162H331.422V153.691C331.422 151.848 330.52 150.926 328.715 150.926C327.293 150.926 326.32 151.531 325.797 152.742V162H323.629V149.32H325.68ZM352.516 162C352.391 161.75 352.289 161.305 352.211 160.664C351.203 161.711 350 162.234 348.602 162.234C347.352 162.234 346.324 161.883 345.52 161.18C344.723 160.469 344.324 159.57 344.324 158.484C344.324 157.164 344.824 156.141 345.824 155.414C346.832 154.68 348.246 154.312 350.066 154.312H352.176V153.316C352.176 152.559 351.949 151.957 351.496 151.512C351.043 151.059 350.375 150.832 349.492 150.832C348.719 150.832 348.07 151.027 347.547 151.418C347.023 151.809 346.762 152.281 346.762 152.836H344.582C344.582 152.203 344.805 151.594 345.25 151.008C345.703 150.414 346.312 149.945 347.078 149.602C347.852 149.258 348.699 149.086 349.621 149.086C351.082 149.086 352.227 149.453 353.055 150.188C353.883 150.914 354.312 151.918 354.344 153.199V159.035C354.344 160.199 354.492 161.125 354.789 161.812V162H352.516ZM348.918 160.348C349.598 160.348 350.242 160.172 350.852 159.82C351.461 159.469 351.902 159.012 352.176 158.449V155.848H350.477C347.82 155.848 346.492 156.625 346.492 158.18C346.492 158.859 346.719 159.391 347.172 159.773C347.625 160.156 348.207 160.348 348.918 160.348ZM360.684 146.25V149.32H363.051V150.996H360.684V158.859C360.684 159.367 360.789 159.75 361 160.008C361.211 160.258 361.57 160.383 362.078 160.383C362.328 160.383 362.672 160.336 363.109 160.242V162C362.539 162.156 361.984 162.234 361.445 162.234C360.477 162.234 359.746 161.941 359.254 161.355C358.762 160.77 358.516 159.938 358.516 158.859V150.996H356.207V149.32H358.516V146.25H360.684ZM370.68 160.465C371.453 160.465 372.129 160.23 372.707 159.762C373.285 159.293 373.605 158.707 373.668 158.004H375.719C375.68 158.73 375.43 159.422 374.969 160.078C374.508 160.734 373.891 161.258 373.117 161.648C372.352 162.039 371.539 162.234 370.68 162.234C368.953 162.234 367.578 161.66 366.555 160.512C365.539 159.355 365.031 157.777 365.031 155.777V155.414C365.031 154.18 365.258 153.082 365.711 152.121C366.164 151.16 366.812 150.414 367.656 149.883C368.508 149.352 369.512 149.086 370.668 149.086C372.09 149.086 373.27 149.512 374.207 150.363C375.152 151.215 375.656 152.32 375.719 153.68H373.668C373.605 152.859 373.293 152.188 372.73 151.664C372.176 151.133 371.488 150.867 370.668 150.867C369.566 150.867 368.711 151.266 368.102 152.062C367.5 152.852 367.199 153.996 367.199 155.496V155.906C367.199 157.367 367.5 158.492 368.102 159.281C368.703 160.07 369.562 160.465 370.68 160.465ZM380.324 150.855C381.285 149.676 382.535 149.086 384.074 149.086C386.754 149.086 388.105 150.598 388.129 153.621V162H385.961V153.609C385.953 152.695 385.742 152.02 385.328 151.582C384.922 151.145 384.285 150.926 383.418 150.926C382.715 150.926 382.098 151.113 381.566 151.488C381.035 151.863 380.621 152.355 380.324 152.965V162H378.156V144H380.324V150.855ZM399.203 162C399.078 161.75 398.977 161.305 398.898 160.664C397.891 161.711 396.688 162.234 395.289 162.234C394.039 162.234 393.012 161.883 392.207 161.18C391.41 160.469 391.012 159.57 391.012 158.484C391.012 157.164 391.512 156.141 392.512 155.414C393.52 154.68 394.934 154.312 396.754 154.312H398.863V153.316C398.863 152.559 398.637 151.957 398.184 151.512C397.73 151.059 397.062 150.832 396.18 150.832C395.406 150.832 394.758 151.027 394.234 151.418C393.711 151.809 393.449 152.281 393.449 152.836H391.27C391.27 152.203 391.492 151.594 391.938 151.008C392.391 150.414 393 149.945 393.766 149.602C394.539 149.258 395.387 149.086 396.309 149.086C397.77 149.086 398.914 149.453 399.742 150.188C400.57 150.914 401 151.918 401.031 153.199V159.035C401.031 160.199 401.18 161.125 401.477 161.812V162H399.203ZM395.605 160.348C396.285 160.348 396.93 160.172 397.539 159.82C398.148 159.469 398.59 159.012 398.863 158.449V155.848H397.164C394.508 155.848 393.18 156.625 393.18 158.18C393.18 158.859 393.406 159.391 393.859 159.773C394.312 160.156 394.895 160.348 395.605 160.348ZM325.575 167.664H324.27V179.094H325.575V180.133H322.998V166.625H325.575V167.664ZM327.865 170.604L327.899 171.424C328.442 170.786 329.173 170.467 330.094 170.467C331.128 170.467 331.832 170.863 332.206 171.656C332.452 171.301 332.771 171.014 333.163 170.795C333.56 170.576 334.027 170.467 334.564 170.467C336.187 170.467 337.012 171.326 337.039 173.044V178H335.774V173.119C335.774 172.59 335.654 172.196 335.412 171.937C335.171 171.672 334.765 171.54 334.195 171.54C333.726 171.54 333.336 171.681 333.026 171.964C332.716 172.242 332.536 172.618 332.486 173.092V178H331.215V173.153C331.215 172.078 330.688 171.54 329.636 171.54C328.806 171.54 328.239 171.893 327.934 172.6V178H326.669V170.604H327.865ZM343.52 178C343.447 177.854 343.387 177.594 343.342 177.221C342.754 177.831 342.052 178.137 341.236 178.137C340.507 178.137 339.908 177.932 339.438 177.521C338.974 177.107 338.741 176.583 338.741 175.949C338.741 175.179 339.033 174.582 339.616 174.158C340.204 173.73 341.029 173.516 342.091 173.516H343.321V172.935C343.321 172.493 343.189 172.142 342.925 171.882C342.66 171.618 342.271 171.485 341.756 171.485C341.305 171.485 340.926 171.599 340.621 171.827C340.316 172.055 340.163 172.331 340.163 172.654H338.892C338.892 172.285 339.021 171.93 339.281 171.588C339.546 171.242 339.901 170.968 340.348 170.768C340.799 170.567 341.293 170.467 341.831 170.467C342.683 170.467 343.351 170.681 343.834 171.109C344.317 171.533 344.568 172.119 344.586 172.866V176.271C344.586 176.95 344.673 177.49 344.846 177.891V178H343.52ZM341.421 177.036C341.817 177.036 342.193 176.934 342.549 176.729C342.904 176.523 343.162 176.257 343.321 175.929V174.411H342.33C340.781 174.411 340.006 174.865 340.006 175.771C340.006 176.168 340.138 176.478 340.402 176.701C340.667 176.924 341.006 177.036 341.421 177.036ZM347.833 171.499C348.394 170.811 349.123 170.467 350.021 170.467C351.584 170.467 352.372 171.349 352.386 173.112V178H351.121V173.105C351.117 172.572 350.993 172.178 350.752 171.923C350.515 171.668 350.144 171.54 349.638 171.54C349.228 171.54 348.868 171.649 348.558 171.868C348.248 172.087 348.006 172.374 347.833 172.729V178H346.568V167.5H347.833V171.499ZM356.911 174.288H353.575V173.256H356.911V174.288ZM361.115 177.104C361.566 177.104 361.961 176.968 362.298 176.694C362.635 176.421 362.822 176.079 362.858 175.669H364.055C364.032 176.093 363.886 176.496 363.617 176.879C363.348 177.262 362.988 177.567 362.537 177.795C362.09 178.023 361.617 178.137 361.115 178.137C360.108 178.137 359.306 177.802 358.709 177.132C358.117 176.457 357.82 175.537 357.82 174.37V174.158C357.82 173.438 357.952 172.798 358.217 172.237C358.481 171.677 358.859 171.242 359.352 170.932C359.848 170.622 360.434 170.467 361.108 170.467C361.938 170.467 362.626 170.715 363.173 171.212C363.724 171.709 364.018 172.354 364.055 173.146H362.858C362.822 172.668 362.64 172.276 362.312 171.971C361.988 171.661 361.587 171.506 361.108 171.506C360.466 171.506 359.967 171.738 359.611 172.203C359.26 172.663 359.085 173.331 359.085 174.206V174.445C359.085 175.298 359.26 175.954 359.611 176.414C359.962 176.874 360.464 177.104 361.115 177.104ZM366.741 171.499C367.302 170.811 368.031 170.467 368.929 170.467C370.492 170.467 371.28 171.349 371.294 173.112V178H370.029V173.105C370.025 172.572 369.902 172.178 369.66 171.923C369.423 171.668 369.052 171.54 368.546 171.54C368.136 171.54 367.776 171.649 367.466 171.868C367.156 172.087 366.914 172.374 366.741 172.729V178H365.477V167.5H366.741V171.499ZM377.754 177.269C377.262 177.847 376.539 178.137 375.587 178.137C374.799 178.137 374.197 177.909 373.782 177.453C373.372 176.993 373.165 176.314 373.16 175.416V170.604H374.425V175.382C374.425 176.503 374.881 177.063 375.792 177.063C376.758 177.063 377.401 176.703 377.72 175.983V170.604H378.984V178H377.781L377.754 177.269ZM382.177 171.499C382.737 170.811 383.466 170.467 384.364 170.467C385.927 170.467 386.716 171.349 386.729 173.112V178H385.465V173.105C385.46 172.572 385.337 172.178 385.096 171.923C384.859 171.668 384.487 171.54 383.981 171.54C383.571 171.54 383.211 171.649 382.901 171.868C382.591 172.087 382.35 172.374 382.177 172.729V178H380.912V167.5H382.177V171.499ZM387.728 166.625H390.312V180.133H387.728V179.094H389.047V167.664H387.728V166.625ZM404.38 170.604L404.441 171.458C404.97 170.797 405.679 170.467 406.567 170.467C407.351 170.467 407.935 170.697 408.317 171.157C408.7 171.618 408.896 172.306 408.905 173.222V178H406.93V173.27C406.93 172.85 406.839 172.547 406.656 172.36C406.474 172.169 406.171 172.073 405.747 172.073C405.191 172.073 404.774 172.31 404.496 172.784V178H402.521V170.604H404.38ZM410.102 174.233C410.102 173.5 410.243 172.846 410.525 172.271C410.808 171.697 411.214 171.253 411.742 170.938C412.275 170.624 412.893 170.467 413.595 170.467C414.593 170.467 415.406 170.772 416.035 171.383C416.669 171.993 417.022 172.823 417.095 173.871L417.108 174.377C417.108 175.512 416.792 176.423 416.158 177.111C415.525 177.795 414.675 178.137 413.608 178.137C412.542 178.137 411.69 177.795 411.052 177.111C410.418 176.428 410.102 175.498 410.102 174.322V174.233ZM412.077 174.377C412.077 175.079 412.209 175.617 412.474 175.99C412.738 176.359 413.116 176.544 413.608 176.544C414.087 176.544 414.461 176.362 414.729 175.997C414.998 175.628 415.133 175.04 415.133 174.233C415.133 173.545 414.998 173.012 414.729 172.634C414.461 172.256 414.082 172.066 413.595 172.066C413.112 172.066 412.738 172.256 412.474 172.634C412.209 173.007 412.077 173.589 412.077 174.377ZM422.755 177.248C422.267 177.84 421.593 178.137 420.731 178.137C419.938 178.137 419.332 177.909 418.913 177.453C418.498 176.997 418.286 176.33 418.277 175.45V170.604H420.253V175.382C420.253 176.152 420.604 176.537 421.306 176.537C421.976 176.537 422.436 176.305 422.687 175.84V170.604H424.669V178H422.81L422.755 177.248ZM427.978 170.604L428.039 171.458C428.568 170.797 429.276 170.467 430.165 170.467C430.949 170.467 431.532 170.697 431.915 171.157C432.298 171.618 432.494 172.306 432.503 173.222V178H430.527V173.27C430.527 172.85 430.436 172.547 430.254 172.36C430.072 172.169 429.769 172.073 429.345 172.073C428.789 172.073 428.372 172.31 428.094 172.784V178H426.118V170.604H427.978ZM327.695 202.232H324.115V206H322.99V197.469H328.275V198.395H324.115V201.312H327.695V202.232ZM330.631 206H329.547V199.66H330.631V206ZM329.459 197.979C329.459 197.803 329.512 197.654 329.617 197.533C329.727 197.412 329.887 197.352 330.098 197.352C330.309 197.352 330.469 197.412 330.578 197.533C330.688 197.654 330.742 197.803 330.742 197.979C330.742 198.154 330.688 198.301 330.578 198.418C330.469 198.535 330.309 198.594 330.098 198.594C329.887 198.594 329.727 198.535 329.617 198.418C329.512 198.301 329.459 198.154 329.459 197.979ZM333.396 199.66L333.432 200.457C333.916 199.848 334.549 199.543 335.33 199.543C336.67 199.543 337.346 200.299 337.357 201.811V206H336.273V201.805C336.27 201.348 336.164 201.01 335.957 200.791C335.754 200.572 335.436 200.463 335.002 200.463C334.65 200.463 334.342 200.557 334.076 200.744C333.811 200.932 333.604 201.178 333.455 201.482V206H332.371V199.66H333.396ZM341.623 206.117C340.764 206.117 340.064 205.836 339.525 205.273C338.986 204.707 338.717 203.951 338.717 203.006V202.807C338.717 202.178 338.836 201.617 339.074 201.125C339.316 200.629 339.652 200.242 340.082 199.965C340.516 199.684 340.984 199.543 341.488 199.543C342.312 199.543 342.953 199.814 343.41 200.357C343.867 200.9 344.096 201.678 344.096 202.689V203.141H339.801C339.816 203.766 339.998 204.271 340.346 204.658C340.697 205.041 341.143 205.232 341.682 205.232C342.064 205.232 342.389 205.154 342.654 204.998C342.92 204.842 343.152 204.635 343.352 204.377L344.014 204.893C343.482 205.709 342.686 206.117 341.623 206.117ZM341.488 200.434C341.051 200.434 340.684 200.594 340.387 200.914C340.09 201.23 339.906 201.676 339.836 202.25H343.012V202.168C342.98 201.617 342.832 201.191 342.566 200.891C342.301 200.586 341.941 200.434 341.488 200.434ZM346.533 206H345.449V197H346.533V206ZM350.348 204.412L351.824 199.66H352.984L350.436 206.979C350.041 208.033 349.414 208.561 348.555 208.561L348.35 208.543L347.945 208.467V207.588L348.238 207.611C348.605 207.611 348.891 207.537 349.094 207.389C349.301 207.24 349.471 206.969 349.604 206.574L349.844 205.93L347.582 199.66H348.766L350.348 204.412ZM356.676 202.777C356.676 201.789 356.904 201.004 357.361 200.422C357.818 199.836 358.424 199.543 359.178 199.543C359.951 199.543 360.555 199.816 360.988 200.363L361.041 199.66H362.031V205.848C362.031 206.668 361.787 207.314 361.299 207.787C360.814 208.26 360.162 208.496 359.342 208.496C358.885 208.496 358.438 208.398 358 208.203C357.562 208.008 357.229 207.74 356.998 207.4L357.561 206.75C358.025 207.324 358.594 207.611 359.266 207.611C359.793 207.611 360.203 207.463 360.496 207.166C360.793 206.869 360.941 206.451 360.941 205.912V205.367C360.508 205.867 359.916 206.117 359.166 206.117C358.424 206.117 357.822 205.818 357.361 205.221C356.904 204.623 356.676 203.809 356.676 202.777ZM357.766 202.9C357.766 203.615 357.912 204.178 358.205 204.588C358.498 204.994 358.908 205.197 359.436 205.197C360.119 205.197 360.621 204.887 360.941 204.266V201.371C360.609 200.766 360.111 200.463 359.447 200.463C358.92 200.463 358.508 200.668 358.211 201.078C357.914 201.488 357.766 202.096 357.766 202.9ZM366.736 200.633C366.572 200.605 366.395 200.592 366.203 200.592C365.492 200.592 365.01 200.895 364.756 201.5V206H363.672V199.66H364.727L364.744 200.393C365.1 199.826 365.604 199.543 366.256 199.543C366.467 199.543 366.627 199.57 366.736 199.625V200.633ZM367.334 202.771C367.334 202.15 367.455 201.592 367.697 201.096C367.943 200.6 368.283 200.217 368.717 199.947C369.154 199.678 369.652 199.543 370.211 199.543C371.074 199.543 371.771 199.842 372.303 200.439C372.838 201.037 373.105 201.832 373.105 202.824V202.9C373.105 203.518 372.986 204.072 372.748 204.564C372.514 205.053 372.176 205.434 371.734 205.707C371.297 205.98 370.793 206.117 370.223 206.117C369.363 206.117 368.666 205.818 368.131 205.221C367.6 204.623 367.334 203.832 367.334 202.848V202.771ZM368.424 202.9C368.424 203.604 368.586 204.168 368.91 204.594C369.238 205.02 369.676 205.232 370.223 205.232C370.773 205.232 371.211 205.018 371.535 204.588C371.859 204.154 372.021 203.549 372.021 202.771C372.021 202.076 371.855 201.514 371.523 201.084C371.195 200.65 370.758 200.434 370.211 200.434C369.676 200.434 369.244 200.646 368.916 201.072C368.588 201.498 368.424 202.107 368.424 202.9ZM378.379 205.373C377.957 205.869 377.338 206.117 376.521 206.117C375.846 206.117 375.33 205.922 374.975 205.531C374.623 205.137 374.445 204.555 374.441 203.785V199.66H375.525V203.756C375.525 204.717 375.916 205.197 376.697 205.197C377.525 205.197 378.076 204.889 378.35 204.271V199.66H379.434V206H378.402L378.379 205.373ZM382.111 199.66L382.146 200.457C382.631 199.848 383.264 199.543 384.045 199.543C385.385 199.543 386.061 200.299 386.072 201.811V206H384.988V201.805C384.984 201.348 384.879 201.01 384.672 200.791C384.469 200.572 384.15 200.463 383.717 200.463C383.365 200.463 383.057 200.557 382.791 200.744C382.525 200.932 382.318 201.178 382.17 201.482V206H381.086V199.66H382.111ZM387.443 202.777C387.443 201.805 387.674 201.023 388.135 200.434C388.596 199.84 389.199 199.543 389.945 199.543C390.688 199.543 391.275 199.797 391.709 200.305V197H392.793V206H391.797L391.744 205.32C391.311 205.852 390.707 206.117 389.934 206.117C389.199 206.117 388.6 205.816 388.135 205.215C387.674 204.613 387.443 203.828 387.443 202.859V202.777ZM388.527 202.9C388.527 203.619 388.676 204.182 388.973 204.588C389.27 204.994 389.68 205.197 390.203 205.197C390.891 205.197 391.393 204.889 391.709 204.271V201.359C391.385 200.762 390.887 200.463 390.215 200.463C389.684 200.463 389.27 200.668 388.973 201.078C388.676 201.488 388.527 202.096 388.527 202.9ZM402.812 202.9C402.812 203.865 402.592 204.643 402.15 205.232C401.709 205.822 401.111 206.117 400.357 206.117C399.588 206.117 398.982 205.873 398.541 205.385V208.438H397.457V199.66H398.447L398.5 200.363C398.941 199.816 399.555 199.543 400.34 199.543C401.102 199.543 401.703 199.83 402.145 200.404C402.59 200.979 402.812 201.777 402.812 202.801V202.9ZM401.729 202.777C401.729 202.062 401.576 201.498 401.271 201.084C400.967 200.67 400.549 200.463 400.018 200.463C399.361 200.463 398.869 200.754 398.541 201.336V204.365C398.865 204.943 399.361 205.232 400.029 205.232C400.549 205.232 400.961 205.027 401.266 204.617C401.574 204.203 401.729 203.59 401.729 202.777ZM403.908 202.771C403.908 202.15 404.029 201.592 404.271 201.096C404.518 200.6 404.857 200.217 405.291 199.947C405.729 199.678 406.227 199.543 406.785 199.543C407.648 199.543 408.346 199.842 408.877 200.439C409.412 201.037 409.68 201.832 409.68 202.824V202.9C409.68 203.518 409.561 204.072 409.322 204.564C409.088 205.053 408.75 205.434 408.309 205.707C407.871 205.98 407.367 206.117 406.797 206.117C405.938 206.117 405.24 205.818 404.705 205.221C404.174 204.623 403.908 203.832 403.908 202.848V202.771ZM404.998 202.9C404.998 203.604 405.16 204.168 405.484 204.594C405.812 205.02 406.25 205.232 406.797 205.232C407.348 205.232 407.785 205.018 408.109 204.588C408.434 204.154 408.596 203.549 408.596 202.771C408.596 202.076 408.43 201.514 408.098 201.084C407.77 200.65 407.332 200.434 406.785 200.434C406.25 200.434 405.818 200.646 405.49 201.072C405.162 201.498 404.998 202.107 404.998 202.9ZM416.652 204.506L417.871 199.66H418.955L417.109 206H416.23L414.689 201.195L413.189 206H412.311L410.471 199.66H411.549L412.797 204.406L414.273 199.66H415.146L416.652 204.506ZM419.799 202.777C419.799 201.805 420.029 201.023 420.49 200.434C420.951 199.84 421.555 199.543 422.301 199.543C423.043 199.543 423.631 199.797 424.064 200.305V197H425.148V206H424.152L424.1 205.32C423.666 205.852 423.062 206.117 422.289 206.117C421.555 206.117 420.955 205.816 420.49 205.215C420.029 204.613 419.799 203.828 419.799 202.859V202.777ZM420.883 202.9C420.883 203.619 421.031 204.182 421.328 204.588C421.625 204.994 422.035 205.197 422.559 205.197C423.246 205.197 423.748 204.889 424.064 204.271V201.359C423.74 200.762 423.242 200.463 422.57 200.463C422.039 200.463 421.625 200.668 421.328 201.078C421.031 201.488 420.883 202.096 420.883 202.9ZM429.467 206.117C428.607 206.117 427.908 205.836 427.369 205.273C426.83 204.707 426.561 203.951 426.561 203.006V202.807C426.561 202.178 426.68 201.617 426.918 201.125C427.16 200.629 427.496 200.242 427.926 199.965C428.359 199.684 428.828 199.543 429.332 199.543C430.156 199.543 430.797 199.814 431.254 200.357C431.711 200.9 431.939 201.678 431.939 202.689V203.141H427.645C427.66 203.766 427.842 204.271 428.189 204.658C428.541 205.041 428.986 205.232 429.525 205.232C429.908 205.232 430.232 205.154 430.498 204.998C430.764 204.842 430.996 204.635 431.195 204.377L431.857 204.893C431.326 205.709 430.529 206.117 429.467 206.117ZM429.332 200.434C428.895 200.434 428.527 200.594 428.23 200.914C427.934 201.23 427.75 201.676 427.68 202.25H430.855V202.168C430.824 201.617 430.676 201.191 430.41 200.891C430.145 200.586 429.785 200.434 429.332 200.434ZM436.264 200.633C436.1 200.605 435.922 200.592 435.73 200.592C435.02 200.592 434.537 200.895 434.283 201.5V206H433.199V199.66H434.254L434.271 200.393C434.627 199.826 435.131 199.543 435.783 199.543C435.994 199.543 436.154 199.57 436.264 199.625V200.633ZM440.775 206V200.498H439.773V199.66H440.775V199.01C440.775 198.33 440.957 197.805 441.32 197.434C441.684 197.062 442.197 196.877 442.861 196.877C443.111 196.877 443.359 196.91 443.605 196.977L443.547 197.855C443.363 197.82 443.168 197.803 442.961 197.803C442.609 197.803 442.338 197.906 442.146 198.113C441.955 198.316 441.859 198.609 441.859 198.992V199.66H443.213V200.498H441.859V206H440.775ZM447.479 200.633C447.314 200.605 447.137 200.592 446.945 200.592C446.234 200.592 445.752 200.895 445.498 201.5V206H444.414V199.66H445.469L445.486 200.393C445.842 199.826 446.346 199.543 446.998 199.543C447.209 199.543 447.369 199.57 447.479 199.625V200.633ZM448.076 202.771C448.076 202.15 448.197 201.592 448.439 201.096C448.686 200.6 449.025 200.217 449.459 199.947C449.896 199.678 450.395 199.543 450.953 199.543C451.816 199.543 452.514 199.842 453.045 200.439C453.58 201.037 453.848 201.832 453.848 202.824V202.9C453.848 203.518 453.729 204.072 453.49 204.564C453.256 205.053 452.918 205.434 452.477 205.707C452.039 205.98 451.535 206.117 450.965 206.117C450.105 206.117 449.408 205.818 448.873 205.221C448.342 204.623 448.076 203.832 448.076 202.848V202.771ZM449.166 202.9C449.166 203.604 449.328 204.168 449.652 204.594C449.98 205.02 450.418 205.232 450.965 205.232C451.516 205.232 451.953 205.018 452.277 204.588C452.602 204.154 452.764 203.549 452.764 202.771C452.764 202.076 452.598 201.514 452.266 201.084C451.938 200.65 451.5 200.434 450.953 200.434C450.418 200.434 449.986 200.646 449.658 201.072C449.33 201.498 449.166 202.107 449.166 202.9ZM456.227 199.66L456.256 200.363C456.721 199.816 457.348 199.543 458.137 199.543C459.023 199.543 459.627 199.883 459.947 200.562C460.158 200.258 460.432 200.012 460.768 199.824C461.107 199.637 461.508 199.543 461.969 199.543C463.359 199.543 464.066 200.279 464.09 201.752V206H463.006V201.816C463.006 201.363 462.902 201.025 462.695 200.803C462.488 200.576 462.141 200.463 461.652 200.463C461.25 200.463 460.916 200.584 460.65 200.826C460.385 201.064 460.23 201.387 460.188 201.793V206H459.098V201.846C459.098 200.924 458.646 200.463 457.744 200.463C457.033 200.463 456.547 200.766 456.285 201.371V206H455.201V199.66H456.227ZM468.449 202.777C468.449 201.789 468.678 201.004 469.135 200.422C469.592 199.836 470.197 199.543 470.951 199.543C471.725 199.543 472.328 199.816 472.762 200.363L472.814 199.66H473.805V205.848C473.805 206.668 473.561 207.314 473.072 207.787C472.588 208.26 471.936 208.496 471.115 208.496C470.658 208.496 470.211 208.398 469.773 208.203C469.336 208.008 469.002 207.74 468.771 207.4L469.334 206.75C469.799 207.324 470.367 207.611 471.039 207.611C471.566 207.611 471.977 207.463 472.27 207.166C472.566 206.869 472.715 206.451 472.715 205.912V205.367C472.281 205.867 471.689 206.117 470.939 206.117C470.197 206.117 469.596 205.818 469.135 205.221C468.678 204.623 468.449 203.809 468.449 202.777ZM469.539 202.9C469.539 203.615 469.686 204.178 469.979 204.588C470.271 204.994 470.682 205.197 471.209 205.197C471.893 205.197 472.395 204.887 472.715 204.266V201.371C472.383 200.766 471.885 200.463 471.221 200.463C470.693 200.463 470.281 200.668 469.984 201.078C469.688 201.488 469.539 202.096 469.539 202.9ZM478.51 200.633C478.346 200.605 478.168 200.592 477.977 200.592C477.266 200.592 476.783 200.895 476.529 201.5V206H475.445V199.66H476.5L476.518 200.393C476.873 199.826 477.377 199.543 478.029 199.543C478.24 199.543 478.4 199.57 478.51 199.625V200.633ZM482.025 206.117C481.166 206.117 480.467 205.836 479.928 205.273C479.389 204.707 479.119 203.951 479.119 203.006V202.807C479.119 202.178 479.238 201.617 479.477 201.125C479.719 200.629 480.055 200.242 480.484 199.965C480.918 199.684 481.387 199.543 481.891 199.543C482.715 199.543 483.355 199.814 483.812 200.357C484.27 200.9 484.498 201.678 484.498 202.689V203.141H480.203C480.219 203.766 480.4 204.271 480.748 204.658C481.1 205.041 481.545 205.232 482.084 205.232C482.467 205.232 482.791 205.154 483.057 204.998C483.322 204.842 483.555 204.635 483.754 204.377L484.416 204.893C483.885 205.709 483.088 206.117 482.025 206.117ZM481.891 200.434C481.453 200.434 481.086 200.594 480.789 200.914C480.492 201.23 480.309 201.676 480.238 202.25H483.414V202.168C483.383 201.617 483.234 201.191 482.969 200.891C482.703 200.586 482.344 200.434 481.891 200.434ZM488.389 206.117C487.529 206.117 486.83 205.836 486.291 205.273C485.752 204.707 485.482 203.951 485.482 203.006V202.807C485.482 202.178 485.602 201.617 485.84 201.125C486.082 200.629 486.418 200.242 486.848 199.965C487.281 199.684 487.75 199.543 488.254 199.543C489.078 199.543 489.719 199.814 490.176 200.357C490.633 200.9 490.861 201.678 490.861 202.689V203.141H486.566C486.582 203.766 486.764 204.271 487.111 204.658C487.463 205.041 487.908 205.232 488.447 205.232C488.83 205.232 489.154 205.154 489.42 204.998C489.686 204.842 489.918 204.635 490.117 204.377L490.779 204.893C490.248 205.709 489.451 206.117 488.389 206.117ZM488.254 200.434C487.816 200.434 487.449 200.594 487.152 200.914C486.855 201.23 486.672 201.676 486.602 202.25H489.777V202.168C489.746 201.617 489.598 201.191 489.332 200.891C489.066 200.586 488.707 200.434 488.254 200.434ZM493.146 199.66L493.182 200.457C493.666 199.848 494.299 199.543 495.08 199.543C496.42 199.543 497.096 200.299 497.107 201.811V206H496.023V201.805C496.02 201.348 495.914 201.01 495.707 200.791C495.504 200.572 495.186 200.463 494.752 200.463C494.4 200.463 494.092 200.557 493.826 200.744C493.561 200.932 493.354 201.178 493.205 201.482V206H492.121V199.66H493.146ZM324.291 212.125V213.66H325.475V214.498H324.291V218.43C324.291 218.684 324.344 218.875 324.449 219.004C324.555 219.129 324.734 219.191 324.988 219.191C325.113 219.191 325.285 219.168 325.504 219.121V220C325.219 220.078 324.941 220.117 324.672 220.117C324.188 220.117 323.822 219.971 323.576 219.678C323.33 219.385 323.207 218.969 323.207 218.43V214.498H322.053V213.66H323.207V212.125H324.291ZM329.377 220.117C328.518 220.117 327.818 219.836 327.279 219.273C326.74 218.707 326.471 217.951 326.471 217.006V216.807C326.471 216.178 326.59 215.617 326.828 215.125C327.07 214.629 327.406 214.242 327.836 213.965C328.27 213.684 328.738 213.543 329.242 213.543C330.066 213.543 330.707 213.814 331.164 214.357C331.621 214.9 331.85 215.678 331.85 216.689V217.141H327.555C327.57 217.766 327.752 218.271 328.1 218.658C328.451 219.041 328.896 219.232 329.436 219.232C329.818 219.232 330.143 219.154 330.408 218.998C330.674 218.842 330.906 218.635 331.105 218.377L331.768 218.893C331.236 219.709 330.439 220.117 329.377 220.117ZM329.242 214.434C328.805 214.434 328.438 214.594 328.141 214.914C327.844 215.23 327.66 215.676 327.59 216.25H330.766V216.168C330.734 215.617 330.586 215.191 330.32 214.891C330.055 214.586 329.695 214.434 329.242 214.434ZM337.023 220C336.961 219.875 336.91 219.652 336.871 219.332C336.367 219.855 335.766 220.117 335.066 220.117C334.441 220.117 333.928 219.941 333.525 219.59C333.127 219.234 332.928 218.785 332.928 218.242C332.928 217.582 333.178 217.07 333.678 216.707C334.182 216.34 334.889 216.156 335.799 216.156H336.854V215.658C336.854 215.279 336.74 214.979 336.514 214.756C336.287 214.529 335.953 214.416 335.512 214.416C335.125 214.416 334.801 214.514 334.539 214.709C334.277 214.904 334.146 215.141 334.146 215.418H333.057C333.057 215.102 333.168 214.797 333.391 214.504C333.617 214.207 333.922 213.973 334.305 213.801C334.691 213.629 335.115 213.543 335.576 213.543C336.307 213.543 336.879 213.727 337.293 214.094C337.707 214.457 337.922 214.959 337.938 215.6V218.518C337.938 219.1 338.012 219.562 338.16 219.906V220H337.023ZM335.225 219.174C335.564 219.174 335.887 219.086 336.191 218.91C336.496 218.734 336.717 218.506 336.854 218.225V216.924H336.004C334.676 216.924 334.012 217.312 334.012 218.09C334.012 218.43 334.125 218.695 334.352 218.887C334.578 219.078 334.869 219.174 335.225 219.174ZM343.791 220H342.707V211H343.791V220ZM348.162 220.117C347.303 220.117 346.604 219.836 346.064 219.273C345.525 218.707 345.256 217.951 345.256 217.006V216.807C345.256 216.178 345.375 215.617 345.613 215.125C345.855 214.629 346.191 214.242 346.621 213.965C347.055 213.684 347.523 213.543 348.027 213.543C348.852 213.543 349.492 213.814 349.949 214.357C350.406 214.9 350.635 215.678 350.635 216.689V217.141H346.34C346.355 217.766 346.537 218.271 346.885 218.658C347.236 219.041 347.682 219.232 348.221 219.232C348.604 219.232 348.928 219.154 349.193 218.998C349.459 218.842 349.691 218.635 349.891 218.377L350.553 218.893C350.021 219.709 349.225 220.117 348.162 220.117ZM348.027 214.434C347.59 214.434 347.223 214.594 346.926 214.914C346.629 215.23 346.445 215.676 346.375 216.25H349.551V216.168C349.52 215.617 349.371 215.191 349.105 214.891C348.84 214.586 348.48 214.434 348.027 214.434ZM355.809 220C355.746 219.875 355.695 219.652 355.656 219.332C355.152 219.855 354.551 220.117 353.852 220.117C353.227 220.117 352.713 219.941 352.311 219.59C351.912 219.234 351.713 218.785 351.713 218.242C351.713 217.582 351.963 217.07 352.463 216.707C352.967 216.34 353.674 216.156 354.584 216.156H355.639V215.658C355.639 215.279 355.525 214.979 355.299 214.756C355.072 214.529 354.738 214.416 354.297 214.416C353.91 214.416 353.586 214.514 353.324 214.709C353.062 214.904 352.932 215.141 352.932 215.418H351.842C351.842 215.102 351.953 214.797 352.176 214.504C352.402 214.207 352.707 213.973 353.09 213.801C353.477 213.629 353.9 213.543 354.361 213.543C355.092 213.543 355.664 213.727 356.078 214.094C356.492 214.457 356.707 214.959 356.723 215.6V218.518C356.723 219.1 356.797 219.562 356.945 219.906V220H355.809ZM354.01 219.174C354.35 219.174 354.672 219.086 354.977 218.91C355.281 218.734 355.502 218.506 355.639 218.225V216.924H354.789C353.461 216.924 352.797 217.312 352.797 218.09C352.797 218.43 352.91 218.695 353.137 218.887C353.363 219.078 353.654 219.174 354.01 219.174ZM360.42 218.529L361.99 213.66H363.098L360.824 220H359.998L357.701 213.66H358.809L360.42 218.529ZM366.689 220.117C365.83 220.117 365.131 219.836 364.592 219.273C364.053 218.707 363.783 217.951 363.783 217.006V216.807C363.783 216.178 363.902 215.617 364.141 215.125C364.383 214.629 364.719 214.242 365.148 213.965C365.582 213.684 366.051 213.543 366.555 213.543C367.379 213.543 368.02 213.814 368.477 214.357C368.934 214.9 369.162 215.678 369.162 216.689V217.141H364.867C364.883 217.766 365.064 218.271 365.412 218.658C365.764 219.041 366.209 219.232 366.748 219.232C367.131 219.232 367.455 219.154 367.721 218.998C367.986 218.842 368.219 218.635 368.418 218.377L369.08 218.893C368.549 219.709 367.752 220.117 366.689 220.117ZM366.555 214.434C366.117 214.434 365.75 214.594 365.453 214.914C365.156 215.23 364.973 215.676 364.902 216.25H368.078V216.168C368.047 215.617 367.898 215.191 367.633 214.891C367.367 214.586 367.008 214.434 366.555 214.434ZM374.113 218.318C374.113 218.025 374.002 217.799 373.779 217.639C373.561 217.475 373.176 217.334 372.625 217.217C372.078 217.1 371.643 216.959 371.318 216.795C370.998 216.631 370.76 216.436 370.604 216.209C370.451 215.982 370.375 215.713 370.375 215.4C370.375 214.881 370.594 214.441 371.031 214.082C371.473 213.723 372.035 213.543 372.719 213.543C373.438 213.543 374.02 213.729 374.465 214.1C374.914 214.471 375.139 214.945 375.139 215.523H374.049C374.049 215.227 373.922 214.971 373.668 214.756C373.418 214.541 373.102 214.434 372.719 214.434C372.324 214.434 372.016 214.52 371.793 214.691C371.57 214.863 371.459 215.088 371.459 215.365C371.459 215.627 371.562 215.824 371.77 215.957C371.977 216.09 372.35 216.217 372.889 216.338C373.432 216.459 373.871 216.604 374.207 216.771C374.543 216.939 374.791 217.143 374.951 217.381C375.115 217.615 375.197 217.902 375.197 218.242C375.197 218.809 374.971 219.264 374.518 219.607C374.064 219.947 373.477 220.117 372.754 220.117C372.246 220.117 371.797 220.027 371.406 219.848C371.016 219.668 370.709 219.418 370.486 219.098C370.268 218.773 370.158 218.424 370.158 218.049H371.242C371.262 218.412 371.406 218.701 371.676 218.916C371.949 219.127 372.309 219.232 372.754 219.232C373.164 219.232 373.492 219.15 373.738 218.986C373.988 218.818 374.113 218.596 374.113 218.318ZM381.057 212.125V213.66H382.24V214.498H381.057V218.43C381.057 218.684 381.109 218.875 381.215 219.004C381.32 219.129 381.5 219.191 381.754 219.191C381.879 219.191 382.051 219.168 382.27 219.121V220C381.984 220.078 381.707 220.117 381.438 220.117C380.953 220.117 380.588 219.971 380.342 219.678C380.096 219.385 379.973 218.969 379.973 218.43V214.498H378.818V213.66H379.973V212.125H381.057ZM384.596 214.428C385.076 213.838 385.701 213.543 386.471 213.543C387.811 213.543 388.486 214.299 388.498 215.811V220H387.414V215.805C387.41 215.348 387.305 215.01 387.098 214.791C386.895 214.572 386.576 214.463 386.143 214.463C385.791 214.463 385.482 214.557 385.217 214.744C384.951 214.932 384.744 215.178 384.596 215.482V220H383.512V211H384.596V214.428ZM394.035 220C393.973 219.875 393.922 219.652 393.883 219.332C393.379 219.855 392.777 220.117 392.078 220.117C391.453 220.117 390.939 219.941 390.537 219.59C390.139 219.234 389.939 218.785 389.939 218.242C389.939 217.582 390.189 217.07 390.689 216.707C391.193 216.34 391.9 216.156 392.811 216.156H393.865V215.658C393.865 215.279 393.752 214.979 393.525 214.756C393.299 214.529 392.965 214.416 392.523 214.416C392.137 214.416 391.812 214.514 391.551 214.709C391.289 214.904 391.158 215.141 391.158 215.418H390.068C390.068 215.102 390.18 214.797 390.402 214.504C390.629 214.207 390.934 213.973 391.316 213.801C391.703 213.629 392.127 213.543 392.588 213.543C393.318 213.543 393.891 213.727 394.305 214.094C394.719 214.457 394.934 214.959 394.949 215.6V218.518C394.949 219.1 395.023 219.562 395.172 219.906V220H394.035ZM392.236 219.174C392.576 219.174 392.898 219.086 393.203 218.91C393.508 218.734 393.729 218.506 393.865 218.225V216.924H393.016C391.688 216.924 391.023 217.312 391.023 218.09C391.023 218.43 391.137 218.695 391.363 218.887C391.59 219.078 391.881 219.174 392.236 219.174ZM398.119 212.125V213.66H399.303V214.498H398.119V218.43C398.119 218.684 398.172 218.875 398.277 219.004C398.383 219.129 398.562 219.191 398.816 219.191C398.941 219.191 399.113 219.168 399.332 219.121V220C399.047 220.078 398.77 220.117 398.5 220.117C398.016 220.117 397.65 219.971 397.404 219.678C397.158 219.385 397.035 218.969 397.035 218.43V214.498H395.881V213.66H397.035V212.125H398.119ZM404.635 214.428C405.115 213.838 405.74 213.543 406.51 213.543C407.85 213.543 408.525 214.299 408.537 215.811V220H407.453V215.805C407.449 215.348 407.344 215.01 407.137 214.791C406.934 214.572 406.615 214.463 406.182 214.463C405.83 214.463 405.521 214.557 405.256 214.744C404.99 214.932 404.783 215.178 404.635 215.482V220H403.551V211H404.635V214.428ZM414.074 220C414.012 219.875 413.961 219.652 413.922 219.332C413.418 219.855 412.816 220.117 412.117 220.117C411.492 220.117 410.979 219.941 410.576 219.59C410.178 219.234 409.979 218.785 409.979 218.242C409.979 217.582 410.229 217.07 410.729 216.707C411.232 216.34 411.939 216.156 412.85 216.156H413.904V215.658C413.904 215.279 413.791 214.979 413.564 214.756C413.338 214.529 413.004 214.416 412.562 214.416C412.176 214.416 411.852 214.514 411.59 214.709C411.328 214.904 411.197 215.141 411.197 215.418H410.107C410.107 215.102 410.219 214.797 410.441 214.504C410.668 214.207 410.973 213.973 411.355 213.801C411.742 213.629 412.166 213.543 412.627 213.543C413.357 213.543 413.93 213.727 414.344 214.094C414.758 214.457 414.973 214.959 414.988 215.6V218.518C414.988 219.1 415.062 219.562 415.211 219.906V220H414.074ZM412.275 219.174C412.615 219.174 412.938 219.086 413.242 218.91C413.547 218.734 413.768 218.506 413.904 218.225V216.924H413.055C411.727 216.924 411.062 217.312 411.062 218.09C411.062 218.43 411.176 218.695 411.402 218.887C411.629 219.078 411.92 219.174 412.275 219.174ZM418.686 218.529L420.256 213.66H421.363L419.09 220H418.264L415.967 213.66H417.074L418.686 218.529ZM424.955 220.117C424.096 220.117 423.396 219.836 422.857 219.273C422.318 218.707 422.049 217.951 422.049 217.006V216.807C422.049 216.178 422.168 215.617 422.406 215.125C422.648 214.629 422.984 214.242 423.414 213.965C423.848 213.684 424.316 213.543 424.82 213.543C425.645 213.543 426.285 213.814 426.742 214.357C427.199 214.9 427.428 215.678 427.428 216.689V217.141H423.133C423.148 217.766 423.33 218.271 423.678 218.658C424.029 219.041 424.475 219.232 425.014 219.232C425.396 219.232 425.721 219.154 425.986 218.998C426.252 218.842 426.484 218.635 426.684 218.377L427.346 218.893C426.814 219.709 426.018 220.117 424.955 220.117ZM424.82 214.434C424.383 214.434 424.016 214.594 423.719 214.914C423.422 215.23 423.238 215.676 423.168 216.25H426.344V216.168C426.312 215.617 426.164 215.191 425.898 214.891C425.633 214.586 425.273 214.434 424.82 214.434ZM437.031 216.9C437.031 217.869 436.809 218.648 436.363 219.238C435.918 219.824 435.32 220.117 434.57 220.117C433.77 220.117 433.15 219.834 432.713 219.268L432.66 220H431.664V211H432.748V214.357C433.186 213.814 433.789 213.543 434.559 213.543C435.328 213.543 435.932 213.834 436.369 214.416C436.811 214.998 437.031 215.795 437.031 216.807V216.9ZM435.947 216.777C435.947 216.039 435.805 215.469 435.52 215.066C435.234 214.664 434.824 214.463 434.289 214.463C433.574 214.463 433.061 214.795 432.748 215.459V218.201C433.08 218.865 433.598 219.197 434.301 219.197C434.82 219.197 435.225 218.996 435.514 218.594C435.803 218.191 435.947 217.586 435.947 216.777ZM441.033 220.117C440.174 220.117 439.475 219.836 438.936 219.273C438.396 218.707 438.127 217.951 438.127 217.006V216.807C438.127 216.178 438.246 215.617 438.484 215.125C438.727 214.629 439.062 214.242 439.492 213.965C439.926 213.684 440.395 213.543 440.898 213.543C441.723 213.543 442.363 213.814 442.82 214.357C443.277 214.9 443.506 215.678 443.506 216.689V217.141H439.211C439.227 217.766 439.408 218.271 439.756 218.658C440.107 219.041 440.553 219.232 441.092 219.232C441.475 219.232 441.799 219.154 442.064 218.998C442.33 218.842 442.562 218.635 442.762 218.377L443.424 218.893C442.893 219.709 442.096 220.117 441.033 220.117ZM440.898 214.434C440.461 214.434 440.094 214.594 439.797 214.914C439.5 215.23 439.316 215.676 439.246 216.25H442.422V216.168C442.391 215.617 442.242 215.191 441.977 214.891C441.711 214.586 441.352 214.434 440.898 214.434ZM447.396 220.117C446.537 220.117 445.838 219.836 445.299 219.273C444.76 218.707 444.49 217.951 444.49 217.006V216.807C444.49 216.178 444.609 215.617 444.848 215.125C445.09 214.629 445.426 214.242 445.855 213.965C446.289 213.684 446.758 213.543 447.262 213.543C448.086 213.543 448.727 213.814 449.184 214.357C449.641 214.9 449.869 215.678 449.869 216.689V217.141H445.574C445.59 217.766 445.771 218.271 446.119 218.658C446.471 219.041 446.916 219.232 447.455 219.232C447.838 219.232 448.162 219.154 448.428 218.998C448.693 218.842 448.926 218.635 449.125 218.377L449.787 218.893C449.256 219.709 448.459 220.117 447.396 220.117ZM447.262 214.434C446.824 214.434 446.457 214.594 446.16 214.914C445.863 215.23 445.68 215.676 445.609 216.25H448.785V216.168C448.754 215.617 448.605 215.191 448.34 214.891C448.074 214.586 447.715 214.434 447.262 214.434ZM452.154 213.66L452.189 214.457C452.674 213.848 453.307 213.543 454.088 213.543C455.428 213.543 456.104 214.299 456.115 215.811V220H455.031V215.805C455.027 215.348 454.922 215.01 454.715 214.791C454.512 214.572 454.193 214.463 453.76 214.463C453.408 214.463 453.1 214.557 452.834 214.744C452.568 214.932 452.361 215.178 452.213 215.482V220H451.129V213.66H452.154ZM326.512 232.318C326.512 232.025 326.4 231.799 326.178 231.639C325.959 231.475 325.574 231.334 325.023 231.217C324.477 231.1 324.041 230.959 323.717 230.795C323.396 230.631 323.158 230.436 323.002 230.209C322.85 229.982 322.773 229.713 322.773 229.4C322.773 228.881 322.992 228.441 323.43 228.082C323.871 227.723 324.434 227.543 325.117 227.543C325.836 227.543 326.418 227.729 326.863 228.1C327.312 228.471 327.537 228.945 327.537 229.523H326.447C326.447 229.227 326.32 228.971 326.066 228.756C325.816 228.541 325.5 228.434 325.117 228.434C324.723 228.434 324.414 228.52 324.191 228.691C323.969 228.863 323.857 229.088 323.857 229.365C323.857 229.627 323.961 229.824 324.168 229.957C324.375 230.09 324.748 230.217 325.287 230.338C325.83 230.459 326.27 230.604 326.605 230.771C326.941 230.939 327.189 231.143 327.35 231.381C327.514 231.615 327.596 231.902 327.596 232.242C327.596 232.809 327.369 233.264 326.916 233.607C326.463 233.947 325.875 234.117 325.152 234.117C324.645 234.117 324.195 234.027 323.805 233.848C323.414 233.668 323.107 233.418 322.885 233.098C322.666 232.773 322.557 232.424 322.557 232.049H323.641C323.66 232.412 323.805 232.701 324.074 232.916C324.348 233.127 324.707 233.232 325.152 233.232C325.562 233.232 325.891 233.15 326.137 232.986C326.387 232.818 326.512 232.596 326.512 232.318ZM330.479 226.125V227.66H331.662V228.498H330.479V232.43C330.479 232.684 330.531 232.875 330.637 233.004C330.742 233.129 330.922 233.191 331.176 233.191C331.301 233.191 331.473 233.168 331.691 233.121V234C331.406 234.078 331.129 234.117 330.859 234.117C330.375 234.117 330.01 233.971 329.764 233.678C329.518 233.385 329.395 232.969 329.395 232.43V228.498H328.24V227.66H329.395V226.125H330.479ZM335.564 234.117C334.705 234.117 334.006 233.836 333.467 233.273C332.928 232.707 332.658 231.951 332.658 231.006V230.807C332.658 230.178 332.777 229.617 333.016 229.125C333.258 228.629 333.594 228.242 334.023 227.965C334.457 227.684 334.926 227.543 335.43 227.543C336.254 227.543 336.895 227.814 337.352 228.357C337.809 228.9 338.037 229.678 338.037 230.689V231.141H333.742C333.758 231.766 333.939 232.271 334.287 232.658C334.639 233.041 335.084 233.232 335.623 233.232C336.006 233.232 336.33 233.154 336.596 232.998C336.861 232.842 337.094 232.635 337.293 232.377L337.955 232.893C337.424 233.709 336.627 234.117 335.564 234.117ZM335.43 228.434C334.992 228.434 334.625 228.594 334.328 228.914C334.031 229.23 333.848 229.676 333.777 230.25H336.953V230.168C336.922 229.617 336.773 229.191 336.508 228.891C336.242 228.586 335.883 228.434 335.43 228.434ZM343.211 234C343.148 233.875 343.098 233.652 343.059 233.332C342.555 233.855 341.953 234.117 341.254 234.117C340.629 234.117 340.115 233.941 339.713 233.59C339.314 233.234 339.115 232.785 339.115 232.242C339.115 231.582 339.365 231.07 339.865 230.707C340.369 230.34 341.076 230.156 341.986 230.156H343.041V229.658C343.041 229.279 342.928 228.979 342.701 228.756C342.475 228.529 342.141 228.416 341.699 228.416C341.312 228.416 340.988 228.514 340.727 228.709C340.465 228.904 340.334 229.141 340.334 229.418H339.244C339.244 229.102 339.355 228.797 339.578 228.504C339.805 228.207 340.109 227.973 340.492 227.801C340.879 227.629 341.303 227.543 341.764 227.543C342.494 227.543 343.066 227.727 343.48 228.094C343.895 228.457 344.109 228.959 344.125 229.6V232.518C344.125 233.1 344.199 233.562 344.348 233.906V234H343.211ZM341.412 233.174C341.752 233.174 342.074 233.086 342.379 232.91C342.684 232.734 342.904 232.506 343.041 232.225V230.924H342.191C340.863 230.924 340.199 231.312 340.199 232.09C340.199 232.43 340.312 232.695 340.539 232.887C340.766 233.078 341.057 233.174 341.412 233.174ZM346.844 227.66L346.873 228.363C347.338 227.816 347.965 227.543 348.754 227.543C349.641 227.543 350.244 227.883 350.564 228.562C350.775 228.258 351.049 228.012 351.385 227.824C351.725 227.637 352.125 227.543 352.586 227.543C353.977 227.543 354.684 228.279 354.707 229.752V234H353.623V229.816C353.623 229.363 353.52 229.025 353.312 228.803C353.105 228.576 352.758 228.463 352.27 228.463C351.867 228.463 351.533 228.584 351.268 228.826C351.002 229.064 350.848 229.387 350.805 229.793V234H349.715V229.846C349.715 228.924 349.264 228.463 348.361 228.463C347.65 228.463 347.164 228.766 346.902 229.371V234H345.818V227.66H346.844ZM358.979 234.117C358.119 234.117 357.42 233.836 356.881 233.273C356.342 232.707 356.072 231.951 356.072 231.006V230.807C356.072 230.178 356.191 229.617 356.43 229.125C356.672 228.629 357.008 228.242 357.438 227.965C357.871 227.684 358.34 227.543 358.844 227.543C359.668 227.543 360.309 227.814 360.766 228.357C361.223 228.9 361.451 229.678 361.451 230.689V231.141H357.156C357.172 231.766 357.354 232.271 357.701 232.658C358.053 233.041 358.498 233.232 359.037 233.232C359.42 233.232 359.744 233.154 360.01 232.998C360.275 232.842 360.508 232.635 360.707 232.377L361.369 232.893C360.838 233.709 360.041 234.117 358.979 234.117ZM358.844 228.434C358.406 228.434 358.039 228.594 357.742 228.914C357.445 229.23 357.262 229.676 357.191 230.25H360.367V230.168C360.336 229.617 360.188 229.191 359.922 228.891C359.656 228.586 359.297 228.434 358.844 228.434ZM362.447 230.777C362.447 229.805 362.678 229.023 363.139 228.434C363.6 227.84 364.203 227.543 364.949 227.543C365.691 227.543 366.279 227.797 366.713 228.305V225H367.797V234H366.801L366.748 233.32C366.314 233.852 365.711 234.117 364.938 234.117C364.203 234.117 363.604 233.816 363.139 233.215C362.678 232.613 362.447 231.828 362.447 230.859V230.777ZM363.531 230.9C363.531 231.619 363.68 232.182 363.977 232.588C364.273 232.994 364.684 233.197 365.207 233.197C365.895 233.197 366.396 232.889 366.713 232.271V229.359C366.389 228.762 365.891 228.463 365.219 228.463C364.688 228.463 364.273 228.668 363.977 229.078C363.68 229.488 363.531 230.096 363.531 230.9ZM377.828 230.9C377.828 231.869 377.605 232.648 377.16 233.238C376.715 233.824 376.117 234.117 375.367 234.117C374.566 234.117 373.947 233.834 373.51 233.268L373.457 234H372.461V225H373.545V228.357C373.982 227.814 374.586 227.543 375.355 227.543C376.125 227.543 376.729 227.834 377.166 228.416C377.607 228.998 377.828 229.795 377.828 230.807V230.9ZM376.744 230.777C376.744 230.039 376.602 229.469 376.316 229.066C376.031 228.664 375.621 228.463 375.086 228.463C374.371 228.463 373.857 228.795 373.545 229.459V232.201C373.877 232.865 374.395 233.197 375.098 233.197C375.617 233.197 376.021 232.996 376.311 232.594C376.6 232.191 376.744 231.586 376.744 230.777ZM382.264 228.633C382.1 228.605 381.922 228.592 381.73 228.592C381.02 228.592 380.537 228.895 380.283 229.5V234H379.199V227.66H380.254L380.271 228.393C380.627 227.826 381.131 227.543 381.783 227.543C381.994 227.543 382.154 227.57 382.264 227.625V228.633ZM384.443 234H383.359V227.66H384.443V234ZM383.271 225.979C383.271 225.803 383.324 225.654 383.43 225.533C383.539 225.412 383.699 225.352 383.91 225.352C384.121 225.352 384.281 225.412 384.391 225.533C384.5 225.654 384.555 225.803 384.555 225.979C384.555 226.154 384.5 226.301 384.391 226.418C384.281 226.535 384.121 226.594 383.91 226.594C383.699 226.594 383.539 226.535 383.43 226.418C383.324 226.301 383.271 226.154 383.271 225.979ZM388.814 234.117C387.955 234.117 387.256 233.836 386.717 233.273C386.178 232.707 385.908 231.951 385.908 231.006V230.807C385.908 230.178 386.027 229.617 386.266 229.125C386.508 228.629 386.844 228.242 387.273 227.965C387.707 227.684 388.176 227.543 388.68 227.543C389.504 227.543 390.145 227.814 390.602 228.357C391.059 228.9 391.287 229.678 391.287 230.689V231.141H386.992C387.008 231.766 387.189 232.271 387.537 232.658C387.889 233.041 388.334 233.232 388.873 233.232C389.256 233.232 389.58 233.154 389.846 232.998C390.111 232.842 390.344 232.635 390.543 232.377L391.205 232.893C390.674 233.709 389.877 234.117 388.814 234.117ZM388.68 228.434C388.242 228.434 387.875 228.594 387.578 228.914C387.281 229.23 387.098 229.676 387.027 230.25H390.203V230.168C390.172 229.617 390.023 229.191 389.758 228.891C389.492 228.586 389.133 228.434 388.68 228.434ZM396.508 225.92C396.023 225.842 395.633 225.803 395.336 225.803C394.555 225.803 394.164 226.213 394.164 227.033V227.66H395.518V228.498H394.164V234H393.08V228.498H392.078V227.66H393.08V226.969C393.084 226.293 393.273 225.775 393.648 225.416C394.023 225.057 394.557 224.877 395.248 224.877C395.643 224.877 396.424 224.996 397.592 225.234V234H396.508V225.92ZM401.441 232.412L402.918 227.66H404.078L401.529 234.979C401.135 236.033 400.508 236.561 399.648 236.561L399.443 236.543L399.039 236.467V235.588L399.332 235.611C399.699 235.611 399.984 235.537 400.188 235.389C400.395 235.24 400.564 234.969 400.697 234.574L400.938 233.93L398.676 227.66H399.859L401.441 232.412ZM404.441 233.432C404.441 233.244 404.496 233.088 404.605 232.963C404.719 232.838 404.887 232.775 405.109 232.775C405.332 232.775 405.5 232.838 405.613 232.963C405.73 233.088 405.789 233.244 405.789 233.432C405.789 233.611 405.73 233.762 405.613 233.883C405.5 234.004 405.332 234.064 405.109 234.064C404.887 234.064 404.719 234.004 404.605 233.883C404.496 233.762 404.441 233.611 404.441 233.432ZM410.729 234V225.469H413.137C413.879 225.469 414.535 225.633 415.105 225.961C415.676 226.289 416.115 226.756 416.424 227.361C416.736 227.967 416.895 228.662 416.898 229.447V229.992C416.898 230.797 416.742 231.502 416.43 232.107C416.121 232.713 415.678 233.178 415.1 233.502C414.525 233.826 413.855 233.992 413.09 234H410.729ZM411.854 226.395V233.08H413.037C413.904 233.08 414.578 232.811 415.059 232.271C415.543 231.732 415.785 230.965 415.785 229.969V229.471C415.785 228.502 415.557 227.75 415.1 227.215C414.646 226.676 414.002 226.402 413.166 226.395H411.854ZM419.611 234H418.527V227.66H419.611V234ZM418.439 225.979C418.439 225.803 418.492 225.654 418.598 225.533C418.707 225.412 418.867 225.352 419.078 225.352C419.289 225.352 419.449 225.412 419.559 225.533C419.668 225.654 419.723 225.803 419.723 225.979C419.723 226.154 419.668 226.301 419.559 226.418C419.449 226.535 419.289 226.594 419.078 226.594C418.867 226.594 418.707 226.535 418.598 226.418C418.492 226.301 418.439 226.154 418.439 225.979ZM425.043 232.318C425.043 232.025 424.932 231.799 424.709 231.639C424.49 231.475 424.105 231.334 423.555 231.217C423.008 231.1 422.572 230.959 422.248 230.795C421.928 230.631 421.689 230.436 421.533 230.209C421.381 229.982 421.305 229.713 421.305 229.4C421.305 228.881 421.523 228.441 421.961 228.082C422.402 227.723 422.965 227.543 423.648 227.543C424.367 227.543 424.949 227.729 425.395 228.1C425.844 228.471 426.068 228.945 426.068 229.523H424.979C424.979 229.227 424.852 228.971 424.598 228.756C424.348 228.541 424.031 228.434 423.648 228.434C423.254 228.434 422.945 228.52 422.723 228.691C422.5 228.863 422.389 229.088 422.389 229.365C422.389 229.627 422.492 229.824 422.699 229.957C422.906 230.09 423.279 230.217 423.818 230.338C424.361 230.459 424.801 230.604 425.137 230.771C425.473 230.939 425.721 231.143 425.881 231.381C426.045 231.615 426.127 231.902 426.127 232.242C426.127 232.809 425.9 233.264 425.447 233.607C424.994 233.947 424.406 234.117 423.684 234.117C423.176 234.117 422.727 234.027 422.336 233.848C421.945 233.668 421.639 233.418 421.416 233.098C421.197 232.773 421.088 232.424 421.088 232.049H422.172C422.191 232.412 422.336 232.701 422.605 232.916C422.879 233.127 423.238 233.232 423.684 233.232C424.094 233.232 424.422 233.15 424.668 232.986C424.918 232.818 425.043 232.596 425.043 232.318ZM431.23 232.318C431.23 232.025 431.119 231.799 430.896 231.639C430.678 231.475 430.293 231.334 429.742 231.217C429.195 231.1 428.76 230.959 428.436 230.795C428.115 230.631 427.877 230.436 427.721 230.209C427.568 229.982 427.492 229.713 427.492 229.4C427.492 228.881 427.711 228.441 428.148 228.082C428.59 227.723 429.152 227.543 429.836 227.543C430.555 227.543 431.137 227.729 431.582 228.1C432.031 228.471 432.256 228.945 432.256 229.523H431.166C431.166 229.227 431.039 228.971 430.785 228.756C430.535 228.541 430.219 228.434 429.836 228.434C429.441 228.434 429.133 228.52 428.91 228.691C428.688 228.863 428.576 229.088 428.576 229.365C428.576 229.627 428.68 229.824 428.887 229.957C429.094 230.09 429.467 230.217 430.006 230.338C430.549 230.459 430.988 230.604 431.324 230.771C431.66 230.939 431.908 231.143 432.068 231.381C432.232 231.615 432.314 231.902 432.314 232.242C432.314 232.809 432.088 233.264 431.635 233.607C431.182 233.947 430.594 234.117 429.871 234.117C429.363 234.117 428.914 234.027 428.523 233.848C428.133 233.668 427.826 233.418 427.604 233.098C427.385 232.773 427.275 232.424 427.275 232.049H428.359C428.379 232.412 428.523 232.701 428.793 232.916C429.066 233.127 429.426 233.232 429.871 233.232C430.281 233.232 430.609 233.15 430.855 232.986C431.105 232.818 431.23 232.596 431.23 232.318ZM433.439 230.771C433.439 230.15 433.561 229.592 433.803 229.096C434.049 228.6 434.389 228.217 434.822 227.947C435.26 227.678 435.758 227.543 436.316 227.543C437.18 227.543 437.877 227.842 438.408 228.439C438.943 229.037 439.211 229.832 439.211 230.824V230.9C439.211 231.518 439.092 232.072 438.854 232.564C438.619 233.053 438.281 233.434 437.84 233.707C437.402 233.98 436.898 234.117 436.328 234.117C435.469 234.117 434.771 233.818 434.236 233.221C433.705 232.623 433.439 231.832 433.439 230.848V230.771ZM434.529 230.9C434.529 231.604 434.691 232.168 435.016 232.594C435.344 233.02 435.781 233.232 436.328 233.232C436.879 233.232 437.316 233.018 437.641 232.588C437.965 232.154 438.127 231.549 438.127 230.771C438.127 230.076 437.961 229.514 437.629 229.084C437.301 228.65 436.863 228.434 436.316 228.434C435.781 228.434 435.35 228.646 435.021 229.072C434.693 229.498 434.529 230.107 434.529 230.9ZM441.748 234H440.664V225H441.748V234ZM445.58 232.529L447.15 227.66H448.258L445.984 234H445.158L442.861 227.66H443.969L445.58 232.529ZM451.85 234.117C450.99 234.117 450.291 233.836 449.752 233.273C449.213 232.707 448.943 231.951 448.943 231.006V230.807C448.943 230.178 449.062 229.617 449.301 229.125C449.543 228.629 449.879 228.242 450.309 227.965C450.742 227.684 451.211 227.543 451.715 227.543C452.539 227.543 453.18 227.814 453.637 228.357C454.094 228.9 454.322 229.678 454.322 230.689V231.141H450.027C450.043 231.766 450.225 232.271 450.572 232.658C450.924 233.041 451.369 233.232 451.908 233.232C452.291 233.232 452.615 233.154 452.881 232.998C453.146 232.842 453.379 232.635 453.578 232.377L454.24 232.893C453.709 233.709 452.912 234.117 451.85 234.117ZM451.715 228.434C451.277 228.434 450.91 228.594 450.613 228.914C450.316 229.23 450.133 229.676 450.062 230.25H453.238V230.168C453.207 229.617 453.059 229.191 452.793 228.891C452.527 228.586 452.168 228.434 451.715 228.434ZM455.318 230.777C455.318 229.805 455.549 229.023 456.01 228.434C456.471 227.84 457.074 227.543 457.82 227.543C458.562 227.543 459.15 227.797 459.584 228.305V225H460.668V234H459.672L459.619 233.32C459.186 233.852 458.582 234.117 457.809 234.117C457.074 234.117 456.475 233.816 456.01 233.215C455.549 232.613 455.318 231.828 455.318 230.859V230.777ZM456.402 230.9C456.402 231.619 456.551 232.182 456.848 232.588C457.145 232.994 457.555 233.197 458.078 233.197C458.766 233.197 459.268 232.889 459.584 232.271V229.359C459.26 228.762 458.762 228.463 458.09 228.463C457.559 228.463 457.145 228.668 456.848 229.078C456.551 229.488 456.402 230.096 456.402 230.9ZM466.51 234H465.426V227.66H466.51V234ZM465.338 225.979C465.338 225.803 465.391 225.654 465.496 225.533C465.605 225.412 465.766 225.352 465.977 225.352C466.188 225.352 466.348 225.412 466.457 225.533C466.566 225.654 466.621 225.803 466.621 225.979C466.621 226.154 466.566 226.301 466.457 226.418C466.348 226.535 466.188 226.594 465.977 226.594C465.766 226.594 465.605 226.535 465.496 226.418C465.391 226.301 465.338 226.154 465.338 225.979ZM469.275 227.66L469.311 228.457C469.795 227.848 470.428 227.543 471.209 227.543C472.549 227.543 473.225 228.299 473.236 229.811V234H472.152V229.805C472.148 229.348 472.043 229.01 471.836 228.791C471.633 228.572 471.314 228.463 470.881 228.463C470.529 228.463 470.221 228.557 469.955 228.744C469.689 228.932 469.482 229.178 469.334 229.482V234H468.25V227.66H469.275ZM478.932 228.428C479.412 227.838 480.037 227.543 480.807 227.543C482.146 227.543 482.822 228.299 482.834 229.811V234H481.75V229.805C481.746 229.348 481.641 229.01 481.434 228.791C481.23 228.572 480.912 228.463 480.479 228.463C480.127 228.463 479.818 228.557 479.553 228.744C479.287 228.932 479.08 229.178 478.932 229.482V234H477.848V225H478.932V228.428ZM484.17 230.771C484.17 230.15 484.291 229.592 484.533 229.096C484.779 228.6 485.119 228.217 485.553 227.947C485.99 227.678 486.488 227.543 487.047 227.543C487.91 227.543 488.607 227.842 489.139 228.439C489.674 229.037 489.941 229.832 489.941 230.824V230.9C489.941 231.518 489.822 232.072 489.584 232.564C489.35 233.053 489.012 233.434 488.57 233.707C488.133 233.98 487.629 234.117 487.059 234.117C486.199 234.117 485.502 233.818 484.967 233.221C484.436 232.623 484.17 231.832 484.17 230.848V230.771ZM485.26 230.9C485.26 231.604 485.422 232.168 485.746 232.594C486.074 233.02 486.512 233.232 487.059 233.232C487.609 233.232 488.047 233.018 488.371 232.588C488.695 232.154 488.857 231.549 488.857 230.771C488.857 230.076 488.691 229.514 488.359 229.084C488.031 228.65 487.594 228.434 487.047 228.434C486.512 228.434 486.08 228.646 485.752 229.072C485.424 229.498 485.26 230.107 485.26 230.9ZM492.771 226.125V227.66H493.955V228.498H492.771V232.43C492.771 232.684 492.824 232.875 492.93 233.004C493.035 233.129 493.215 233.191 493.469 233.191C493.594 233.191 493.766 233.168 493.984 233.121V234C493.699 234.078 493.422 234.117 493.152 234.117C492.668 234.117 492.303 233.971 492.057 233.678C491.811 233.385 491.688 232.969 491.688 232.43V228.498H490.533V227.66H491.688V226.125H492.771ZM328.434 246.506L329.652 241.66H330.736L328.891 248H328.012L326.471 243.195L324.971 248H324.092L322.252 241.66H323.33L324.578 246.406L326.055 241.66H326.928L328.434 246.506ZM335.758 248C335.695 247.875 335.645 247.652 335.605 247.332C335.102 247.855 334.5 248.117 333.801 248.117C333.176 248.117 332.662 247.941 332.26 247.59C331.861 247.234 331.662 246.785 331.662 246.242C331.662 245.582 331.912 245.07 332.412 244.707C332.916 244.34 333.623 244.156 334.533 244.156H335.588V243.658C335.588 243.279 335.475 242.979 335.248 242.756C335.021 242.529 334.688 242.416 334.246 242.416C333.859 242.416 333.535 242.514 333.273 242.709C333.012 242.904 332.881 243.141 332.881 243.418H331.791C331.791 243.102 331.902 242.797 332.125 242.504C332.352 242.207 332.656 241.973 333.039 241.801C333.426 241.629 333.85 241.543 334.311 241.543C335.041 241.543 335.613 241.727 336.027 242.094C336.441 242.457 336.656 242.959 336.672 243.6V246.518C336.672 247.1 336.746 247.562 336.895 247.906V248H335.758ZM333.959 247.174C334.299 247.174 334.621 247.086 334.926 246.91C335.23 246.734 335.451 246.506 335.588 246.225V244.924H334.738C333.41 244.924 332.746 245.312 332.746 246.09C332.746 246.43 332.859 246.695 333.086 246.887C333.312 247.078 333.604 247.174 333.959 247.174ZM339.842 240.125V241.66H341.025V242.498H339.842V246.43C339.842 246.684 339.895 246.875 340 247.004C340.105 247.129 340.285 247.191 340.539 247.191C340.664 247.191 340.836 247.168 341.055 247.121V248C340.77 248.078 340.492 248.117 340.223 248.117C339.738 248.117 339.373 247.971 339.127 247.678C338.881 247.385 338.758 246.969 338.758 246.43V242.498H337.604V241.66H338.758V240.125H339.842ZM344.928 248.117C344.068 248.117 343.369 247.836 342.83 247.273C342.291 246.707 342.021 245.951 342.021 245.006V244.807C342.021 244.178 342.141 243.617 342.379 243.125C342.621 242.629 342.957 242.242 343.387 241.965C343.82 241.684 344.289 241.543 344.793 241.543C345.617 241.543 346.258 241.814 346.715 242.357C347.172 242.9 347.4 243.678 347.4 244.689V245.141H343.105C343.121 245.766 343.303 246.271 343.65 246.658C344.002 247.041 344.447 247.232 344.986 247.232C345.369 247.232 345.693 247.154 345.959 246.998C346.225 246.842 346.457 246.635 346.656 246.377L347.318 246.893C346.787 247.709 345.99 248.117 344.928 248.117ZM344.793 242.434C344.355 242.434 343.988 242.594 343.691 242.914C343.395 243.23 343.211 243.676 343.141 244.25H346.316V244.168C346.285 243.617 346.137 243.191 345.871 242.891C345.605 242.586 345.246 242.434 344.793 242.434ZM351.725 242.633C351.561 242.605 351.383 242.592 351.191 242.592C350.48 242.592 349.998 242.895 349.744 243.5V248H348.66V241.66H349.715L349.732 242.393C350.088 241.826 350.592 241.543 351.244 241.543C351.455 241.543 351.615 241.57 351.725 241.625V242.633ZM357.174 240.125V241.66H358.357V242.498H357.174V246.43C357.174 246.684 357.227 246.875 357.332 247.004C357.438 247.129 357.617 247.191 357.871 247.191C357.996 247.191 358.168 247.168 358.387 247.121V248C358.102 248.078 357.824 248.117 357.555 248.117C357.07 248.117 356.705 247.971 356.459 247.678C356.213 247.385 356.09 246.969 356.09 246.43V242.498H354.936V241.66H356.09V240.125H357.174ZM359.225 244.771C359.225 244.15 359.346 243.592 359.588 243.096C359.834 242.6 360.174 242.217 360.607 241.947C361.045 241.678 361.543 241.543 362.102 241.543C362.965 241.543 363.662 241.842 364.193 242.439C364.729 243.037 364.996 243.832 364.996 244.824V244.9C364.996 245.518 364.877 246.072 364.639 246.564C364.404 247.053 364.066 247.434 363.625 247.707C363.188 247.98 362.684 248.117 362.113 248.117C361.254 248.117 360.557 247.818 360.021 247.221C359.49 246.623 359.225 245.832 359.225 244.848V244.771ZM360.314 244.9C360.314 245.604 360.477 246.168 360.801 246.594C361.129 247.02 361.566 247.232 362.113 247.232C362.664 247.232 363.102 247.018 363.426 246.588C363.75 246.154 363.912 245.549 363.912 244.771C363.912 244.076 363.746 243.514 363.414 243.084C363.086 242.65 362.648 242.434 362.102 242.434C361.566 242.434 361.135 242.646 360.807 243.072C360.479 243.498 360.314 244.107 360.314 244.9ZM370.352 241.66L370.381 242.363C370.846 241.816 371.473 241.543 372.262 241.543C373.148 241.543 373.752 241.883 374.072 242.562C374.283 242.258 374.557 242.012 374.893 241.824C375.232 241.637 375.633 241.543 376.094 241.543C377.484 241.543 378.191 242.279 378.215 243.752V248H377.131V243.816C377.131 243.363 377.027 243.025 376.82 242.803C376.613 242.576 376.266 242.463 375.777 242.463C375.375 242.463 375.041 242.584 374.775 242.826C374.51 243.064 374.355 243.387 374.312 243.793V248H373.223V243.846C373.223 242.924 372.771 242.463 371.869 242.463C371.158 242.463 370.672 242.766 370.41 243.371V248H369.326V241.66H370.352ZM383.77 248C383.707 247.875 383.656 247.652 383.617 247.332C383.113 247.855 382.512 248.117 381.812 248.117C381.188 248.117 380.674 247.941 380.271 247.59C379.873 247.234 379.674 246.785 379.674 246.242C379.674 245.582 379.924 245.07 380.424 244.707C380.928 244.34 381.635 244.156 382.545 244.156H383.6V243.658C383.6 243.279 383.486 242.979 383.26 242.756C383.033 242.529 382.699 242.416 382.258 242.416C381.871 242.416 381.547 242.514 381.285 242.709C381.023 242.904 380.893 243.141 380.893 243.418H379.803C379.803 243.102 379.914 242.797 380.137 242.504C380.363 242.207 380.668 241.973 381.051 241.801C381.438 241.629 381.861 241.543 382.322 241.543C383.053 241.543 383.625 241.727 384.039 242.094C384.453 242.457 384.668 242.959 384.684 243.6V246.518C384.684 247.1 384.758 247.562 384.906 247.906V248H383.77ZM381.971 247.174C382.311 247.174 382.633 247.086 382.938 246.91C383.242 246.734 383.463 246.506 383.6 246.225V244.924H382.75C381.422 244.924 380.758 245.312 380.758 246.09C380.758 246.43 380.871 246.695 381.098 246.887C381.324 247.078 381.615 247.174 381.971 247.174ZM388.152 245.064L387.473 245.773V248H386.389V239H387.473V244.443L388.053 243.746L390.027 241.66H391.346L388.879 244.309L391.633 248H390.361L388.152 245.064ZM394.979 248.117C394.119 248.117 393.42 247.836 392.881 247.273C392.342 246.707 392.072 245.951 392.072 245.006V244.807C392.072 244.178 392.191 243.617 392.43 243.125C392.672 242.629 393.008 242.242 393.438 241.965C393.871 241.684 394.34 241.543 394.844 241.543C395.668 241.543 396.309 241.814 396.766 242.357C397.223 242.9 397.451 243.678 397.451 244.689V245.141H393.156C393.172 245.766 393.354 246.271 393.701 246.658C394.053 247.041 394.498 247.232 395.037 247.232C395.42 247.232 395.744 247.154 396.01 246.998C396.275 246.842 396.508 246.635 396.707 246.377L397.369 246.893C396.838 247.709 396.041 248.117 394.979 248.117ZM394.844 242.434C394.406 242.434 394.039 242.594 393.742 242.914C393.445 243.23 393.262 243.676 393.191 244.25H396.367V244.168C396.336 243.617 396.188 243.191 395.922 242.891C395.656 242.586 395.297 242.434 394.844 242.434ZM403.158 240.125V241.66H404.342V242.498H403.158V246.43C403.158 246.684 403.211 246.875 403.316 247.004C403.422 247.129 403.602 247.191 403.855 247.191C403.98 247.191 404.152 247.168 404.371 247.121V248C404.086 248.078 403.809 248.117 403.539 248.117C403.055 248.117 402.689 247.971 402.443 247.678C402.197 247.385 402.074 246.969 402.074 246.43V242.498H400.92V241.66H402.074V240.125H403.158ZM408.244 248.117C407.385 248.117 406.686 247.836 406.146 247.273C405.607 246.707 405.338 245.951 405.338 245.006V244.807C405.338 244.178 405.457 243.617 405.695 243.125C405.938 242.629 406.273 242.242 406.703 241.965C407.137 241.684 407.605 241.543 408.109 241.543C408.934 241.543 409.574 241.814 410.031 242.357C410.488 242.9 410.717 243.678 410.717 244.689V245.141H406.422C406.438 245.766 406.619 246.271 406.967 246.658C407.318 247.041 407.764 247.232 408.303 247.232C408.686 247.232 409.01 247.154 409.275 246.998C409.541 246.842 409.773 246.635 409.973 246.377L410.635 246.893C410.104 247.709 409.307 248.117 408.244 248.117ZM408.109 242.434C407.672 242.434 407.305 242.594 407.008 242.914C406.711 243.23 406.527 243.676 406.457 244.25H409.633V244.168C409.602 243.617 409.453 243.191 409.188 242.891C408.922 242.586 408.562 242.434 408.109 242.434ZM415.891 248C415.828 247.875 415.777 247.652 415.738 247.332C415.234 247.855 414.633 248.117 413.934 248.117C413.309 248.117 412.795 247.941 412.393 247.59C411.994 247.234 411.795 246.785 411.795 246.242C411.795 245.582 412.045 245.07 412.545 244.707C413.049 244.34 413.756 244.156 414.666 244.156H415.721V243.658C415.721 243.279 415.607 242.979 415.381 242.756C415.154 242.529 414.82 242.416 414.379 242.416C413.992 242.416 413.668 242.514 413.406 242.709C413.145 242.904 413.014 243.141 413.014 243.418H411.924C411.924 243.102 412.035 242.797 412.258 242.504C412.484 242.207 412.789 241.973 413.172 241.801C413.559 241.629 413.982 241.543 414.443 241.543C415.174 241.543 415.746 241.727 416.16 242.094C416.574 242.457 416.789 242.959 416.805 243.6V246.518C416.805 247.1 416.879 247.562 417.027 247.906V248H415.891ZM414.092 247.174C414.432 247.174 414.754 247.086 415.059 246.91C415.363 246.734 415.584 246.506 415.721 246.225V244.924H414.871C413.543 244.924 412.879 245.312 412.879 246.09C412.879 246.43 412.992 246.695 413.219 246.887C413.445 247.078 413.736 247.174 414.092 247.174ZM418.527 247.432C418.527 247.244 418.582 247.088 418.691 246.963C418.805 246.838 418.973 246.775 419.195 246.775C419.418 246.775 419.586 246.838 419.699 246.963C419.816 247.088 419.875 247.244 419.875 247.432C419.875 247.611 419.816 247.762 419.699 247.883C419.586 248.004 419.418 248.064 419.195 248.064C418.973 248.064 418.805 248.004 418.691 247.883C418.582 247.762 418.527 247.611 418.527 247.432Z" fill="black"/>
</svg>
