<svg width="99" height="111" viewBox="0 0 99 111" fill="none" xmlns="http://www.w3.org/2000/svg">
<g clip-path="url(#clip0)">
<path d="M93.5 46.5C93.5 70.7751 72.7073 90.5 47 90.5C21.2927 90.5 0.5 70.7751 0.5 46.5C0.5 22.2249 21.2927 2.5 47 2.5C72.7073 2.5 93.5 22.2249 93.5 46.5Z" fill="#FFF6A2" stroke="black"/>
<ellipse cx="34.5" cy="32" rx="5.5" ry="8" fill="black"/>
<ellipse cx="54.5" cy="32" rx="5.5" ry="8" fill="black"/>
<path d="M21.7152 49.9942C20.4061 50.5221 19.686 51.9477 20.1334 53.2865C22.1965 59.4614 25.6611 64.8009 30.1339 68.6539C35.1692 72.9913 41.2119 75.2119 47.3596 74.9841C53.5073 74.7563 59.43 72.0922 64.2431 67.3899C68.5139 63.2174 71.7077 57.6389 73.4651 51.3312C73.8477 49.958 73.0324 48.5609 71.6758 48.1232V48.1232C70.1098 47.6179 68.4601 48.582 67.9678 50.1521C66.5009 54.8304 64.0402 58.964 60.8218 62.1084C56.9367 65.904 52.1561 68.0543 47.1938 68.2382C42.2316 68.4221 37.3541 66.6297 33.2898 63.1286C29.9466 60.2488 27.3012 56.34 25.6057 51.8197C25.0164 50.2487 23.2714 49.3667 21.7152 49.9942V49.9942Z" fill="black"/>
<path d="M37.8047 106H36.4854L31.4746 98.3301V106H30.1553V96.0469H31.4746L36.499 103.751V96.0469H37.8047V106ZM45.7617 101.399H41.4482V104.927H46.459V106H40.1357V96.0469H46.3906V97.127H41.4482V100.326H45.7617V101.399ZM51.3398 99.8613L53.7256 96.0469H55.2705L52.126 100.982L55.3457 106H53.7871L51.3398 102.117L48.8789 106H47.3271L50.5537 100.982L47.4023 96.0469H48.9404L51.3398 99.8613ZM63.7471 97.127H60.5479V106H59.2422V97.127H56.0498V96.0469H63.7471V97.127Z" fill="black"/>
</g>
<defs>
<clipPath id="clip0">
<rect width="99" height="111" fill="white"/>
</clipPath>
</defs>
</svg>
