<svg width="99" height="111" viewBox="0 0 99 111" fill="none" xmlns="http://www.w3.org/2000/svg">
<g clip-path="url(#clip0)">
<path d="M93.5 46.5C93.5 70.7751 72.7073 90.5 47 90.5C21.2927 90.5 0.5 70.7751 0.5 46.5C0.5 22.2249 21.2927 2.5 47 2.5C72.7073 2.5 93.5 22.2249 93.5 46.5Z" fill="#FFF6A2" stroke="black"/>
<ellipse cx="34.5" cy="32" rx="5.5" ry="8" fill="black"/>
<ellipse cx="54.5" cy="32" rx="5.5" ry="8" fill="black"/>
<path d="M21.7152 49.9942C20.4061 50.5221 19.686 51.9477 20.1334 53.2865C22.1965 59.4614 25.6611 64.8009 30.1339 68.6539C35.1692 72.9913 41.2119 75.2119 47.3596 74.9841C53.5073 74.7563 59.43 72.0922 64.2431 67.3899C68.5139 63.2174 71.7077 57.6389 73.4651 51.3312C73.8477 49.958 73.0324 48.5609 71.6758 48.1232C70.1098 47.6179 68.4601 48.582 67.9678 50.1521C66.5009 54.8304 64.0402 58.964 60.8218 62.1084C56.9367 65.904 52.1561 68.0543 47.1938 68.2382C42.2316 68.4221 37.3541 66.6297 33.2898 63.1286C29.9466 60.2488 27.3012 56.34 25.6057 51.8197C25.0164 50.2487 23.2714 49.3667 21.7152 49.9942Z" fill="black"/>
<path d="M15.6445 103.604H11.4678V108H10.1553V98.0469H16.3213V99.127H11.4678V102.531H15.6445V103.604ZM19.3018 108H17.9893V98.0469H19.3018V108ZM29.3574 108H28.0381L23.0273 100.33V108H21.708V98.0469H23.0273L28.0518 105.751V98.0469H29.3574V108ZM31.6885 108V98.0469H34.498C35.3639 98.0469 36.1296 98.2383 36.7949 98.6211C37.4603 99.0039 37.973 99.5485 38.333 100.255C38.6976 100.961 38.8822 101.772 38.8867 102.688V103.324C38.8867 104.263 38.7044 105.086 38.3398 105.792C37.9798 106.498 37.4626 107.041 36.7881 107.419C36.1182 107.797 35.3366 107.991 34.4434 108H31.6885ZM33.001 99.127V106.927H34.3818C35.3936 106.927 36.1797 106.612 36.7402 105.983C37.3053 105.354 37.5879 104.459 37.5879 103.297V102.716C37.5879 101.586 37.3213 100.708 36.7881 100.084C36.2594 99.4551 35.5075 99.1361 34.5322 99.127H33.001ZM46.0439 98.0469L49.2979 106.168L52.5518 98.0469H54.2539V108H52.9414V104.124L53.0645 99.9404L49.7969 108H48.792L45.5312 99.9609L45.6611 104.124V108H44.3486V98.0469H46.0439ZM64.2275 103.345C64.2275 104.32 64.0635 105.172 63.7354 105.901C63.4072 106.626 62.9424 107.18 62.3408 107.562C61.7393 107.945 61.0374 108.137 60.2354 108.137C59.4515 108.137 58.7565 107.945 58.1504 107.562C57.5443 107.175 57.0726 106.626 56.7354 105.915C56.4027 105.2 56.2318 104.372 56.2227 103.434V102.716C56.2227 101.759 56.389 100.913 56.7217 100.18C57.0544 99.446 57.5238 98.8854 58.1299 98.498C58.7406 98.1061 59.4378 97.9102 60.2217 97.9102C61.0192 97.9102 61.721 98.1038 62.3271 98.4912C62.9378 98.874 63.4072 99.4323 63.7354 100.166C64.0635 100.895 64.2275 101.745 64.2275 102.716V103.345ZM62.9219 102.702C62.9219 101.522 62.6849 100.617 62.2109 99.9883C61.737 99.3548 61.0739 99.0381 60.2217 99.0381C59.3923 99.0381 58.7383 99.3548 58.2598 99.9883C57.7858 100.617 57.542 101.492 57.5283 102.613V103.345C57.5283 104.489 57.7676 105.389 58.2461 106.045C58.7292 106.697 59.3923 107.022 60.2354 107.022C61.083 107.022 61.7393 106.715 62.2041 106.1C62.6689 105.48 62.9082 104.593 62.9219 103.44V102.702ZM69.8467 103.974H67.5088V108H66.1895V98.0469H69.4844C70.6055 98.0469 71.4668 98.3021 72.0684 98.8125C72.6745 99.3229 72.9775 100.066 72.9775 101.041C72.9775 101.661 72.8089 102.201 72.4717 102.661C72.139 103.121 71.6742 103.465 71.0771 103.693L73.415 107.918V108H72.0068L69.8467 103.974ZM67.5088 102.9H69.5254C70.1771 102.9 70.6943 102.732 71.0771 102.395C71.4645 102.057 71.6582 101.606 71.6582 101.041C71.6582 100.426 71.4736 99.9541 71.1045 99.626C70.7399 99.2979 70.2113 99.1315 69.5186 99.127H67.5088V102.9ZM80.4492 103.399H76.1357V106.927H81.1465V108H74.8232V98.0469H81.0781V99.127H76.1357V102.326H80.4492V103.399Z" fill="black"/>
</g>
<defs>
<clipPath id="clip0">
<rect width="99" height="111" fill="white"/>
</clipPath>
</defs>
</svg>
