<svg width="246" height="323" viewBox="0 0 246 323" fill="none" xmlns="http://www.w3.org/2000/svg">
<ellipse cx="56" cy="274.5" rx="11" ry="11.5" fill="black" fill-opacity="0.74"/>
<path d="M222.735 76H26.4787C17.2873 76 10.2576 84.1913 11.6524 93.2762L44.0466 304.276C45.1703 311.596 51.4675 317 58.8728 317H192.968C200.442 317 206.776 311.497 207.821 304.095L237.588 93.0954C238.862 84.0671 231.853 76 222.735 76Z" fill="#E7D4BF" stroke="black"/>
<path d="M132 1L71 290L93 304L157 7L132 1Z" fill="#D8B0E6" stroke="black"/>
<path d="M6.04244 83.7377L14.0802 76.7377C14.6263 76.262 15.3261 76 16.0504 76H231.072C231.839 76 232.577 76.2939 233.135 76.8213L240.529 83.8213C242.499 85.6861 241.179 89 238.467 89H8.01269C5.23914 89 3.95088 85.5592 6.04244 83.7377Z" fill="#FFDBDB" stroke="black"/>
<ellipse cx="59" cy="292.5" rx="11" ry="11.5" fill="black" fill-opacity="0.74"/>
<ellipse cx="193" cy="236.5" rx="11" ry="11.5" fill="black" fill-opacity="0.74"/>
<ellipse cx="106" cy="247.5" rx="11" ry="11.5" fill="black" fill-opacity="0.74"/>
<ellipse cx="56" cy="240.5" rx="11" ry="11.5" fill="black" fill-opacity="0.74"/>
<ellipse cx="117" cy="292.5" rx="11" ry="11.5" fill="black" fill-opacity="0.74"/>
<ellipse cx="95" cy="279.5" rx="11" ry="11.5" fill="black" fill-opacity="0.74"/>
<ellipse cx="63" cy="266.5" rx="11" ry="11.5" fill="black" fill-opacity="0.74"/>
<ellipse cx="199" cy="279.5" rx="11" ry="11.5" fill="black" fill-opacity="0.74"/>
<ellipse cx="167" cy="279.5" rx="11" ry="11.5" fill="black" fill-opacity="0.74"/>
<ellipse cx="182" cy="263.5" rx="11" ry="11.5" fill="black" fill-opacity="0.74"/>
<ellipse cx="179" cy="297.5" rx="11" ry="11.5" fill="black" fill-opacity="0.74"/>
<ellipse cx="145" cy="279.5" rx="11" ry="11.5" fill="black" fill-opacity="0.74"/>
<ellipse cx="157" cy="258.5" rx="11" ry="11.5" fill="black" fill-opacity="0.74"/>
<ellipse cx="146" cy="303.5" rx="11" ry="11.5" fill="black" fill-opacity="0.74"/>
<ellipse cx="124" cy="269.5" rx="11" ry="11.5" fill="black" fill-opacity="0.74"/>
<ellipse cx="134" cy="251.5" rx="11" ry="11.5" fill="black" fill-opacity="0.74"/>
<ellipse cx="81" cy="297.5" rx="11" ry="11.5" fill="black" fill-opacity="0.74"/>
</svg>
