<svg width="98" height="93" viewBox="0 0 98 93" fill="none" xmlns="http://www.w3.org/2000/svg">
<path d="M93.5 44.5C93.5 68.7751 72.7073 88.5 47 88.5C21.2927 88.5 0.5 68.7751 0.5 44.5C0.5 20.2249 21.2927 0.5 47 0.5C72.7073 0.5 93.5 20.2249 93.5 44.5Z" fill="#FFF6A2" stroke="black"/>
<ellipse cx="34.5" cy="36" rx="5.5" ry="8" fill="black"/>
<ellipse cx="58.5" cy="36" rx="5.5" ry="8" fill="black"/>
<path d="M21.7152 52.9942C20.4061 53.5221 19.686 54.9477 20.1334 56.2865C22.1965 62.4614 25.6611 67.8009 30.1339 71.6539C35.1692 75.9913 41.2119 78.2119 47.3596 77.9841C53.5073 77.7563 59.43 75.0922 64.2431 70.3899C68.5139 66.2174 71.7077 60.6389 73.4651 54.3312C73.8477 52.958 73.0324 51.5609 71.6758 51.1232V51.1232C70.1098 50.6179 68.4601 51.582 67.9678 53.1521C66.5009 57.8304 64.0402 61.964 60.8218 65.1084C56.9367 68.904 52.1561 71.0543 47.1938 71.2382C42.2316 71.4221 37.3541 69.6297 33.2898 66.1286C29.9466 63.2488 27.3012 59.34 25.6057 54.8197C25.0164 53.2487 23.2714 52.3667 21.7152 52.9942V52.9942Z" fill="black"/>
</svg>
