<svg width="535" height="367" viewBox="0 0 535 367" fill="none" xmlns="http://www.w3.org/2000/svg">
<g clip-path="url(#clip0)">
<rect width="535" height="367" fill="#FFDD9C"/>
<circle cx="82.5" cy="261.5" r="9.5" fill="black" fill-opacity="0.74"/>
<path d="M217.732 98H60.4828C51.29 98 44.2599 106.194 45.657 115.28L71.7973 285.28C72.9226 292.598 79.2191 298 86.6231 298H193.711C201.184 298 207.518 292.499 208.563 285.099L232.584 115.099C233.86 106.069 226.851 98 217.732 98Z" fill="#C6A8D9" stroke="black"/>
<path d="M145.36 36L95 275.403L113.163 287L166 40.9703L145.36 36Z" fill="#CAF1F6" stroke="black"/>
<path d="M41.8996 103.757L47.5262 98.7575C48.0753 98.2695 48.7844 98 49.519 98H227.399C228.177 98 228.924 98.302 229.484 98.8422L234.66 103.842C236.601 105.717 235.274 109 232.576 109H43.8923C41.1336 109 39.8374 105.59 41.8996 103.757Z" fill="#FFDBDB" stroke="black"/>
<ellipse cx="124" cy="239.5" rx="9" ry="9.5" fill="black" fill-opacity="0.74"/>
<circle cx="82.5" cy="233.5" r="9.5" fill="black" fill-opacity="0.74"/>
<ellipse cx="115" cy="266.5" rx="9" ry="9.5" fill="black" fill-opacity="0.74"/>
<ellipse cx="88" cy="255.5" rx="9" ry="9.5" fill="black" fill-opacity="0.74"/>
<circle cx="174.5" cy="266.5" r="9.5" fill="black" fill-opacity="0.74"/>
<ellipse cx="156" cy="266.5" rx="9" ry="9.5" fill="black" fill-opacity="0.74"/>
<ellipse cx="166" cy="248.5" rx="9" ry="9.5" fill="black" fill-opacity="0.74"/>
<ellipse cx="130" cy="279.5" rx="9" ry="9.5" fill="black" fill-opacity="0.74"/>
<ellipse cx="138" cy="257.5" rx="9" ry="9.5" fill="black" fill-opacity="0.74"/>
<ellipse cx="165" cy="286.5" rx="9" ry="9.5" fill="black" fill-opacity="0.74"/>
<ellipse cx="193" cy="275.5" rx="9" ry="9.5" fill="black" fill-opacity="0.74"/>
<ellipse cx="95" cy="279.5" rx="9" ry="9.5" fill="black" fill-opacity="0.74"/>
<ellipse cx="194" cy="245.5" rx="9" ry="9.5" fill="black" fill-opacity="0.74"/>
<ellipse cx="147" cy="242.5" rx="9" ry="9.5" fill="black" fill-opacity="0.74"/>
<path d="M461.426 140.232L461.978 142.413C464.197 151.18 468.801 159.161 475.277 165.473L477.217 167.363C499.241 188.827 494.388 225.444 467.533 240.429C459.489 244.918 452.904 251.748 448.67 259.926C434.6 287.101 398.717 294.399 375.463 274.524L371.825 271.415C364.988 265.571 356.714 261.66 347.859 260.084L343.147 259.246C313.03 253.888 295.898 221.526 307.97 193.406C311.603 184.944 312.702 175.52 311.066 166.455C305.604 136.192 330.822 109.203 361.387 112.602L364.078 112.901C373.066 113.901 382.156 112.393 390.34 108.544L392.375 107.587C420.537 94.3444 453.788 110.065 461.426 140.232Z" fill="#FFFDD1" stroke="url(#paint0_linear)"/>
<path d="M326.582 146.25V149.32H328.949V150.996H326.582V158.859C326.582 159.367 326.688 159.75 326.898 160.008C327.109 160.258 327.469 160.383 327.977 160.383C328.227 160.383 328.57 160.336 329.008 160.242V162C328.438 162.156 327.883 162.234 327.344 162.234C326.375 162.234 325.645 161.941 325.152 161.355C324.66 160.77 324.414 159.938 324.414 158.859V150.996H322.105V149.32H324.414V146.25H326.582ZM339.32 162C339.195 161.75 339.094 161.305 339.016 160.664C338.008 161.711 336.805 162.234 335.406 162.234C334.156 162.234 333.129 161.883 332.324 161.18C331.527 160.469 331.129 159.57 331.129 158.484C331.129 157.164 331.629 156.141 332.629 155.414C333.637 154.68 335.051 154.312 336.871 154.312H338.98V153.316C338.98 152.559 338.754 151.957 338.301 151.512C337.848 151.059 337.18 150.832 336.297 150.832C335.523 150.832 334.875 151.027 334.352 151.418C333.828 151.809 333.566 152.281 333.566 152.836H331.387C331.387 152.203 331.609 151.594 332.055 151.008C332.508 150.414 333.117 149.945 333.883 149.602C334.656 149.258 335.504 149.086 336.426 149.086C337.887 149.086 339.031 149.453 339.859 150.188C340.688 150.914 341.117 151.918 341.148 153.199V159.035C341.148 160.199 341.297 161.125 341.594 161.812V162H339.32ZM335.723 160.348C336.402 160.348 337.047 160.172 337.656 159.82C338.266 159.469 338.707 159.012 338.98 158.449V155.848H337.281C334.625 155.848 333.297 156.625 333.297 158.18C333.297 158.859 333.523 159.391 333.977 159.773C334.43 160.156 335.012 160.348 335.723 160.348ZM350.676 151.266C350.348 151.211 349.992 151.184 349.609 151.184C348.188 151.184 347.223 151.789 346.715 153V162H344.547V149.32H346.656L346.691 150.785C347.402 149.652 348.41 149.086 349.715 149.086C350.137 149.086 350.457 149.141 350.676 149.25V151.266ZM351.871 155.543C351.871 154.301 352.113 153.184 352.598 152.191C353.09 151.199 353.77 150.434 354.637 149.895C355.512 149.355 356.508 149.086 357.625 149.086C359.352 149.086 360.746 149.684 361.809 150.879C362.879 152.074 363.414 153.664 363.414 155.648V155.801C363.414 157.035 363.176 158.145 362.699 159.129C362.23 160.105 361.555 160.867 360.672 161.414C359.797 161.961 358.789 162.234 357.648 162.234C355.93 162.234 354.535 161.637 353.465 160.441C352.402 159.246 351.871 157.664 351.871 155.695V155.543ZM354.051 155.801C354.051 157.207 354.375 158.336 355.023 159.188C355.68 160.039 356.555 160.465 357.648 160.465C358.75 160.465 359.625 160.035 360.273 159.176C360.922 158.309 361.246 157.098 361.246 155.543C361.246 154.152 360.914 153.027 360.25 152.168C359.594 151.301 358.719 150.867 357.625 150.867C356.555 150.867 355.691 151.293 355.035 152.145C354.379 152.996 354.051 154.215 354.051 155.801ZM325.575 167.664H324.27V179.094H325.575V180.133H322.998V166.625H325.575V167.664ZM328.392 168.812V170.604H329.772V171.581H328.392V176.168C328.392 176.464 328.453 176.688 328.576 176.838C328.699 176.984 328.909 177.057 329.205 177.057C329.351 177.057 329.551 177.029 329.807 176.975V178C329.474 178.091 329.15 178.137 328.836 178.137C328.271 178.137 327.845 177.966 327.558 177.624C327.271 177.282 327.127 176.797 327.127 176.168V171.581H325.78V170.604H327.127V168.812H328.392ZM335.822 178C335.749 177.854 335.69 177.594 335.645 177.221C335.057 177.831 334.355 178.137 333.539 178.137C332.81 178.137 332.211 177.932 331.741 177.521C331.276 177.107 331.044 176.583 331.044 175.949C331.044 175.179 331.336 174.582 331.919 174.158C332.507 173.73 333.332 173.516 334.394 173.516H335.624V172.935C335.624 172.493 335.492 172.142 335.228 171.882C334.963 171.618 334.574 171.485 334.059 171.485C333.607 171.485 333.229 171.599 332.924 171.827C332.618 172.055 332.466 172.331 332.466 172.654H331.194C331.194 172.285 331.324 171.93 331.584 171.588C331.848 171.242 332.204 170.968 332.65 170.768C333.102 170.567 333.596 170.467 334.134 170.467C334.986 170.467 335.654 170.681 336.137 171.109C336.62 171.533 336.87 172.119 336.889 172.866V176.271C336.889 176.95 336.975 177.49 337.148 177.891V178H335.822ZM333.724 177.036C334.12 177.036 334.496 176.934 334.852 176.729C335.207 176.523 335.465 176.257 335.624 175.929V174.411H334.633C333.083 174.411 332.309 174.865 332.309 175.771C332.309 176.168 332.441 176.478 332.705 176.701C332.969 176.924 333.309 177.036 333.724 177.036ZM340.136 171.499C340.696 170.811 341.425 170.467 342.323 170.467C343.886 170.467 344.675 171.349 344.688 173.112V178H343.424V173.105C343.419 172.572 343.296 172.178 343.055 171.923C342.818 171.668 342.446 171.54 341.94 171.54C341.53 171.54 341.17 171.649 340.86 171.868C340.55 172.087 340.309 172.374 340.136 172.729V178H338.871V167.5H340.136V171.499ZM350.157 171.738C349.966 171.706 349.758 171.69 349.535 171.69C348.706 171.69 348.143 172.044 347.847 172.75V178H346.582V170.604H347.812L347.833 171.458C348.248 170.797 348.836 170.467 349.597 170.467C349.843 170.467 350.03 170.499 350.157 170.562V171.738ZM353.958 174.288H350.622V173.256H353.958V174.288ZM354.86 174.233C354.86 173.509 355.002 172.857 355.284 172.278C355.571 171.7 355.968 171.253 356.474 170.938C356.984 170.624 357.565 170.467 358.217 170.467C359.224 170.467 360.037 170.815 360.657 171.513C361.282 172.21 361.594 173.137 361.594 174.295V174.384C361.594 175.104 361.455 175.751 361.177 176.325C360.903 176.895 360.509 177.339 359.994 177.658C359.484 177.977 358.896 178.137 358.23 178.137C357.228 178.137 356.414 177.788 355.79 177.091C355.17 176.394 354.86 175.471 354.86 174.322V174.233ZM356.132 174.384C356.132 175.204 356.321 175.863 356.699 176.359C357.082 176.856 357.592 177.104 358.23 177.104C358.873 177.104 359.383 176.854 359.762 176.353C360.14 175.847 360.329 175.14 360.329 174.233C360.329 173.422 360.135 172.766 359.748 172.265C359.365 171.759 358.855 171.506 358.217 171.506C357.592 171.506 357.089 171.754 356.706 172.251C356.323 172.748 356.132 173.459 356.132 174.384ZM364.444 171.499C365.005 170.811 365.734 170.467 366.632 170.467C368.195 170.467 368.983 171.349 368.997 173.112V178H367.732V173.105C367.728 172.572 367.605 172.178 367.363 171.923C367.126 171.668 366.755 171.54 366.249 171.54C365.839 171.54 365.479 171.649 365.169 171.868C364.859 172.087 364.618 172.374 364.444 172.729V178H363.18V167.5H364.444V171.499ZM369.995 166.625H372.579V180.133H369.995V179.094H371.314V167.664H369.995V166.625ZM386.647 170.604L386.709 171.458C387.238 170.797 387.946 170.467 388.835 170.467C389.619 170.467 390.202 170.697 390.585 171.157C390.968 171.618 391.164 172.306 391.173 173.222V178H389.197V173.27C389.197 172.85 389.106 172.547 388.924 172.36C388.742 172.169 388.438 172.073 388.015 172.073C387.459 172.073 387.042 172.31 386.764 172.784V178H384.788V170.604H386.647ZM392.369 174.233C392.369 173.5 392.51 172.846 392.793 172.271C393.076 171.697 393.481 171.253 394.01 170.938C394.543 170.624 395.16 170.467 395.862 170.467C396.86 170.467 397.674 170.772 398.303 171.383C398.936 171.993 399.289 172.823 399.362 173.871L399.376 174.377C399.376 175.512 399.059 176.423 398.426 177.111C397.792 177.795 396.942 178.137 395.876 178.137C394.81 178.137 393.957 177.795 393.319 177.111C392.686 176.428 392.369 175.498 392.369 174.322V174.233ZM394.345 174.377C394.345 175.079 394.477 175.617 394.741 175.99C395.006 176.359 395.384 176.544 395.876 176.544C396.354 176.544 396.728 176.362 396.997 175.997C397.266 175.628 397.4 175.04 397.4 174.233C397.4 173.545 397.266 173.012 396.997 172.634C396.728 172.256 396.35 172.066 395.862 172.066C395.379 172.066 395.006 172.256 394.741 172.634C394.477 173.007 394.345 173.589 394.345 174.377ZM405.022 177.248C404.535 177.84 403.86 178.137 402.999 178.137C402.206 178.137 401.6 177.909 401.181 177.453C400.766 176.997 400.554 176.33 400.545 175.45V170.604H402.521V175.382C402.521 176.152 402.871 176.537 403.573 176.537C404.243 176.537 404.703 176.305 404.954 175.84V170.604H406.937V178H405.077L405.022 177.248ZM410.245 170.604L410.307 171.458C410.835 170.797 411.544 170.467 412.433 170.467C413.216 170.467 413.8 170.697 414.183 171.157C414.565 171.618 414.761 172.306 414.771 173.222V178H412.795V173.27C412.795 172.85 412.704 172.547 412.521 172.36C412.339 172.169 412.036 172.073 411.612 172.073C411.056 172.073 410.639 172.31 410.361 172.784V178H408.386V170.604H410.245ZM326.097 204C326.038 203.834 326.001 203.588 325.984 203.263C325.779 203.53 325.517 203.736 325.198 203.883C324.882 204.026 324.547 204.098 324.192 204.098C323.685 204.098 323.273 203.956 322.957 203.673C322.645 203.39 322.488 203.032 322.488 202.599C322.488 202.084 322.701 201.677 323.128 201.378C323.558 201.078 324.155 200.929 324.92 200.929H325.979V200.328C325.979 199.951 325.862 199.654 325.628 199.439C325.397 199.221 325.058 199.112 324.612 199.112C324.205 199.112 323.868 199.216 323.602 199.425C323.335 199.633 323.201 199.884 323.201 200.177L322.615 200.172C322.615 199.752 322.811 199.389 323.201 199.083C323.592 198.774 324.072 198.619 324.642 198.619C325.231 198.619 325.695 198.767 326.033 199.063C326.375 199.356 326.551 199.767 326.561 200.294V202.794C326.561 203.305 326.614 203.688 326.722 203.941V204H326.097ZM324.261 203.58C324.651 203.58 325 203.486 325.306 203.297C325.615 203.108 325.84 202.856 325.979 202.54V201.378H324.935C324.352 201.384 323.896 201.492 323.567 201.7C323.239 201.905 323.074 202.188 323.074 202.55C323.074 202.846 323.183 203.092 323.401 203.287C323.623 203.482 323.909 203.58 324.261 203.58ZM331.463 197.364V198.717H332.557V199.195H331.463V202.716C331.463 203.009 331.515 203.227 331.619 203.37C331.727 203.513 331.904 203.585 332.151 203.585C332.249 203.585 332.407 203.569 332.625 203.536L332.649 204.015C332.496 204.07 332.288 204.098 332.024 204.098C331.624 204.098 331.333 203.982 331.15 203.751C330.968 203.517 330.877 203.173 330.877 202.721V199.195H329.905V198.717H330.877V197.364H331.463ZM336.209 199.215C336.085 199.192 335.953 199.181 335.813 199.181C335.449 199.181 335.14 199.283 334.886 199.488C334.635 199.69 334.456 199.985 334.349 200.372V204H333.768V198.717H334.339L334.349 199.557C334.658 198.932 335.154 198.619 335.838 198.619C336.001 198.619 336.129 198.64 336.224 198.683L336.209 199.215ZM336.717 201.28C336.717 200.772 336.814 200.315 337.01 199.908C337.208 199.501 337.487 199.186 337.845 198.961C338.206 198.733 338.615 198.619 339.07 198.619C339.773 198.619 340.343 198.867 340.779 199.361C341.215 199.853 341.434 200.506 341.434 201.319V201.441C341.434 201.952 341.334 202.413 341.136 202.823C340.94 203.23 340.664 203.544 340.306 203.766C339.948 203.987 339.539 204.098 339.08 204.098C338.38 204.098 337.811 203.852 337.371 203.36C336.935 202.866 336.717 202.211 336.717 201.397V201.28ZM337.303 201.441C337.303 202.073 337.465 202.592 337.791 202.999C338.12 203.403 338.549 203.604 339.08 203.604C339.607 203.604 340.034 203.403 340.359 202.999C340.688 202.592 340.853 202.057 340.853 201.393V201.28C340.853 200.877 340.778 200.507 340.628 200.172C340.478 199.837 340.268 199.578 339.998 199.396C339.728 199.21 339.419 199.117 339.07 199.117C338.549 199.117 338.125 199.322 337.796 199.732C337.467 200.139 337.303 200.673 337.303 201.334V201.441ZM346.893 201.412C346.893 202.236 346.71 202.89 346.346 203.375C345.981 203.857 345.493 204.098 344.881 204.098C344.158 204.098 343.605 203.844 343.221 203.336V206.031H342.64V198.717H343.182L343.211 199.464C343.592 198.901 344.144 198.619 344.866 198.619C345.498 198.619 345.993 198.858 346.351 199.337C346.712 199.815 346.893 200.479 346.893 201.329V201.412ZM346.307 201.31C346.307 200.636 346.168 200.104 345.892 199.713C345.615 199.322 345.229 199.127 344.734 199.127C344.376 199.127 344.069 199.213 343.812 199.386C343.554 199.558 343.357 199.809 343.221 200.138V202.672C343.361 202.975 343.561 203.206 343.821 203.365C344.082 203.525 344.389 203.604 344.744 203.604C345.236 203.604 345.618 203.409 345.892 203.019C346.168 202.625 346.307 202.055 346.307 201.31ZM348.846 204H348.26V198.717H348.846V204ZM348.157 197.188C348.157 197.078 348.193 196.985 348.265 196.91C348.336 196.832 348.434 196.793 348.558 196.793C348.681 196.793 348.779 196.832 348.851 196.91C348.925 196.985 348.963 197.078 348.963 197.188C348.963 197.299 348.925 197.392 348.851 197.467C348.779 197.542 348.681 197.579 348.558 197.579C348.434 197.579 348.336 197.542 348.265 197.467C348.193 197.392 348.157 197.299 348.157 197.188ZM352.391 203.604C352.798 203.604 353.138 203.491 353.411 203.263C353.688 203.032 353.838 202.734 353.86 202.369H354.422C354.406 202.691 354.305 202.986 354.119 203.253C353.934 203.517 353.686 203.723 353.377 203.873C353.071 204.023 352.742 204.098 352.391 204.098C351.697 204.098 351.147 203.857 350.74 203.375C350.337 202.893 350.135 202.245 350.135 201.432V201.256C350.135 200.735 350.226 200.274 350.408 199.874C350.59 199.474 350.851 199.164 351.189 198.946C351.531 198.728 351.93 198.619 352.386 198.619C352.965 198.619 353.442 198.792 353.816 199.137C354.194 199.482 354.396 199.936 354.422 200.499H353.86C353.834 200.086 353.685 199.752 353.411 199.498C353.141 199.244 352.799 199.117 352.386 199.117C351.858 199.117 351.448 199.308 351.155 199.688C350.866 200.069 350.721 200.603 350.721 201.29V201.461C350.721 202.135 350.866 202.66 351.155 203.038C351.448 203.416 351.86 203.604 352.391 203.604ZM358.929 204C358.87 203.834 358.833 203.588 358.816 203.263C358.611 203.53 358.349 203.736 358.03 203.883C357.715 204.026 357.379 204.098 357.024 204.098C356.517 204.098 356.105 203.956 355.789 203.673C355.477 203.39 355.32 203.032 355.32 202.599C355.32 202.084 355.534 201.677 355.96 201.378C356.39 201.078 356.987 200.929 357.752 200.929H358.812V200.328C358.812 199.951 358.694 199.654 358.46 199.439C358.229 199.221 357.89 199.112 357.444 199.112C357.037 199.112 356.701 199.216 356.434 199.425C356.167 199.633 356.033 199.884 356.033 200.177L355.447 200.172C355.447 199.752 355.643 199.389 356.033 199.083C356.424 198.774 356.904 198.619 357.474 198.619C358.063 198.619 358.527 198.767 358.865 199.063C359.207 199.356 359.383 199.767 359.393 200.294V202.794C359.393 203.305 359.446 203.688 359.554 203.941V204H358.929ZM357.093 203.58C357.483 203.58 357.832 203.486 358.138 203.297C358.447 203.108 358.672 202.856 358.812 202.54V201.378H357.767C357.184 201.384 356.728 201.492 356.399 201.7C356.071 201.905 355.906 202.188 355.906 202.55C355.906 202.846 356.015 203.092 356.233 203.287C356.455 203.482 356.741 203.58 357.093 203.58ZM361.609 204H361.023V196.5H361.609V204ZM368.968 204C368.909 203.834 368.872 203.588 368.855 203.263C368.65 203.53 368.388 203.736 368.069 203.883C367.754 204.026 367.418 204.098 367.063 204.098C366.556 204.098 366.144 203.956 365.828 203.673C365.516 203.39 365.359 203.032 365.359 202.599C365.359 202.084 365.573 201.677 365.999 201.378C366.429 201.078 367.026 200.929 367.791 200.929H368.851V200.328C368.851 199.951 368.733 199.654 368.499 199.439C368.268 199.221 367.929 199.112 367.483 199.112C367.076 199.112 366.74 199.216 366.473 199.425C366.206 199.633 366.072 199.884 366.072 200.177L365.486 200.172C365.486 199.752 365.682 199.389 366.072 199.083C366.463 198.774 366.943 198.619 367.513 198.619C368.102 198.619 368.566 198.767 368.904 199.063C369.246 199.356 369.422 199.767 369.432 200.294V202.794C369.432 203.305 369.485 203.688 369.593 203.941V204H368.968ZM367.132 203.58C367.522 203.58 367.871 203.486 368.177 203.297C368.486 203.108 368.711 202.856 368.851 202.54V201.378H367.806C367.223 201.384 366.767 201.492 366.438 201.7C366.11 201.905 365.945 202.188 365.945 202.55C365.945 202.846 366.054 203.092 366.272 203.287C366.494 203.482 366.78 203.58 367.132 203.58ZM374.158 202.657C374.158 202.368 374.041 202.135 373.807 201.959C373.576 201.783 373.226 201.646 372.757 201.549C372.288 201.448 371.924 201.334 371.663 201.207C371.406 201.077 371.214 200.919 371.087 200.733C370.963 200.548 370.901 200.323 370.901 200.06C370.901 199.643 371.076 199.299 371.424 199.029C371.772 198.756 372.218 198.619 372.762 198.619C373.351 198.619 373.823 198.766 374.178 199.059C374.536 199.348 374.715 199.728 374.715 200.196H374.129C374.129 199.887 373.999 199.63 373.738 199.425C373.481 199.22 373.156 199.117 372.762 199.117C372.378 199.117 372.068 199.203 371.834 199.376C371.603 199.545 371.487 199.767 371.487 200.04C371.487 200.304 371.583 200.509 371.775 200.655C371.971 200.799 372.324 200.93 372.835 201.051C373.349 201.171 373.733 201.3 373.987 201.437C374.244 201.573 374.435 201.738 374.559 201.93C374.682 202.122 374.744 202.354 374.744 202.628C374.744 203.074 374.563 203.43 374.202 203.697C373.844 203.964 373.375 204.098 372.796 204.098C372.181 204.098 371.681 203.95 371.297 203.653C370.916 203.354 370.726 202.976 370.726 202.521H371.312C371.334 202.862 371.478 203.129 371.741 203.321C372.008 203.51 372.36 203.604 372.796 203.604C373.203 203.604 373.532 203.515 373.782 203.336C374.033 203.157 374.158 202.931 374.158 202.657ZM376.717 204H376.131V198.717H376.717V204ZM376.028 197.188C376.028 197.078 376.064 196.985 376.136 196.91C376.207 196.832 376.305 196.793 376.429 196.793C376.552 196.793 376.65 196.832 376.722 196.91C376.797 196.985 376.834 197.078 376.834 197.188C376.834 197.299 376.797 197.392 376.722 197.467C376.65 197.542 376.552 197.579 376.429 197.579C376.305 197.579 376.207 197.542 376.136 197.467C376.064 197.392 376.028 197.299 376.028 197.188ZM381.644 204C381.585 203.834 381.548 203.588 381.531 203.263C381.326 203.53 381.064 203.736 380.745 203.883C380.429 204.026 380.094 204.098 379.739 204.098C379.231 204.098 378.82 203.956 378.504 203.673C378.191 203.39 378.035 203.032 378.035 202.599C378.035 202.084 378.248 201.677 378.675 201.378C379.104 201.078 379.702 200.929 380.467 200.929H381.526V200.328C381.526 199.951 381.409 199.654 381.175 199.439C380.944 199.221 380.605 199.112 380.159 199.112C379.752 199.112 379.415 199.216 379.148 199.425C378.882 199.633 378.748 199.884 378.748 200.177L378.162 200.172C378.162 199.752 378.357 199.389 378.748 199.083C379.139 198.774 379.619 198.619 380.188 198.619C380.778 198.619 381.242 198.767 381.58 199.063C381.922 199.356 382.098 199.767 382.107 200.294V202.794C382.107 203.305 382.161 203.688 382.269 203.941V204H381.644ZM379.808 203.58C380.198 203.58 380.547 203.486 380.853 203.297C381.162 203.108 381.386 202.856 381.526 202.54V201.378H380.481C379.899 201.384 379.443 201.492 379.114 201.7C378.785 201.905 378.621 202.188 378.621 202.55C378.621 202.846 378.73 203.092 378.948 203.287C379.17 203.482 379.456 203.58 379.808 203.58ZM384.227 198.717L384.246 199.62C384.445 199.295 384.692 199.047 384.988 198.878C385.285 198.705 385.612 198.619 385.97 198.619C386.536 198.619 386.958 198.779 387.234 199.098C387.511 199.417 387.651 199.895 387.654 200.533V204H387.073V200.528C387.07 200.056 386.969 199.705 386.771 199.474C386.575 199.243 386.261 199.127 385.828 199.127C385.467 199.127 385.146 199.241 384.866 199.469C384.59 199.693 384.384 199.998 384.251 200.382V204H383.67V198.717H384.227ZM395.848 201.412C395.848 202.236 395.665 202.89 395.301 203.375C394.936 203.857 394.448 204.098 393.836 204.098C393.113 204.098 392.56 203.844 392.176 203.336V206.031H391.595V198.717H392.137L392.166 199.464C392.547 198.901 393.099 198.619 393.821 198.619C394.453 198.619 394.948 198.858 395.306 199.337C395.667 199.815 395.848 200.479 395.848 201.329V201.412ZM395.262 201.31C395.262 200.636 395.123 200.104 394.847 199.713C394.57 199.322 394.184 199.127 393.689 199.127C393.331 199.127 393.024 199.213 392.767 199.386C392.509 199.558 392.312 199.809 392.176 200.138V202.672C392.316 202.975 392.516 203.206 392.776 203.365C393.037 203.525 393.344 203.604 393.699 203.604C394.191 203.604 394.573 203.409 394.847 203.019C395.123 202.625 395.262 202.055 395.262 201.31ZM397.801 204H397.215V196.5H397.801V204ZM402.728 204C402.669 203.834 402.632 203.588 402.615 203.263C402.41 203.53 402.148 203.736 401.829 203.883C401.513 204.026 401.178 204.098 400.823 204.098C400.315 204.098 399.904 203.956 399.588 203.673C399.275 203.39 399.119 203.032 399.119 202.599C399.119 202.084 399.332 201.677 399.759 201.378C400.188 201.078 400.786 200.929 401.551 200.929H402.61V200.328C402.61 199.951 402.493 199.654 402.259 199.439C402.028 199.221 401.689 199.112 401.243 199.112C400.836 199.112 400.499 199.216 400.232 199.425C399.965 199.633 399.832 199.884 399.832 200.177L399.246 200.172C399.246 199.752 399.441 199.389 399.832 199.083C400.223 198.774 400.703 198.619 401.272 198.619C401.862 198.619 402.326 198.767 402.664 199.063C403.006 199.356 403.182 199.767 403.191 200.294V202.794C403.191 203.305 403.245 203.688 403.353 203.941V204H402.728ZM400.892 203.58C401.282 203.58 401.631 203.486 401.937 203.297C402.246 203.108 402.47 202.856 402.61 202.54V201.378H401.565C400.983 201.384 400.527 201.492 400.198 201.7C399.869 201.905 399.705 202.188 399.705 202.55C399.705 202.846 399.814 203.092 400.032 203.287C400.254 203.482 400.54 203.58 400.892 203.58ZM405.311 198.717L405.33 199.62C405.529 199.295 405.776 199.047 406.072 198.878C406.368 198.705 406.696 198.619 407.054 198.619C407.62 198.619 408.042 198.779 408.318 199.098C408.595 199.417 408.735 199.895 408.738 200.533V204H408.157V200.528C408.154 200.056 408.053 199.705 407.854 199.474C407.659 199.243 407.345 199.127 406.912 199.127C406.551 199.127 406.23 199.241 405.95 199.469C405.674 199.693 405.468 199.998 405.335 200.382V204H404.754V198.717H405.311ZM411.16 197.364V198.717H412.254V199.195H411.16V202.716C411.16 203.009 411.212 203.227 411.316 203.37C411.424 203.513 411.601 203.585 411.849 203.585C411.946 203.585 412.104 203.569 412.322 203.536L412.347 204.015C412.194 204.07 411.985 204.098 411.722 204.098C411.321 204.098 411.03 203.982 410.848 203.751C410.665 203.517 410.574 203.173 410.574 202.721V199.195H409.603V198.717H410.574V197.364H411.16ZM417.161 202.784L417.249 203.238L417.366 202.76L418.636 198.717H419.134L420.389 202.726L420.525 203.282L420.638 202.77L421.722 198.717H422.327L420.789 204H420.291L418.934 199.811L418.87 199.522L418.807 199.815L417.474 204H416.976L415.442 198.717H416.043L417.161 202.784ZM424.09 204H423.504V198.717H424.09V204ZM423.401 197.188C423.401 197.078 423.437 196.985 423.509 196.91C423.58 196.832 423.678 196.793 423.802 196.793C423.925 196.793 424.023 196.832 424.095 196.91C424.17 196.985 424.207 197.078 424.207 197.188C424.207 197.299 424.17 197.392 424.095 197.467C424.023 197.542 423.925 197.579 423.802 197.579C423.678 197.579 423.58 197.542 423.509 197.467C423.437 197.392 423.401 197.299 423.401 197.188ZM426.59 197.364V198.717H427.684V199.195H426.59V202.716C426.59 203.009 426.642 203.227 426.746 203.37C426.854 203.513 427.031 203.585 427.278 203.585C427.376 203.585 427.534 203.569 427.752 203.536L427.776 204.015C427.623 204.07 427.415 204.098 427.151 204.098C426.751 204.098 426.46 203.982 426.277 203.751C426.095 203.517 426.004 203.173 426.004 202.721V199.195H425.032V198.717H426.004V197.364H426.59ZM429.476 199.61C429.668 199.295 429.913 199.05 430.213 198.878C430.512 198.705 430.84 198.619 431.194 198.619C431.761 198.619 432.182 198.779 432.459 199.098C432.736 199.417 432.876 199.895 432.879 200.533V204H432.298V200.528C432.295 200.056 432.194 199.705 431.995 199.474C431.8 199.243 431.486 199.127 431.053 199.127C430.691 199.127 430.371 199.241 430.091 199.469C429.814 199.693 429.609 199.998 429.476 200.382V204H428.895V196.5H429.476V199.61ZM437.469 204H436.883V196.5H437.469V204ZM442.396 204C442.337 203.834 442.299 203.588 442.283 203.263C442.078 203.53 441.816 203.736 441.497 203.883C441.181 204.026 440.846 204.098 440.491 204.098C439.983 204.098 439.572 203.956 439.256 203.673C438.943 203.39 438.787 203.032 438.787 202.599C438.787 202.084 439 201.677 439.427 201.378C439.856 201.078 440.454 200.929 441.219 200.929H442.278V200.328C442.278 199.951 442.161 199.654 441.927 199.439C441.696 199.221 441.357 199.112 440.911 199.112C440.504 199.112 440.167 199.216 439.9 199.425C439.633 199.633 439.5 199.884 439.5 200.177L438.914 200.172C438.914 199.752 439.109 199.389 439.5 199.083C439.891 198.774 440.371 198.619 440.94 198.619C441.53 198.619 441.993 198.767 442.332 199.063C442.674 199.356 442.85 199.767 442.859 200.294V202.794C442.859 203.305 442.913 203.688 443.021 203.941V204H442.396ZM440.56 203.58C440.95 203.58 441.299 203.486 441.604 203.297C441.914 203.108 442.138 202.856 442.278 202.54V201.378H441.233C440.651 201.384 440.195 201.492 439.866 201.7C439.537 201.905 439.373 202.188 439.373 202.55C439.373 202.846 439.482 203.092 439.7 203.287C439.922 203.482 440.208 203.58 440.56 203.58ZM446.863 199.215C446.74 199.192 446.608 199.181 446.468 199.181C446.103 199.181 445.794 199.283 445.54 199.488C445.289 199.69 445.11 199.985 445.003 200.372V204H444.422V198.717H444.993L445.003 199.557C445.312 198.932 445.809 198.619 446.492 198.619C446.655 198.619 446.784 198.64 446.878 198.683L446.863 199.215ZM447.459 201.31C447.459 200.483 447.641 199.828 448.006 199.347C448.374 198.862 448.872 198.619 449.5 198.619C450.219 198.619 450.766 198.906 451.141 199.479L451.17 198.717H451.717V203.893C451.717 204.573 451.526 205.112 451.146 205.509C450.765 205.906 450.249 206.104 449.598 206.104C449.23 206.104 448.878 206.021 448.543 205.855C448.211 205.693 447.949 205.475 447.757 205.201L448.084 204.85C448.497 205.357 448.989 205.611 449.559 205.611C450.047 205.611 450.428 205.466 450.701 205.177C450.975 204.89 451.116 204.492 451.126 203.98V203.316C450.752 203.837 450.206 204.098 449.49 204.098C448.878 204.098 448.387 203.854 448.016 203.365C447.645 202.877 447.459 202.218 447.459 201.388V201.31ZM448.05 201.412C448.05 202.086 448.185 202.618 448.455 203.009C448.725 203.396 449.106 203.59 449.598 203.59C450.317 203.59 450.826 203.268 451.126 202.623V200.167C450.989 199.828 450.792 199.571 450.535 199.396C450.278 199.216 449.969 199.127 449.607 199.127C449.116 199.127 448.733 199.321 448.46 199.708C448.187 200.092 448.05 200.66 448.05 201.412ZM455.286 204.098C454.837 204.098 454.43 203.987 454.065 203.766C453.704 203.544 453.423 203.237 453.221 202.843C453.019 202.446 452.918 202.001 452.918 201.51V201.3C452.918 200.792 453.016 200.335 453.211 199.928C453.41 199.521 453.685 199.202 454.036 198.971C454.388 198.736 454.769 198.619 455.179 198.619C455.82 198.619 456.328 198.839 456.702 199.278C457.08 199.715 457.269 200.312 457.269 201.07V201.397H453.499V201.51C453.499 202.109 453.67 202.608 454.012 203.009C454.357 203.406 454.79 203.604 455.311 203.604C455.623 203.604 455.898 203.548 456.136 203.434C456.377 203.32 456.595 203.137 456.79 202.887L457.156 203.165C456.727 203.787 456.103 204.098 455.286 204.098ZM455.179 199.117C454.739 199.117 454.368 199.278 454.065 199.601C453.766 199.923 453.584 200.356 453.519 200.899H456.688V200.836C456.671 200.328 456.526 199.915 456.253 199.596C455.979 199.277 455.621 199.117 455.179 199.117ZM461.492 204H460.906V196.5H461.492V204ZM465.13 204.098C464.681 204.098 464.274 203.987 463.909 203.766C463.548 203.544 463.266 203.237 463.064 202.843C462.863 202.446 462.762 202.001 462.762 201.51V201.3C462.762 200.792 462.859 200.335 463.055 199.928C463.253 199.521 463.528 199.202 463.88 198.971C464.231 198.736 464.612 198.619 465.022 198.619C465.664 198.619 466.172 198.839 466.546 199.278C466.924 199.715 467.112 200.312 467.112 201.07V201.397H463.343V201.51C463.343 202.109 463.514 202.608 463.855 203.009C464.201 203.406 464.633 203.604 465.154 203.604C465.467 203.604 465.742 203.548 465.979 203.434C466.22 203.32 466.438 203.137 466.634 202.887L467 203.165C466.57 203.787 465.947 204.098 465.13 204.098ZM465.022 199.117C464.583 199.117 464.212 199.278 463.909 199.601C463.61 199.923 463.427 200.356 463.362 200.899H466.531V200.836C466.515 200.328 466.37 199.915 466.097 199.596C465.823 199.277 465.465 199.117 465.022 199.117ZM471.585 204C471.526 203.834 471.489 203.588 471.473 203.263C471.268 203.53 471.006 203.736 470.687 203.883C470.371 204.026 470.035 204.098 469.681 204.098C469.173 204.098 468.761 203.956 468.445 203.673C468.133 203.39 467.977 203.032 467.977 202.599C467.977 202.084 468.19 201.677 468.616 201.378C469.046 201.078 469.643 200.929 470.408 200.929H471.468V200.328C471.468 199.951 471.351 199.654 471.116 199.439C470.885 199.221 470.547 199.112 470.101 199.112C469.694 199.112 469.357 199.216 469.09 199.425C468.823 199.633 468.689 199.884 468.689 200.177L468.104 200.172C468.104 199.752 468.299 199.389 468.689 199.083C469.08 198.774 469.56 198.619 470.13 198.619C470.719 198.619 471.183 198.767 471.521 199.063C471.863 199.356 472.039 199.767 472.049 200.294V202.794C472.049 203.305 472.103 203.688 472.21 203.941V204H471.585ZM469.749 203.58C470.14 203.58 470.488 203.486 470.794 203.297C471.103 203.108 471.328 202.856 471.468 202.54V201.378H470.423C469.84 201.384 469.384 201.492 469.056 201.7C468.727 201.905 468.562 202.188 468.562 202.55C468.562 202.846 468.672 203.092 468.89 203.287C469.111 203.482 469.397 203.58 469.749 203.58ZM475.179 203.194L476.785 198.717H477.386L475.413 204H474.939L472.957 198.717H473.558L475.179 203.194ZM480.325 204.098C479.876 204.098 479.469 203.987 479.104 203.766C478.743 203.544 478.462 203.237 478.26 202.843C478.058 202.446 477.957 202.001 477.957 201.51V201.3C477.957 200.792 478.055 200.335 478.25 199.928C478.449 199.521 478.724 199.202 479.075 198.971C479.427 198.736 479.808 198.619 480.218 198.619C480.859 198.619 481.367 198.839 481.741 199.278C482.119 199.715 482.308 200.312 482.308 201.07V201.397H478.538V201.51C478.538 202.109 478.709 202.608 479.051 203.009C479.396 203.406 479.829 203.604 480.35 203.604C480.662 203.604 480.937 203.548 481.175 203.434C481.416 203.32 481.634 203.137 481.829 202.887L482.195 203.165C481.766 203.787 481.142 204.098 480.325 204.098ZM480.218 199.117C479.778 199.117 479.407 199.278 479.104 199.601C478.805 199.923 478.623 200.356 478.558 200.899H481.727V200.836C481.71 200.328 481.565 199.915 481.292 199.596C481.019 199.277 480.66 199.117 480.218 199.117ZM486.609 202.657C486.609 202.368 486.492 202.135 486.258 201.959C486.027 201.783 485.677 201.646 485.208 201.549C484.739 201.448 484.375 201.334 484.114 201.207C483.857 201.077 483.665 200.919 483.538 200.733C483.414 200.548 483.353 200.323 483.353 200.06C483.353 199.643 483.527 199.299 483.875 199.029C484.223 198.756 484.669 198.619 485.213 198.619C485.802 198.619 486.274 198.766 486.629 199.059C486.987 199.348 487.166 199.728 487.166 200.196H486.58C486.58 199.887 486.45 199.63 486.189 199.425C485.932 199.22 485.607 199.117 485.213 199.117C484.829 199.117 484.52 199.203 484.285 199.376C484.054 199.545 483.938 199.767 483.938 200.04C483.938 200.304 484.035 200.509 484.227 200.655C484.422 200.799 484.775 200.93 485.286 201.051C485.8 201.171 486.185 201.3 486.438 201.437C486.696 201.573 486.886 201.738 487.01 201.93C487.133 202.122 487.195 202.354 487.195 202.628C487.195 203.074 487.015 203.43 486.653 203.697C486.295 203.964 485.826 204.098 485.247 204.098C484.632 204.098 484.132 203.95 483.748 203.653C483.367 203.354 483.177 202.976 483.177 202.521H483.763C483.785 202.862 483.929 203.129 484.192 203.321C484.459 203.51 484.811 203.604 485.247 203.604C485.654 203.604 485.983 203.515 486.233 203.336C486.484 203.157 486.609 202.931 486.609 202.657ZM323.182 216V211.195H322.308V210.717H323.182V210.077C323.182 209.537 323.318 209.122 323.592 208.832C323.868 208.542 324.253 208.397 324.744 208.397C324.965 208.397 325.172 208.425 325.364 208.48L325.32 208.969C325.158 208.93 324.98 208.91 324.788 208.91C324.466 208.91 324.215 209.011 324.036 209.213C323.857 209.411 323.768 209.695 323.768 210.062V210.717H325.027V211.195H323.768V216H323.182ZM328.514 211.215C328.39 211.192 328.258 211.181 328.118 211.181C327.754 211.181 327.444 211.283 327.19 211.488C326.94 211.69 326.761 211.985 326.653 212.372V216H326.072V210.717H326.644L326.653 211.557C326.963 210.932 327.459 210.619 328.143 210.619C328.305 210.619 328.434 210.64 328.528 210.683L328.514 211.215ZM329.021 213.28C329.021 212.772 329.119 212.315 329.314 211.908C329.513 211.501 329.791 211.186 330.149 210.961C330.511 210.733 330.919 210.619 331.375 210.619C332.078 210.619 332.648 210.867 333.084 211.361C333.52 211.853 333.738 212.506 333.738 213.319V213.441C333.738 213.952 333.639 214.413 333.44 214.823C333.245 215.23 332.968 215.544 332.61 215.766C332.252 215.987 331.844 216.098 331.385 216.098C330.685 216.098 330.115 215.852 329.676 215.36C329.24 214.866 329.021 214.211 329.021 213.397V213.28ZM329.607 213.441C329.607 214.073 329.77 214.592 330.096 214.999C330.424 215.403 330.854 215.604 331.385 215.604C331.912 215.604 332.339 215.403 332.664 214.999C332.993 214.592 333.157 214.057 333.157 213.393V213.28C333.157 212.877 333.082 212.507 332.933 212.172C332.783 211.837 332.573 211.578 332.303 211.396C332.033 211.21 331.723 211.117 331.375 211.117C330.854 211.117 330.429 211.322 330.101 211.732C329.772 212.139 329.607 212.673 329.607 213.334V213.441ZM335.481 210.717L335.501 211.576C335.696 211.257 335.94 211.018 336.233 210.858C336.526 210.699 336.852 210.619 337.21 210.619C338.043 210.619 338.572 210.961 338.797 211.645C338.986 211.316 339.238 211.063 339.554 210.888C339.869 210.709 340.218 210.619 340.599 210.619C341.731 210.619 342.309 211.238 342.332 212.475V216H341.746V212.519C341.743 212.047 341.64 211.697 341.438 211.469C341.24 211.241 340.914 211.127 340.462 211.127C340.042 211.133 339.687 211.27 339.397 211.537C339.108 211.801 338.947 212.123 338.914 212.504V216H338.328V212.475C338.325 212.022 338.217 211.685 338.006 211.464C337.798 211.239 337.475 211.127 337.039 211.127C336.671 211.127 336.355 211.233 336.092 211.444C335.828 211.653 335.633 211.964 335.506 212.377V216H334.92V210.717H335.481ZM347.156 209.364V210.717H348.25V211.195H347.156V214.716C347.156 215.009 347.208 215.227 347.312 215.37C347.42 215.513 347.597 215.585 347.845 215.585C347.942 215.585 348.1 215.569 348.318 215.536L348.343 216.015C348.19 216.07 347.981 216.098 347.718 216.098C347.317 216.098 347.026 215.982 346.844 215.751C346.661 215.517 346.57 215.173 346.57 214.721V211.195H345.599V210.717H346.57V209.364H347.156ZM350.042 211.61C350.234 211.295 350.48 211.05 350.779 210.878C351.079 210.705 351.406 210.619 351.761 210.619C352.327 210.619 352.749 210.779 353.025 211.098C353.302 211.417 353.442 211.895 353.445 212.533V216H352.864V212.528C352.861 212.056 352.76 211.705 352.562 211.474C352.366 211.243 352.052 211.127 351.619 211.127C351.258 211.127 350.937 211.241 350.657 211.469C350.381 211.693 350.175 211.998 350.042 212.382V216H349.461V208.5H350.042V211.61ZM356.995 216.098C356.546 216.098 356.139 215.987 355.774 215.766C355.413 215.544 355.132 215.237 354.93 214.843C354.728 214.446 354.627 214.001 354.627 213.51V213.3C354.627 212.792 354.725 212.335 354.92 211.928C355.118 211.521 355.394 211.202 355.745 210.971C356.097 210.736 356.478 210.619 356.888 210.619C357.529 210.619 358.037 210.839 358.411 211.278C358.789 211.715 358.978 212.312 358.978 213.07V213.397H355.208V213.51C355.208 214.109 355.379 214.608 355.721 215.009C356.066 215.406 356.499 215.604 357.02 215.604C357.332 215.604 357.607 215.548 357.845 215.434C358.086 215.32 358.304 215.137 358.499 214.887L358.865 215.165C358.436 215.787 357.812 216.098 356.995 216.098ZM356.888 211.117C356.448 211.117 356.077 211.278 355.774 211.601C355.475 211.923 355.293 212.356 355.228 212.899H358.396V212.836C358.38 212.328 358.235 211.915 357.962 211.596C357.688 211.277 357.33 211.117 356.888 211.117ZM365.882 216C365.823 215.834 365.786 215.588 365.77 215.263C365.564 215.53 365.302 215.736 364.983 215.883C364.668 216.026 364.332 216.098 363.978 216.098C363.47 216.098 363.058 215.956 362.742 215.673C362.43 215.39 362.273 215.032 362.273 214.599C362.273 214.084 362.487 213.677 362.913 213.378C363.343 213.078 363.94 212.929 364.705 212.929H365.765V212.328C365.765 211.951 365.647 211.654 365.413 211.439C365.182 211.221 364.843 211.112 364.397 211.112C363.991 211.112 363.654 211.216 363.387 211.425C363.12 211.633 362.986 211.884 362.986 212.177L362.4 212.172C362.4 211.752 362.596 211.389 362.986 211.083C363.377 210.774 363.857 210.619 364.427 210.619C365.016 210.619 365.48 210.767 365.818 211.063C366.16 211.356 366.336 211.767 366.346 212.294V214.794C366.346 215.305 366.399 215.688 366.507 215.941V216H365.882ZM364.046 215.58C364.437 215.58 364.785 215.486 365.091 215.297C365.4 215.108 365.625 214.856 365.765 214.54V213.378H364.72C364.137 213.384 363.681 213.492 363.353 213.7C363.024 213.905 362.859 214.188 362.859 214.55C362.859 214.846 362.968 215.092 363.187 215.287C363.408 215.482 363.694 215.58 364.046 215.58ZM370.35 211.215C370.226 211.192 370.094 211.181 369.954 211.181C369.59 211.181 369.28 211.283 369.026 211.488C368.776 211.69 368.597 211.985 368.489 212.372V216H367.908V210.717H368.479L368.489 211.557C368.799 210.932 369.295 210.619 369.979 210.619C370.141 210.619 370.27 210.64 370.364 210.683L370.35 211.215ZM374.676 215.331C374.324 215.842 373.763 216.098 372.991 216.098C372.428 216.098 372 215.935 371.707 215.609C371.414 215.281 371.264 214.796 371.258 214.154V210.717H371.839V214.081C371.839 215.087 372.246 215.59 373.06 215.59C373.906 215.59 374.441 215.24 374.666 214.54V210.717H375.252V216H374.686L374.676 215.331ZM377.308 210.717L377.327 211.576C377.522 211.257 377.767 211.018 378.06 210.858C378.353 210.699 378.678 210.619 379.036 210.619C379.869 210.619 380.398 210.961 380.623 211.645C380.812 211.316 381.064 211.063 381.38 210.888C381.696 210.709 382.044 210.619 382.425 210.619C383.558 210.619 384.135 211.238 384.158 212.475V216H383.572V212.519C383.569 212.047 383.466 211.697 383.265 211.469C383.066 211.241 382.741 211.127 382.288 211.127C381.868 211.133 381.513 211.27 381.224 211.537C380.934 211.801 380.773 212.123 380.74 212.504V216H380.154V212.475C380.151 212.022 380.044 211.685 379.832 211.464C379.624 211.239 379.301 211.127 378.865 211.127C378.497 211.127 378.182 211.233 377.918 211.444C377.654 211.653 377.459 211.964 377.332 212.377V216H376.746V210.717H377.308ZM388.494 216V211.195H387.62V210.717H388.494V210.077C388.494 209.537 388.631 209.122 388.904 208.832C389.181 208.542 389.565 208.397 390.057 208.397C390.278 208.397 390.485 208.425 390.677 208.48L390.633 208.969C390.47 208.93 390.293 208.91 390.101 208.91C389.778 208.91 389.528 209.011 389.349 209.213C389.17 209.411 389.08 209.695 389.08 210.062V210.717H390.34V211.195H389.08V216H388.494ZM394.72 216C394.661 215.834 394.624 215.588 394.607 215.263C394.402 215.53 394.14 215.736 393.821 215.883C393.506 216.026 393.17 216.098 392.815 216.098C392.308 216.098 391.896 215.956 391.58 215.673C391.268 215.39 391.111 215.032 391.111 214.599C391.111 214.084 391.325 213.677 391.751 213.378C392.181 213.078 392.778 212.929 393.543 212.929H394.603V212.328C394.603 211.951 394.485 211.654 394.251 211.439C394.02 211.221 393.681 211.112 393.235 211.112C392.828 211.112 392.492 211.216 392.225 211.425C391.958 211.633 391.824 211.884 391.824 212.177L391.238 212.172C391.238 211.752 391.434 211.389 391.824 211.083C392.215 210.774 392.695 210.619 393.265 210.619C393.854 210.619 394.318 210.767 394.656 211.063C394.998 211.356 395.174 211.767 395.184 212.294V214.794C395.184 215.305 395.237 215.688 395.345 215.941V216H394.72ZM392.884 215.58C393.274 215.58 393.623 215.486 393.929 215.297C394.238 215.108 394.463 214.856 394.603 214.54V213.378H393.558C392.975 213.384 392.519 213.492 392.19 213.7C391.862 213.905 391.697 214.188 391.697 214.55C391.697 214.846 391.806 215.092 392.024 215.287C392.246 215.482 392.532 215.58 392.884 215.58ZM397.278 210.717L397.298 211.576C397.493 211.257 397.737 211.018 398.03 210.858C398.323 210.699 398.649 210.619 399.007 210.619C399.84 210.619 400.369 210.961 400.594 211.645C400.783 211.316 401.035 211.063 401.351 210.888C401.666 210.709 402.015 210.619 402.396 210.619C403.528 210.619 404.106 211.238 404.129 212.475V216H403.543V212.519C403.54 212.047 403.437 211.697 403.235 211.469C403.037 211.241 402.711 211.127 402.259 211.127C401.839 211.133 401.484 211.27 401.194 211.537C400.905 211.801 400.743 212.123 400.711 212.504V216H400.125V212.475C400.122 212.022 400.014 211.685 399.803 211.464C399.594 211.239 399.272 211.127 398.836 211.127C398.468 211.127 398.152 211.233 397.889 211.444C397.625 211.653 397.43 211.964 397.303 212.377V216H396.717V210.717H397.278ZM406.268 216H405.682V210.717H406.268V216ZM405.579 209.188C405.579 209.078 405.615 208.985 405.687 208.91C405.758 208.832 405.856 208.793 405.979 208.793C406.103 208.793 406.201 208.832 406.272 208.91C406.347 208.985 406.385 209.078 406.385 209.188C406.385 209.299 406.347 209.392 406.272 209.467C406.201 209.542 406.103 209.579 405.979 209.579C405.856 209.579 405.758 209.542 405.687 209.467C405.615 209.392 405.579 209.299 405.579 209.188ZM408.514 216H407.928V208.5H408.514V216ZM411.78 215.16L413.323 210.717H413.953L411.697 216.898L411.58 217.172C411.29 217.813 410.843 218.134 410.237 218.134C410.097 218.134 409.948 218.111 409.788 218.065L409.783 217.582L410.086 217.611C410.372 217.611 410.604 217.54 410.779 217.396C410.958 217.257 411.11 217.014 411.233 216.669L411.492 215.956L409.5 210.717H410.14L411.78 215.16ZM414.28 215.648C414.28 215.535 414.316 215.438 414.388 215.36C414.463 215.279 414.565 215.238 414.695 215.238C414.826 215.238 414.928 215.279 415.003 215.36C415.078 215.438 415.115 215.535 415.115 215.648C415.115 215.762 415.078 215.857 415.003 215.932C414.928 216.003 414.826 216.039 414.695 216.039C414.565 216.039 414.463 216.003 414.388 215.932C414.316 215.857 414.28 215.762 414.28 215.648ZM423.924 209.403H421.487V216H420.887V209.403H418.455V208.891H423.924V209.403ZM425.521 211.61C425.713 211.295 425.958 211.05 426.258 210.878C426.557 210.705 426.884 210.619 427.239 210.619C427.806 210.619 428.227 210.779 428.504 211.098C428.781 211.417 428.921 211.895 428.924 212.533V216H428.343V212.528C428.34 212.056 428.239 211.705 428.04 211.474C427.845 211.243 427.531 211.127 427.098 211.127C426.736 211.127 426.416 211.241 426.136 211.469C425.859 211.693 425.654 211.998 425.521 212.382V216H424.939V208.5H425.521V211.61ZM432.474 216.098C432.024 216.098 431.618 215.987 431.253 215.766C430.892 215.544 430.61 215.237 430.408 214.843C430.206 214.446 430.105 214.001 430.105 213.51V213.3C430.105 212.792 430.203 212.335 430.398 211.928C430.597 211.521 430.872 211.202 431.224 210.971C431.575 210.736 431.956 210.619 432.366 210.619C433.007 210.619 433.515 210.839 433.89 211.278C434.267 211.715 434.456 212.312 434.456 213.07V213.397H430.687V213.51C430.687 214.109 430.857 214.608 431.199 215.009C431.544 215.406 431.977 215.604 432.498 215.604C432.811 215.604 433.086 215.548 433.323 215.434C433.564 215.32 433.782 215.137 433.978 214.887L434.344 215.165C433.914 215.787 433.291 216.098 432.474 216.098ZM432.366 211.117C431.927 211.117 431.556 211.278 431.253 211.601C430.953 211.923 430.771 212.356 430.706 212.899H433.875V212.836C433.859 212.328 433.714 211.915 433.44 211.596C433.167 211.277 432.809 211.117 432.366 211.117ZM438.934 209.364V210.717H440.027V211.195H438.934V214.716C438.934 215.009 438.986 215.227 439.09 215.37C439.197 215.513 439.375 215.585 439.622 215.585C439.72 215.585 439.878 215.569 440.096 215.536L440.12 216.015C439.967 216.07 439.759 216.098 439.495 216.098C439.095 216.098 438.803 215.982 438.621 215.751C438.439 215.517 438.348 215.173 438.348 214.721V211.195H437.376V210.717H438.348V209.364H438.934ZM444.573 216C444.515 215.834 444.477 215.588 444.461 215.263C444.256 215.53 443.994 215.736 443.675 215.883C443.359 216.026 443.024 216.098 442.669 216.098C442.161 216.098 441.749 215.956 441.434 215.673C441.121 215.39 440.965 215.032 440.965 214.599C440.965 214.084 441.178 213.677 441.604 213.378C442.034 213.078 442.632 212.929 443.396 212.929H444.456V212.328C444.456 211.951 444.339 211.654 444.104 211.439C443.873 211.221 443.535 211.112 443.089 211.112C442.682 211.112 442.345 211.216 442.078 211.425C441.811 211.633 441.678 211.884 441.678 212.177L441.092 212.172C441.092 211.752 441.287 211.389 441.678 211.083C442.068 210.774 442.549 210.619 443.118 210.619C443.707 210.619 444.171 210.767 444.51 211.063C444.852 211.356 445.027 211.767 445.037 212.294V214.794C445.037 215.305 445.091 215.688 445.198 215.941V216H444.573ZM442.737 215.58C443.128 215.58 443.476 215.486 443.782 215.297C444.091 215.108 444.316 214.856 444.456 214.54V213.378H443.411C442.828 213.384 442.373 213.492 442.044 213.7C441.715 213.905 441.551 214.188 441.551 214.55C441.551 214.846 441.66 215.092 441.878 215.287C442.099 215.482 442.386 215.58 442.737 215.58ZM449.041 211.215C448.917 211.192 448.785 211.181 448.646 211.181C448.281 211.181 447.972 211.283 447.718 211.488C447.467 211.69 447.288 211.985 447.181 212.372V216H446.6V210.717H447.171L447.181 211.557C447.49 210.932 447.986 210.619 448.67 210.619C448.833 210.619 448.961 210.64 449.056 210.683L449.041 211.215ZM449.549 213.28C449.549 212.772 449.646 212.315 449.842 211.908C450.04 211.501 450.319 211.186 450.677 210.961C451.038 210.733 451.447 210.619 451.902 210.619C452.605 210.619 453.175 210.867 453.611 211.361C454.048 211.853 454.266 212.506 454.266 213.319V213.441C454.266 213.952 454.166 214.413 453.968 214.823C453.772 215.23 453.496 215.544 453.138 215.766C452.78 215.987 452.371 216.098 451.912 216.098C451.212 216.098 450.643 215.852 450.203 215.36C449.767 214.866 449.549 214.211 449.549 213.397V213.28ZM450.135 213.441C450.135 214.073 450.298 214.592 450.623 214.999C450.952 215.403 451.382 215.604 451.912 215.604C452.439 215.604 452.866 215.403 453.191 214.999C453.52 214.592 453.685 214.057 453.685 213.393V213.28C453.685 212.877 453.61 212.507 453.46 212.172C453.31 211.837 453.1 211.578 452.83 211.396C452.56 211.21 452.251 211.117 451.902 211.117C451.382 211.117 450.957 211.322 450.628 211.732C450.299 212.139 450.135 212.673 450.135 213.334V213.441ZM460.35 211.215C460.226 211.192 460.094 211.181 459.954 211.181C459.59 211.181 459.28 211.283 459.026 211.488C458.776 211.69 458.597 211.985 458.489 212.372V216H457.908V210.717H458.479L458.489 211.557C458.799 210.932 459.295 210.619 459.979 210.619C460.141 210.619 460.27 210.64 460.364 210.683L460.35 211.215ZM460.857 213.28C460.857 212.772 460.955 212.315 461.15 211.908C461.349 211.501 461.627 211.186 461.985 210.961C462.347 210.733 462.755 210.619 463.211 210.619C463.914 210.619 464.484 210.867 464.92 211.361C465.356 211.853 465.574 212.506 465.574 213.319V213.441C465.574 213.952 465.475 214.413 465.276 214.823C465.081 215.23 464.804 215.544 464.446 215.766C464.088 215.987 463.68 216.098 463.221 216.098C462.521 216.098 461.951 215.852 461.512 215.36C461.076 214.866 460.857 214.211 460.857 213.397V213.28ZM461.443 213.441C461.443 214.073 461.606 214.592 461.932 214.999C462.26 215.403 462.69 215.604 463.221 215.604C463.748 215.604 464.174 215.403 464.5 214.999C464.829 214.592 464.993 214.057 464.993 213.393V213.28C464.993 212.877 464.918 212.507 464.769 212.172C464.619 211.837 464.409 211.578 464.139 211.396C463.868 211.21 463.559 211.117 463.211 211.117C462.69 211.117 462.265 211.322 461.937 211.732C461.608 212.139 461.443 212.673 461.443 213.334V213.441ZM466.463 213.28C466.463 212.772 466.561 212.315 466.756 211.908C466.954 211.501 467.233 211.186 467.591 210.961C467.952 210.733 468.361 210.619 468.816 210.619C469.52 210.619 470.089 210.867 470.525 211.361C470.962 211.853 471.18 212.506 471.18 213.319V213.441C471.18 213.952 471.08 214.413 470.882 214.823C470.687 215.23 470.41 215.544 470.052 215.766C469.694 215.987 469.285 216.098 468.826 216.098C468.126 216.098 467.557 215.852 467.117 215.36C466.681 214.866 466.463 214.211 466.463 213.397V213.28ZM467.049 213.441C467.049 214.073 467.212 214.592 467.537 214.999C467.866 215.403 468.296 215.604 468.826 215.604C469.354 215.604 469.78 215.403 470.105 214.999C470.434 214.592 470.599 214.057 470.599 213.393V213.28C470.599 212.877 470.524 212.507 470.374 212.172C470.224 211.837 470.014 211.578 469.744 211.396C469.474 211.21 469.165 211.117 468.816 211.117C468.296 211.117 467.871 211.322 467.542 211.732C467.213 212.139 467.049 212.673 467.049 213.334V213.441ZM473.299 209.364V210.717H474.393V211.195H473.299V214.716C473.299 215.009 473.351 215.227 473.455 215.37C473.562 215.513 473.74 215.585 473.987 215.585C474.085 215.585 474.243 215.569 474.461 215.536L474.485 216.015C474.332 216.07 474.124 216.098 473.86 216.098C473.46 216.098 473.169 215.982 472.986 215.751C472.804 215.517 472.713 215.173 472.713 214.721V211.195H471.741V210.717H472.713V209.364H473.299ZM478.689 216H478.104V210.717H478.689V216ZM478.001 209.188C478.001 209.078 478.037 208.985 478.108 208.91C478.18 208.832 478.278 208.793 478.401 208.793C478.525 208.793 478.623 208.832 478.694 208.91C478.769 208.985 478.807 209.078 478.807 209.188C478.807 209.299 478.769 209.392 478.694 209.467C478.623 209.542 478.525 209.579 478.401 209.579C478.278 209.579 478.18 209.542 478.108 209.467C478.037 209.392 478.001 209.299 478.001 209.188ZM483.445 214.657C483.445 214.368 483.328 214.135 483.094 213.959C482.863 213.783 482.513 213.646 482.044 213.549C481.575 213.448 481.211 213.334 480.95 213.207C480.693 213.077 480.501 212.919 480.374 212.733C480.25 212.548 480.188 212.323 480.188 212.06C480.188 211.643 480.363 211.299 480.711 211.029C481.059 210.756 481.505 210.619 482.049 210.619C482.638 210.619 483.11 210.766 483.465 211.059C483.823 211.348 484.002 211.728 484.002 212.196H483.416C483.416 211.887 483.286 211.63 483.025 211.425C482.768 211.22 482.443 211.117 482.049 211.117C481.665 211.117 481.355 211.203 481.121 211.376C480.89 211.545 480.774 211.767 480.774 212.04C480.774 212.304 480.87 212.509 481.062 212.655C481.258 212.799 481.611 212.93 482.122 213.051C482.636 213.171 483.021 213.3 483.274 213.437C483.532 213.573 483.722 213.738 483.846 213.93C483.969 214.122 484.031 214.354 484.031 214.628C484.031 215.074 483.851 215.43 483.489 215.697C483.131 215.964 482.662 216.098 482.083 216.098C481.468 216.098 480.968 215.95 480.584 215.653C480.203 215.354 480.013 214.976 480.013 214.521H480.599C480.621 214.862 480.765 215.129 481.028 215.321C481.295 215.51 481.647 215.604 482.083 215.604C482.49 215.604 482.819 215.515 483.069 215.336C483.32 215.157 483.445 214.931 483.445 214.657ZM326.097 228C326.038 227.834 326.001 227.588 325.984 227.263C325.779 227.53 325.517 227.736 325.198 227.883C324.882 228.026 324.547 228.098 324.192 228.098C323.685 228.098 323.273 227.956 322.957 227.673C322.645 227.39 322.488 227.032 322.488 226.599C322.488 226.084 322.701 225.677 323.128 225.378C323.558 225.078 324.155 224.929 324.92 224.929H325.979V224.328C325.979 223.951 325.862 223.654 325.628 223.439C325.397 223.221 325.058 223.112 324.612 223.112C324.205 223.112 323.868 223.216 323.602 223.425C323.335 223.633 323.201 223.884 323.201 224.177L322.615 224.172C322.615 223.752 322.811 223.389 323.201 223.083C323.592 222.774 324.072 222.619 324.642 222.619C325.231 222.619 325.695 222.767 326.033 223.063C326.375 223.356 326.551 223.767 326.561 224.294V226.794C326.561 227.305 326.614 227.688 326.722 227.941V228H326.097ZM324.261 227.58C324.651 227.58 325 227.486 325.306 227.297C325.615 227.108 325.84 226.856 325.979 226.54V225.378H324.935C324.352 225.384 323.896 225.492 323.567 225.7C323.239 225.905 323.074 226.188 323.074 226.55C323.074 226.846 323.183 227.092 323.401 227.287C323.623 227.482 323.909 227.58 324.261 227.58ZM327.889 225.31C327.889 224.489 328.071 223.837 328.436 223.352C328.803 222.863 329.301 222.619 329.93 222.619C330.643 222.619 331.186 222.901 331.561 223.464V220.5H332.142V228H331.595L331.57 227.297C331.196 227.831 330.646 228.098 329.92 228.098C329.311 228.098 328.82 227.854 328.445 227.365C328.074 226.874 327.889 226.211 327.889 225.378V225.31ZM328.479 225.412C328.479 226.086 328.615 226.618 328.885 227.009C329.155 227.396 329.536 227.59 330.027 227.59C330.747 227.59 331.258 227.272 331.561 226.638V224.157C331.258 223.47 330.75 223.127 330.037 223.127C329.546 223.127 329.163 223.321 328.89 223.708C328.616 224.092 328.479 224.66 328.479 225.412ZM333.445 225.31C333.445 224.489 333.628 223.837 333.992 223.352C334.36 222.863 334.858 222.619 335.486 222.619C336.199 222.619 336.743 222.901 337.117 223.464V220.5H337.698V228H337.151L337.127 227.297C336.753 227.831 336.202 228.098 335.477 228.098C334.868 228.098 334.376 227.854 334.002 227.365C333.631 226.874 333.445 226.211 333.445 225.378V225.31ZM334.036 225.412C334.036 226.086 334.171 226.618 334.441 227.009C334.712 227.396 335.092 227.59 335.584 227.59C336.303 227.59 336.814 227.272 337.117 226.638V224.157C336.814 223.47 336.307 223.127 335.594 223.127C335.102 223.127 334.72 223.321 334.446 223.708C334.173 224.092 334.036 224.66 334.036 225.412ZM341.282 228.098C340.833 228.098 340.426 227.987 340.062 227.766C339.7 227.544 339.419 227.237 339.217 226.843C339.015 226.446 338.914 226.001 338.914 225.51V225.3C338.914 224.792 339.012 224.335 339.207 223.928C339.406 223.521 339.681 223.202 340.032 222.971C340.384 222.736 340.765 222.619 341.175 222.619C341.816 222.619 342.324 222.839 342.698 223.278C343.076 223.715 343.265 224.312 343.265 225.07V225.397H339.495V225.51C339.495 226.109 339.666 226.608 340.008 227.009C340.353 227.406 340.786 227.604 341.307 227.604C341.619 227.604 341.894 227.548 342.132 227.434C342.373 227.32 342.591 227.137 342.786 226.887L343.152 227.165C342.723 227.787 342.099 228.098 341.282 228.098ZM341.175 223.117C340.735 223.117 340.364 223.278 340.062 223.601C339.762 223.923 339.58 224.356 339.515 224.899H342.684V224.836C342.667 224.328 342.522 223.915 342.249 223.596C341.976 223.277 341.618 223.117 341.175 223.117ZM344.168 225.31C344.168 224.489 344.35 223.837 344.715 223.352C345.083 222.863 345.581 222.619 346.209 222.619C346.922 222.619 347.465 222.901 347.84 223.464V220.5H348.421V228H347.874L347.85 227.297C347.475 227.831 346.925 228.098 346.199 228.098C345.59 228.098 345.099 227.854 344.725 227.365C344.354 226.874 344.168 226.211 344.168 225.378V225.31ZM344.759 225.412C344.759 226.086 344.894 226.618 345.164 227.009C345.434 227.396 345.815 227.59 346.307 227.59C347.026 227.59 347.537 227.272 347.84 226.638V224.157C347.537 223.47 347.029 223.127 346.316 223.127C345.825 223.127 345.442 223.321 345.169 223.708C344.896 224.092 344.759 224.66 344.759 225.412ZM353.655 226.784L353.743 227.238L353.86 226.76L355.13 222.717H355.628L356.883 226.726L357.02 227.282L357.132 226.77L358.216 222.717H358.821L357.283 228H356.785L355.428 223.811L355.364 223.522L355.301 223.815L353.968 228H353.47L351.937 222.717H352.537L353.655 226.784ZM360.584 228H359.998V222.717H360.584V228ZM359.896 221.188C359.896 221.078 359.931 220.985 360.003 220.91C360.075 220.832 360.172 220.793 360.296 220.793C360.42 220.793 360.517 220.832 360.589 220.91C360.664 220.985 360.701 221.078 360.701 221.188C360.701 221.299 360.664 221.392 360.589 221.467C360.517 221.542 360.42 221.579 360.296 221.579C360.172 221.579 360.075 221.542 360.003 221.467C359.931 221.392 359.896 221.299 359.896 221.188ZM363.084 221.364V222.717H364.178V223.195H363.084V226.716C363.084 227.009 363.136 227.227 363.24 227.37C363.348 227.513 363.525 227.585 363.772 227.585C363.87 227.585 364.028 227.569 364.246 227.536L364.271 228.015C364.118 228.07 363.909 228.098 363.646 228.098C363.245 228.098 362.954 227.982 362.771 227.751C362.589 227.517 362.498 227.173 362.498 226.721V223.195H361.526V222.717H362.498V221.364H363.084ZM365.97 223.61C366.162 223.295 366.408 223.05 366.707 222.878C367.007 222.705 367.334 222.619 367.688 222.619C368.255 222.619 368.676 222.779 368.953 223.098C369.23 223.417 369.37 223.895 369.373 224.533V228H368.792V224.528C368.789 224.056 368.688 223.705 368.489 223.474C368.294 223.243 367.98 223.127 367.547 223.127C367.186 223.127 366.865 223.241 366.585 223.469C366.308 223.693 366.103 223.998 365.97 224.382V228H365.389V220.5H365.97V223.61ZM373.841 222.717L373.86 223.576C374.056 223.257 374.3 223.018 374.593 222.858C374.886 222.699 375.211 222.619 375.569 222.619C376.403 222.619 376.932 222.961 377.156 223.645C377.345 223.316 377.597 223.063 377.913 222.888C378.229 222.709 378.577 222.619 378.958 222.619C380.091 222.619 380.669 223.238 380.691 224.475V228H380.105V224.519C380.102 224.047 380 223.697 379.798 223.469C379.599 223.241 379.274 223.127 378.821 223.127C378.401 223.133 378.047 223.27 377.757 223.537C377.467 223.801 377.306 224.123 377.273 224.504V228H376.688V224.475C376.684 224.022 376.577 223.685 376.365 223.464C376.157 223.239 375.835 223.127 375.398 223.127C375.031 223.127 374.715 223.233 374.451 223.444C374.188 223.653 373.992 223.964 373.865 224.377V228H373.279V222.717H373.841ZM382.83 228H382.244V222.717H382.83V228ZM382.142 221.188C382.142 221.078 382.177 220.985 382.249 220.91C382.321 220.832 382.418 220.793 382.542 220.793C382.666 220.793 382.763 220.832 382.835 220.91C382.91 220.985 382.947 221.078 382.947 221.188C382.947 221.299 382.91 221.392 382.835 221.467C382.763 221.542 382.666 221.579 382.542 221.579C382.418 221.579 382.321 221.542 382.249 221.467C382.177 221.392 382.142 221.299 382.142 221.188ZM385.076 228H384.49V220.5H385.076V228ZM387.923 225.339L387.254 225.983V228H386.668V220.5H387.254V225.3L387.806 224.704L389.827 222.717H390.564L388.323 224.943L390.76 228H390.062L387.923 225.339ZM394.422 228V223.195H393.548V222.717H394.422V222.077C394.422 221.537 394.559 221.122 394.832 220.832C395.109 220.542 395.493 220.397 395.984 220.397C396.206 220.397 396.412 220.425 396.604 220.48L396.561 220.969C396.398 220.93 396.22 220.91 396.028 220.91C395.706 220.91 395.455 221.011 395.276 221.213C395.097 221.411 395.008 221.695 395.008 222.062V222.717H396.268V223.195H395.008V228H394.422ZM396.99 225.28C396.99 224.772 397.088 224.315 397.283 223.908C397.482 223.501 397.76 223.186 398.118 222.961C398.479 222.733 398.888 222.619 399.344 222.619C400.047 222.619 400.617 222.867 401.053 223.361C401.489 223.853 401.707 224.506 401.707 225.319V225.441C401.707 225.952 401.608 226.413 401.409 226.823C401.214 227.23 400.937 227.544 400.579 227.766C400.221 227.987 399.812 228.098 399.354 228.098C398.654 228.098 398.084 227.852 397.645 227.36C397.208 226.866 396.99 226.211 396.99 225.397V225.28ZM397.576 225.441C397.576 226.073 397.739 226.592 398.064 226.999C398.393 227.403 398.823 227.604 399.354 227.604C399.881 227.604 400.307 227.403 400.633 226.999C400.962 226.592 401.126 226.057 401.126 225.393V225.28C401.126 224.877 401.051 224.507 400.901 224.172C400.752 223.837 400.542 223.578 400.271 223.396C400.001 223.21 399.692 223.117 399.344 223.117C398.823 223.117 398.398 223.322 398.069 223.732C397.741 224.139 397.576 224.673 397.576 225.334V225.441ZM405.359 223.215C405.236 223.192 405.104 223.181 404.964 223.181C404.599 223.181 404.29 223.283 404.036 223.488C403.785 223.69 403.606 223.985 403.499 224.372V228H402.918V222.717H403.489L403.499 223.557C403.808 222.932 404.305 222.619 404.988 222.619C405.151 222.619 405.28 222.64 405.374 222.683L405.359 223.215ZM412.054 228C411.995 227.834 411.958 227.588 411.941 227.263C411.736 227.53 411.474 227.736 411.155 227.883C410.84 228.026 410.504 228.098 410.149 228.098C409.642 228.098 409.23 227.956 408.914 227.673C408.602 227.39 408.445 227.032 408.445 226.599C408.445 226.084 408.659 225.677 409.085 225.378C409.515 225.078 410.112 224.929 410.877 224.929H411.937V224.328C411.937 223.951 411.819 223.654 411.585 223.439C411.354 223.221 411.015 223.112 410.569 223.112C410.162 223.112 409.826 223.216 409.559 223.425C409.292 223.633 409.158 223.884 409.158 224.177L408.572 224.172C408.572 223.752 408.768 223.389 409.158 223.083C409.549 222.774 410.029 222.619 410.599 222.619C411.188 222.619 411.652 222.767 411.99 223.063C412.332 223.356 412.508 223.767 412.518 224.294V226.794C412.518 227.305 412.571 227.688 412.679 227.941V228H412.054ZM410.218 227.58C410.608 227.58 410.957 227.486 411.263 227.297C411.572 227.108 411.797 226.856 411.937 226.54V225.378H410.892C410.309 225.384 409.853 225.492 409.524 225.7C409.196 225.905 409.031 226.188 409.031 226.55C409.031 226.846 409.14 227.092 409.358 227.287C409.58 227.482 409.866 227.58 410.218 227.58ZM418.465 227.604C418.872 227.604 419.212 227.491 419.485 227.263C419.762 227.032 419.912 226.734 419.935 226.369H420.496C420.48 226.691 420.379 226.986 420.193 227.253C420.008 227.517 419.76 227.723 419.451 227.873C419.145 228.023 418.816 228.098 418.465 228.098C417.771 228.098 417.221 227.857 416.814 227.375C416.411 226.893 416.209 226.245 416.209 225.432V225.256C416.209 224.735 416.3 224.274 416.482 223.874C416.665 223.474 416.925 223.164 417.264 222.946C417.605 222.728 418.004 222.619 418.46 222.619C419.039 222.619 419.516 222.792 419.891 223.137C420.268 223.482 420.47 223.936 420.496 224.499H419.935C419.909 224.086 419.759 223.752 419.485 223.498C419.215 223.244 418.873 223.117 418.46 223.117C417.933 223.117 417.522 223.308 417.229 223.688C416.94 224.069 416.795 224.603 416.795 225.29V225.461C416.795 226.135 416.94 226.66 417.229 227.038C417.522 227.416 417.934 227.604 418.465 227.604ZM424.109 223.215C423.986 223.192 423.854 223.181 423.714 223.181C423.349 223.181 423.04 223.283 422.786 223.488C422.535 223.69 422.356 223.985 422.249 224.372V228H421.668V222.717H422.239L422.249 223.557C422.558 222.932 423.055 222.619 423.738 222.619C423.901 222.619 424.03 222.64 424.124 222.683L424.109 223.215ZM426.985 228.098C426.536 228.098 426.129 227.987 425.765 227.766C425.403 227.544 425.122 227.237 424.92 226.843C424.718 226.446 424.617 226.001 424.617 225.51V225.3C424.617 224.792 424.715 224.335 424.91 223.928C425.109 223.521 425.384 223.202 425.735 222.971C426.087 222.736 426.468 222.619 426.878 222.619C427.519 222.619 428.027 222.839 428.401 223.278C428.779 223.715 428.968 224.312 428.968 225.07V225.397H425.198V225.51C425.198 226.109 425.369 226.608 425.711 227.009C426.056 227.406 426.489 227.604 427.01 227.604C427.322 227.604 427.597 227.548 427.835 227.434C428.076 227.32 428.294 227.137 428.489 226.887L428.855 227.165C428.426 227.787 427.802 228.098 426.985 228.098ZM426.878 223.117C426.438 223.117 426.067 223.278 425.765 223.601C425.465 223.923 425.283 224.356 425.218 224.899H428.387V224.836C428.37 224.328 428.226 223.915 427.952 223.596C427.679 223.277 427.321 223.117 426.878 223.117ZM433.44 228C433.382 227.834 433.344 227.588 433.328 227.263C433.123 227.53 432.861 227.736 432.542 227.883C432.226 228.026 431.891 228.098 431.536 228.098C431.028 228.098 430.617 227.956 430.301 227.673C429.988 227.39 429.832 227.032 429.832 226.599C429.832 226.084 430.045 225.677 430.472 225.378C430.901 225.078 431.499 224.929 432.264 224.929H433.323V224.328C433.323 223.951 433.206 223.654 432.972 223.439C432.741 223.221 432.402 223.112 431.956 223.112C431.549 223.112 431.212 223.216 430.945 223.425C430.678 223.633 430.545 223.884 430.545 224.177L429.959 224.172C429.959 223.752 430.154 223.389 430.545 223.083C430.936 222.774 431.416 222.619 431.985 222.619C432.575 222.619 433.038 222.767 433.377 223.063C433.719 223.356 433.895 223.767 433.904 224.294V226.794C433.904 227.305 433.958 227.688 434.065 227.941V228H433.44ZM431.604 227.58C431.995 227.58 432.343 227.486 432.649 227.297C432.959 227.108 433.183 226.856 433.323 226.54V225.378H432.278C431.696 225.384 431.24 225.492 430.911 225.7C430.582 225.905 430.418 226.188 430.418 226.55C430.418 226.846 430.527 227.092 430.745 227.287C430.966 227.482 431.253 227.58 431.604 227.58ZM435.999 222.717L436.019 223.576C436.214 223.257 436.458 223.018 436.751 222.858C437.044 222.699 437.369 222.619 437.728 222.619C438.561 222.619 439.09 222.961 439.314 223.645C439.503 223.316 439.756 223.063 440.071 222.888C440.387 222.709 440.735 222.619 441.116 222.619C442.249 222.619 442.827 223.238 442.85 224.475V228H442.264V224.519C442.26 224.047 442.158 223.697 441.956 223.469C441.757 223.241 441.432 223.127 440.979 223.127C440.56 223.133 440.205 223.27 439.915 223.537C439.625 223.801 439.464 224.123 439.432 224.504V228H438.846V224.475C438.842 224.022 438.735 223.685 438.523 223.464C438.315 223.239 437.993 223.127 437.557 223.127C437.189 223.127 436.873 223.233 436.609 223.444C436.346 223.653 436.15 223.964 436.023 224.377V228H435.438V222.717H435.999ZM446.009 227.16L447.552 222.717H448.182L445.926 228.898L445.809 229.172C445.519 229.813 445.071 230.134 444.466 230.134C444.326 230.134 444.176 230.111 444.017 230.065L444.012 229.582L444.314 229.611C444.601 229.611 444.832 229.54 445.008 229.396C445.187 229.257 445.338 229.014 445.462 228.669L445.721 227.956L443.729 222.717H444.368L446.009 227.16ZM452.43 221.364V222.717H453.523V223.195H452.43V226.716C452.43 227.009 452.482 227.227 452.586 227.37C452.693 227.513 452.871 227.585 453.118 227.585C453.216 227.585 453.374 227.569 453.592 227.536L453.616 228.015C453.463 228.07 453.255 228.098 452.991 228.098C452.591 228.098 452.299 227.982 452.117 227.751C451.935 227.517 451.844 227.173 451.844 226.721V223.195H450.872V222.717H451.844V221.364H452.43ZM458.069 228C458.011 227.834 457.973 227.588 457.957 227.263C457.752 227.53 457.49 227.736 457.171 227.883C456.855 228.026 456.52 228.098 456.165 228.098C455.657 228.098 455.245 227.956 454.93 227.673C454.617 227.39 454.461 227.032 454.461 226.599C454.461 226.084 454.674 225.677 455.101 225.378C455.53 225.078 456.128 224.929 456.893 224.929H457.952V224.328C457.952 223.951 457.835 223.654 457.601 223.439C457.369 223.221 457.031 223.112 456.585 223.112C456.178 223.112 455.841 223.216 455.574 223.425C455.307 223.633 455.174 223.884 455.174 224.177L454.588 224.172C454.588 223.752 454.783 223.389 455.174 223.083C455.564 222.774 456.045 222.619 456.614 222.619C457.203 222.619 457.667 222.767 458.006 223.063C458.348 223.356 458.523 223.767 458.533 224.294V226.794C458.533 227.305 458.587 227.688 458.694 227.941V228H458.069ZM456.233 227.58C456.624 227.58 456.972 227.486 457.278 227.297C457.588 227.108 457.812 226.856 457.952 226.54V225.378H456.907C456.325 225.384 455.869 225.492 455.54 225.7C455.211 225.905 455.047 226.188 455.047 226.55C455.047 226.846 455.156 227.092 455.374 227.287C455.595 227.482 455.882 227.58 456.233 227.58ZM463.26 226.657C463.26 226.368 463.143 226.135 462.908 225.959C462.677 225.783 462.327 225.646 461.858 225.549C461.39 225.448 461.025 225.334 460.765 225.207C460.507 225.077 460.315 224.919 460.188 224.733C460.065 224.548 460.003 224.323 460.003 224.06C460.003 223.643 460.177 223.299 460.525 223.029C460.874 222.756 461.32 222.619 461.863 222.619C462.452 222.619 462.924 222.766 463.279 223.059C463.637 223.348 463.816 223.728 463.816 224.196H463.23C463.23 223.887 463.1 223.63 462.84 223.425C462.583 223.22 462.257 223.117 461.863 223.117C461.479 223.117 461.17 223.203 460.936 223.376C460.704 223.545 460.589 223.767 460.589 224.04C460.589 224.304 460.685 224.509 460.877 224.655C461.072 224.799 461.425 224.93 461.937 225.051C462.451 225.171 462.835 225.3 463.089 225.437C463.346 225.573 463.536 225.738 463.66 225.93C463.784 226.122 463.846 226.354 463.846 226.628C463.846 227.074 463.665 227.43 463.304 227.697C462.946 227.964 462.477 228.098 461.897 228.098C461.282 228.098 460.783 227.95 460.398 227.653C460.018 227.354 459.827 226.976 459.827 226.521H460.413C460.436 226.862 460.579 227.129 460.843 227.321C461.11 227.51 461.461 227.604 461.897 227.604C462.304 227.604 462.633 227.515 462.884 227.336C463.134 227.157 463.26 226.931 463.26 226.657ZM466.072 221.364V222.717H467.166V223.195H466.072V226.716C466.072 227.009 466.124 227.227 466.229 227.37C466.336 227.513 466.513 227.585 466.761 227.585C466.858 227.585 467.016 227.569 467.234 227.536L467.259 228.015C467.106 228.07 466.897 228.098 466.634 228.098C466.233 228.098 465.942 227.982 465.76 227.751C465.577 227.517 465.486 227.173 465.486 226.721V223.195H464.515V222.717H465.486V221.364H466.072ZM470.423 228.098C469.974 228.098 469.567 227.987 469.202 227.766C468.841 227.544 468.559 227.237 468.357 226.843C468.156 226.446 468.055 226.001 468.055 225.51V225.3C468.055 224.792 468.152 224.335 468.348 223.928C468.546 223.521 468.821 223.202 469.173 222.971C469.524 222.736 469.905 222.619 470.315 222.619C470.957 222.619 471.465 222.839 471.839 223.278C472.216 223.715 472.405 224.312 472.405 225.07V225.397H468.636V225.51C468.636 226.109 468.807 226.608 469.148 227.009C469.493 227.406 469.926 227.604 470.447 227.604C470.76 227.604 471.035 227.548 471.272 227.434C471.513 227.32 471.731 227.137 471.927 226.887L472.293 227.165C471.863 227.787 471.24 228.098 470.423 228.098ZM470.315 223.117C469.876 223.117 469.505 223.278 469.202 223.601C468.903 223.923 468.72 224.356 468.655 224.899H471.824V224.836C471.808 224.328 471.663 223.915 471.39 223.596C471.116 223.277 470.758 223.117 470.315 223.117ZM473.489 227.648C473.489 227.535 473.525 227.438 473.597 227.36C473.672 227.279 473.774 227.238 473.904 227.238C474.035 227.238 474.137 227.279 474.212 227.36C474.287 227.438 474.324 227.535 474.324 227.648C474.324 227.762 474.287 227.857 474.212 227.932C474.137 228.003 474.035 228.039 473.904 228.039C473.774 228.039 473.672 228.003 473.597 227.932C473.525 227.857 473.489 227.762 473.489 227.648Z" fill="black"/>
</g>
<defs>
<linearGradient id="paint0_linear" x1="447.029" y1="81.3338" x2="342.313" y2="302.827" gradientUnits="userSpaceOnUse">
<stop stop-color="white"/>
<stop offset="1" stop-color="white" stop-opacity="0"/>
</linearGradient>
<clipPath id="clip0">
<rect width="535" height="367" fill="white"/>
</clipPath>
</defs>
</svg>
