<svg width="246" height="215" viewBox="0 0 246 215" fill="none" xmlns="http://www.w3.org/2000/svg">
<g clip-path="url(#clip0)">
<path d="M222.735 76H26.4787C17.2873 76 10.2576 84.1913 11.6524 93.2762L44.0466 304.276C45.1703 311.596 51.4675 317 58.8728 317H192.968C200.442 317 206.776 311.497 207.821 304.095L237.588 93.0954C238.862 84.0671 231.853 76 222.735 76Z" fill="#C6A8D9" stroke="black"/>
<path d="M132 1L71 290L93 304L157 7L132 1Z" fill="#CAF1F6" stroke="black"/>
<path d="M6.04244 83.7377L14.0802 76.7377C14.6263 76.262 15.3261 76 16.0504 76H231.072C231.839 76 232.577 76.2939 233.135 76.8213L240.529 83.8213C242.499 85.6861 241.179 89 238.467 89H8.01269C5.23914 89 3.95088 85.5592 6.04244 83.7377Z" fill="#FFDBDB" stroke="black"/>
</g>
<defs>
<clipPath id="clip0">
<rect width="246" height="215" fill="white"/>
</clipPath>
</defs>
</svg>
